<svg width="407" height="144" viewBox="0 0 407 144" fill="none" xmlns="http://www.w3.org/2000/svg">
<path d="M3.5 9.975H12.75V11.575H3.5V9.975ZM3.7 19H1.85V1.5H13.85V3.1H3.7V19ZM16.3203 13V11.45H22.8703V13H16.3203ZM38.9342 19.125C37.6342 19.125 36.4675 18.8417 35.4342 18.275C34.4175 17.6917 33.6175 16.9 33.0342 15.9C32.4508 14.8833 32.1592 13.725 32.1592 12.425C32.1592 11.1083 32.4508 9.95 33.0342 8.95C33.6175 7.95 34.4175 7.16667 35.4342 6.6C36.4675 6.03333 37.6342 5.75 38.9342 5.75C40.0508 5.75 41.0592 5.96667 41.9592 6.4C42.8592 6.83333 43.5675 7.48333 44.0842 8.35L42.7592 9.25C42.3092 8.58333 41.7508 8.09167 41.0842 7.775C40.4175 7.45833 39.6925 7.3 38.9092 7.3C37.9758 7.3 37.1342 7.51667 36.3842 7.95C35.6342 8.36667 35.0425 8.95833 34.6092 9.725C34.1758 10.4917 33.9592 11.3917 33.9592 12.425C33.9592 13.4583 34.1758 14.3583 34.6092 15.125C35.0425 15.8917 35.6342 16.4917 36.3842 16.925C37.1342 17.3417 37.9758 17.55 38.9092 17.55C39.6925 17.55 40.4175 17.3917 41.0842 17.075C41.7508 16.7583 42.3092 16.275 42.7592 15.625L44.0842 16.525C43.5675 17.375 42.8592 18.025 41.9592 18.475C41.0592 18.9083 40.0508 19.125 38.9342 19.125ZM47.5211 19V5.875H49.2961V16.3L58.0711 5.875H59.6461V19H57.8711V8.55L49.1211 19H47.5211ZM62.333 18.975L62.458 17.45C62.5747 17.4667 62.683 17.4917 62.783 17.525C62.8997 17.5417 62.9997 17.55 63.083 17.55C63.6163 17.55 64.0413 17.35 64.358 16.95C64.6913 16.55 64.9413 16.0167 65.108 15.35C65.2747 14.6833 65.3913 13.9333 65.458 13.1C65.5247 12.25 65.583 11.4 65.633 10.55L65.858 5.875H75.483V19H73.708V6.9L74.158 7.425H67.008L67.433 6.875L67.233 10.675C67.183 11.8083 67.0913 12.8917 66.958 13.925C66.8413 14.9583 66.6497 15.8667 66.383 16.65C66.133 17.4333 65.783 18.05 65.333 18.5C64.883 18.9333 64.308 19.15 63.608 19.15C63.408 19.15 63.1997 19.1333 62.983 19.1C62.783 19.0667 62.5663 19.025 62.333 18.975ZM88.6789 19V16.1L88.6039 15.625V10.775C88.6039 9.65833 88.2872 8.8 87.6539 8.2C87.0372 7.6 86.1122 7.3 84.8789 7.3C84.0289 7.3 83.2206 7.44167 82.4539 7.725C81.6872 8.00833 81.0372 8.38333 80.5039 8.85L79.7039 7.525C80.3706 6.95833 81.1706 6.525 82.1039 6.225C83.0372 5.90833 84.0206 5.75 85.0539 5.75C86.7539 5.75 88.0622 6.175 88.9789 7.025C89.9122 7.85833 90.3789 9.13333 90.3789 10.85V19H88.6789ZM84.1539 19.125C83.1706 19.125 82.3122 18.9667 81.5789 18.65C80.8622 18.3167 80.3122 17.8667 79.9289 17.3C79.5456 16.7167 79.3539 16.05 79.3539 15.3C79.3539 14.6167 79.5122 14 79.8289 13.45C80.1622 12.8833 80.6956 12.4333 81.4289 12.1C82.1789 11.75 83.1789 11.575 84.4289 11.575H88.9539V12.9H84.4789C83.2122 12.9 82.3289 13.125 81.8289 13.575C81.3456 14.025 81.1039 14.5833 81.1039 15.25C81.1039 16 81.3956 16.6 81.9789 17.05C82.5622 17.5 83.3789 17.725 84.4289 17.725C85.4289 17.725 86.2872 17.5 87.0039 17.05C87.7372 16.5833 88.2706 15.9167 88.6039 15.05L89.0039 16.275C88.6706 17.1417 88.0872 17.8333 87.2539 18.35C86.4372 18.8667 85.4039 19.125 84.1539 19.125ZM101.647 19V5.875H107.447C108.93 5.875 110.097 6.15833 110.947 6.725C111.814 7.29167 112.247 8.125 112.247 9.225C112.247 10.2917 111.839 11.1167 111.022 11.7C110.205 12.2667 109.13 12.55 107.797 12.55L108.147 12.025C109.714 12.025 110.864 12.3167 111.597 12.9C112.33 13.4833 112.697 14.325 112.697 15.425C112.697 16.5583 112.28 17.4417 111.447 18.075C110.63 18.6917 109.355 19 107.622 19H101.647ZM103.372 17.6H107.547C108.664 17.6 109.505 17.425 110.072 17.075C110.655 16.7083 110.947 16.125 110.947 15.325C110.947 14.525 110.689 13.9417 110.172 13.575C109.655 13.2083 108.839 13.025 107.722 13.025H103.372V17.6ZM103.372 11.7H107.322C108.339 11.7 109.114 11.5083 109.647 11.125C110.197 10.7417 110.472 10.1833 110.472 9.45C110.472 8.71667 110.197 8.16667 109.647 7.8C109.114 7.43333 108.339 7.25 107.322 7.25H103.372V11.7ZM120.382 19.15C119.432 19.15 118.49 19.0167 117.557 18.75C116.624 18.4833 115.799 18.075 115.082 17.525L115.657 16.2C116.29 16.6667 117.024 17.025 117.857 17.275C118.69 17.5083 119.515 17.625 120.332 17.625C121.149 17.6083 121.857 17.4917 122.457 17.275C123.057 17.0583 123.524 16.7583 123.857 16.375C124.19 15.9917 124.357 15.5583 124.357 15.075C124.357 14.375 124.04 13.8333 123.407 13.45C122.774 13.05 121.907 12.85 120.807 12.85H118.557V11.55H120.682C121.332 11.55 121.907 11.4667 122.407 11.3C122.907 11.1333 123.29 10.8917 123.557 10.575C123.84 10.2583 123.982 9.88333 123.982 9.45C123.982 8.98333 123.815 8.58333 123.482 8.25C123.165 7.91667 122.724 7.66667 122.157 7.5C121.59 7.33333 120.949 7.25 120.232 7.25C119.582 7.26667 118.907 7.36667 118.207 7.55C117.507 7.71667 116.815 7.975 116.132 8.325L115.632 6.95C116.399 6.55 117.157 6.25 117.907 6.05C118.674 5.83333 119.44 5.725 120.207 5.725C121.257 5.69167 122.199 5.81667 123.032 6.1C123.882 6.38333 124.557 6.79167 125.057 7.325C125.557 7.84167 125.807 8.46667 125.807 9.2C125.807 9.85 125.607 10.4167 125.207 10.9C124.807 11.3833 124.274 11.7583 123.607 12.025C122.94 12.2917 122.182 12.425 121.332 12.425L121.407 11.95C122.907 11.95 124.074 12.2417 124.907 12.825C125.757 13.4083 126.182 14.2 126.182 15.2C126.182 15.9833 125.924 16.675 125.407 17.275C124.89 17.8583 124.19 18.3167 123.307 18.65C122.44 18.9833 121.465 19.15 120.382 19.15ZM138.362 19V16.1L138.287 15.625V10.775C138.287 9.65833 137.97 8.8 137.337 8.2C136.72 7.6 135.795 7.3 134.562 7.3C133.712 7.3 132.903 7.44167 132.137 7.725C131.37 8.00833 130.72 8.38333 130.187 8.85L129.387 7.525C130.053 6.95833 130.853 6.525 131.787 6.225C132.72 5.90833 133.703 5.75 134.737 5.75C136.437 5.75 137.745 6.175 138.662 7.025C139.595 7.85833 140.062 9.13333 140.062 10.85V19H138.362ZM133.837 19.125C132.853 19.125 131.995 18.9667 131.262 18.65C130.545 18.3167 129.995 17.8667 129.612 17.3C129.228 16.7167 129.037 16.05 129.037 15.3C129.037 14.6167 129.195 14 129.512 13.45C129.845 12.8833 130.378 12.4333 131.112 12.1C131.862 11.75 132.862 11.575 134.112 11.575H138.637V12.9H134.162C132.895 12.9 132.012 13.125 131.512 13.575C131.028 14.025 130.787 14.5833 130.787 15.25C130.787 16 131.078 16.6 131.662 17.05C132.245 17.5 133.062 17.725 134.112 17.725C135.112 17.725 135.97 17.5 136.687 17.05C137.42 16.5833 137.953 15.9167 138.287 15.05L138.687 16.275C138.353 17.1417 137.77 17.8333 136.937 18.35C136.12 18.8667 135.087 19.125 133.837 19.125ZM144.787 19V5.875H146.562V16.3L155.337 5.875H156.912V19H155.137V8.55L146.387 19H144.787ZM161.999 19V5.875H163.799L169.749 15.95H168.999L175.049 5.875H176.699V19H175.074V7.9L175.399 8.05L169.749 17.4H168.949L163.249 7.95L163.624 7.875V19H161.999ZM187.15 19.125C185.883 19.125 184.741 18.8417 183.725 18.275C182.725 17.6917 181.933 16.9 181.35 15.9C180.766 14.8833 180.475 13.725 180.475 12.425C180.475 11.1083 180.766 9.95 181.35 8.95C181.933 7.95 182.725 7.16667 183.725 6.6C184.725 6.03333 185.866 5.75 187.15 5.75C188.45 5.75 189.6 6.03333 190.6 6.6C191.616 7.16667 192.408 7.95 192.975 8.95C193.558 9.95 193.85 11.1083 193.85 12.425C193.85 13.725 193.558 14.8833 192.975 15.9C192.408 16.9 191.616 17.6917 190.6 18.275C189.583 18.8417 188.433 19.125 187.15 19.125ZM187.15 17.55C188.1 17.55 188.941 17.3417 189.675 16.925C190.408 16.4917 190.983 15.8917 191.4 15.125C191.833 14.3417 192.05 13.4417 192.05 12.425C192.05 11.3917 191.833 10.4917 191.4 9.725C190.983 8.95833 190.408 8.36667 189.675 7.95C188.941 7.51667 188.108 7.3 187.175 7.3C186.241 7.3 185.408 7.51667 184.675 7.95C183.941 8.36667 183.358 8.95833 182.925 9.725C182.491 10.4917 182.275 11.3917 182.275 12.425C182.275 13.4417 182.491 14.3417 182.925 15.125C183.358 15.8917 183.941 16.4917 184.675 16.925C185.408 17.3417 186.233 17.55 187.15 17.55ZM206.57 18.15V7.425H200.245L200.095 10.35C200.062 11.2333 200.003 12.1 199.92 12.95C199.853 13.8 199.728 14.5833 199.545 15.3C199.378 16 199.137 16.575 198.82 17.025C198.503 17.4583 198.095 17.7083 197.595 17.775L195.82 17.45C196.337 17.4667 196.762 17.2833 197.095 16.9C197.428 16.5 197.687 15.9583 197.87 15.275C198.053 14.5917 198.187 13.8167 198.27 12.95C198.353 12.0667 198.42 11.1667 198.47 10.25L198.645 5.875H208.345V18.15H206.57ZM195.27 22.175V17.45H210.395V22.175H208.72V19H196.945V22.175H195.27ZM219.479 19.125C218.112 19.125 216.912 18.8417 215.879 18.275C214.846 17.6917 214.037 16.9 213.454 15.9C212.871 14.8833 212.579 13.725 212.579 12.425C212.579 11.125 212.854 9.975 213.404 8.975C213.971 7.975 214.737 7.19167 215.704 6.625C216.687 6.04167 217.787 5.75 219.004 5.75C220.237 5.75 221.329 6.03333 222.279 6.6C223.246 7.15 224.004 7.93333 224.554 8.95C225.104 9.95 225.379 11.1083 225.379 12.425C225.379 12.5083 225.371 12.6 225.354 12.7C225.354 12.7833 225.354 12.875 225.354 12.975H213.929V11.65H224.404L223.704 12.175C223.704 11.225 223.496 10.3833 223.079 9.65C222.679 8.9 222.129 8.31667 221.429 7.9C220.729 7.48333 219.921 7.275 219.004 7.275C218.104 7.275 217.296 7.48333 216.579 7.9C215.862 8.31667 215.304 8.9 214.904 9.65C214.504 10.4 214.304 11.2583 214.304 12.225V12.5C214.304 13.5 214.521 14.3833 214.954 15.15C215.404 15.9 216.021 16.4917 216.804 16.925C217.604 17.3417 218.512 17.55 219.529 17.55C220.329 17.55 221.071 17.4083 221.754 17.125C222.454 16.8417 223.054 16.4083 223.554 15.825L224.554 16.975C223.971 17.675 223.237 18.2083 222.354 18.575C221.487 18.9417 220.529 19.125 219.479 19.125ZM229.308 19V5.875H231.083V16.3L239.858 5.875H241.433V19H239.658V8.55L230.908 19H229.308ZM235.258 3.975C234.158 3.975 233.267 3.7 232.583 3.15C231.917 2.58333 231.567 1.775 231.533 0.725H232.808C232.825 1.39167 233.058 1.91667 233.508 2.3C233.958 2.68333 234.542 2.875 235.258 2.875C235.975 2.875 236.558 2.68333 237.008 2.3C237.475 1.91667 237.717 1.39167 237.733 0.725H239.008C238.992 1.775 238.642 2.58333 237.958 3.15C237.275 3.7 236.375 3.975 235.258 3.975ZM252.02 19.125C250.72 19.125 249.553 18.8417 248.52 18.275C247.503 17.6917 246.703 16.9 246.12 15.9C245.537 14.8833 245.245 13.725 245.245 12.425C245.245 11.1083 245.537 9.95 246.12 8.95C246.703 7.95 247.503 7.16667 248.52 6.6C249.553 6.03333 250.72 5.75 252.02 5.75C253.137 5.75 254.145 5.96667 255.045 6.4C255.945 6.83333 256.653 7.48333 257.17 8.35L255.845 9.25C255.395 8.58333 254.837 8.09167 254.17 7.775C253.503 7.45833 252.778 7.3 251.995 7.3C251.062 7.3 250.22 7.51667 249.47 7.95C248.72 8.36667 248.128 8.95833 247.695 9.725C247.262 10.4917 247.045 11.3917 247.045 12.425C247.045 13.4583 247.262 14.3583 247.695 15.125C248.128 15.8917 248.72 16.4917 249.47 16.925C250.22 17.3417 251.062 17.55 251.995 17.55C252.778 17.55 253.503 17.3917 254.17 17.075C254.837 16.7583 255.395 16.275 255.845 15.625L257.17 16.525C256.653 17.375 255.945 18.025 255.045 18.475C254.145 18.9083 253.137 19.125 252.02 19.125ZM262.863 19V6.95L263.313 7.425H257.888V5.875H269.613V7.425H264.188L264.638 6.95V19H262.863ZM272.179 19V5.875H277.979C279.463 5.875 280.629 6.15833 281.479 6.725C282.346 7.29167 282.779 8.125 282.779 9.225C282.779 10.2917 282.371 11.1167 281.554 11.7C280.738 12.2667 279.663 12.55 278.329 12.55L278.679 12.025C280.246 12.025 281.396 12.3167 282.129 12.9C282.863 13.4833 283.229 14.325 283.229 15.425C283.229 16.5583 282.813 17.4417 281.979 18.075C281.163 18.6917 279.888 19 278.154 19H272.179ZM273.904 17.6H278.079C279.196 17.6 280.038 17.425 280.604 17.075C281.188 16.7083 281.479 16.125 281.479 15.325C281.479 14.525 281.221 13.9417 280.704 13.575C280.188 13.2083 279.371 13.025 278.254 13.025H273.904V17.6ZM273.904 11.7H277.854C278.871 11.7 279.646 11.5083 280.179 11.125C280.729 10.7417 281.004 10.1833 281.004 9.45C281.004 8.71667 280.729 8.16667 280.179 7.8C279.646 7.43333 278.871 7.25 277.854 7.25H273.904V11.7ZM287.389 19V5.875H289.164V16.3L297.939 5.875H299.514V19H297.739V8.55L288.989 19H287.389ZM313.076 19V14.275L313.401 14.65H308.951C307.268 14.65 305.951 14.2833 305.001 13.55C304.051 12.8167 303.576 11.75 303.576 10.35C303.576 8.85 304.085 7.73333 305.101 7C306.118 6.25 307.476 5.875 309.176 5.875H314.701V19H313.076ZM303.476 19L307.076 13.95H308.926L305.401 19H303.476ZM313.076 13.75V6.9L313.401 7.425H309.226C308.01 7.425 307.06 7.65833 306.376 8.125C305.71 8.59167 305.376 9.35 305.376 10.4C305.376 12.35 306.618 13.325 309.101 13.325H313.401L313.076 13.75ZM9.525 49.15C8.19167 49.15 6.95833 48.9333 5.825 48.5C4.70833 48.05 3.73333 47.425 2.9 46.625C2.08333 45.825 1.44167 44.8833 0.975 43.8C0.525 42.7167 0.3 41.5333 0.3 40.25C0.3 38.9667 0.525 37.7833 0.975 36.7C1.44167 35.6167 2.09167 34.675 2.925 33.875C3.75833 33.075 4.73333 32.4583 5.85 32.025C6.98333 31.575 8.21667 31.35 9.55 31.35C10.8833 31.35 12.1 31.5583 13.2 31.975C14.3167 32.3917 15.2667 33.025 16.05 33.875L14.9 35.05C14.1667 34.3167 13.3583 33.7917 12.475 33.475C11.5917 33.1583 10.6417 33 9.625 33C8.54167 33 7.54167 33.1833 6.625 33.55C5.725 33.9 4.93333 34.4083 4.25 35.075C3.58333 35.725 3.05833 36.4917 2.675 37.375C2.30833 38.2417 2.125 39.2 2.125 40.25C2.125 41.2833 2.30833 42.2417 2.675 43.125C3.05833 44.0083 3.58333 44.7833 4.25 45.45C4.93333 46.1 5.725 46.6083 6.625 46.975C7.54167 47.325 8.53333 47.5 9.6 47.5C10.6 47.5 11.5417 47.35 12.425 47.05C13.325 46.75 14.15 46.2417 14.9 45.525L15.95 46.925C15.1167 47.6583 14.1417 48.2167 13.025 48.6C11.9083 48.9667 10.7417 49.15 9.525 49.15ZM14.175 46.7V40.25H15.95V46.925L14.175 46.7ZM19.8359 43V41.45H26.3859V43H19.8359ZM36.9498 49V35.875H46.2498V37.425H38.2748L38.7248 36.975V49H36.9498ZM55.59 49.125C54.4567 49.125 53.4317 48.8667 52.515 48.35C51.5984 47.8167 50.865 47.0583 50.315 46.075C49.7817 45.075 49.515 43.8583 49.515 42.425C49.515 40.9917 49.7817 39.7833 50.315 38.8C50.8484 37.8 51.5734 37.0417 52.49 36.525C53.4067 36.0083 54.44 35.75 55.59 35.75C56.84 35.75 57.9567 36.0333 58.94 36.6C59.94 37.15 60.7234 37.9333 61.29 38.95C61.8567 39.95 62.14 41.1083 62.14 42.425C62.14 43.7583 61.8567 44.925 61.29 45.925C60.7234 46.925 59.94 47.7083 58.94 48.275C57.9567 48.8417 56.84 49.125 55.59 49.125ZM48.815 53.85V35.875H50.515V39.825L50.34 42.45L50.59 45.1V53.85H48.815ZM55.465 47.55C56.3984 47.55 57.2317 47.3417 57.965 46.925C58.6984 46.4917 59.2817 45.8917 59.715 45.125C60.1484 44.3417 60.365 43.4417 60.365 42.425C60.365 41.4083 60.1484 40.5167 59.715 39.75C59.2817 38.9833 58.6984 38.3833 57.965 37.95C57.2317 37.5167 56.3984 37.3 55.465 37.3C54.5317 37.3 53.69 37.5167 52.94 37.95C52.2067 38.3833 51.6234 38.9833 51.19 39.75C50.7734 40.5167 50.565 41.4083 50.565 42.425C50.565 43.4417 50.7734 44.3417 51.19 45.125C51.6234 45.8917 52.2067 46.4917 52.94 46.925C53.69 47.3417 54.5317 47.55 55.465 47.55ZM74.0305 49V46.1L73.9555 45.625V40.775C73.9555 39.6583 73.6388 38.8 73.0055 38.2C72.3888 37.6 71.4638 37.3 70.2305 37.3C69.3805 37.3 68.5721 37.4417 67.8055 37.725C67.0388 38.0083 66.3888 38.3833 65.8555 38.85L65.0555 37.525C65.7221 36.9583 66.5221 36.525 67.4555 36.225C68.3888 35.9083 69.3721 35.75 70.4055 35.75C72.1055 35.75 73.4138 36.175 74.3305 37.025C75.2638 37.8583 75.7305 39.1333 75.7305 40.85V49H74.0305ZM69.5055 49.125C68.5221 49.125 67.6638 48.9667 66.9305 48.65C66.2138 48.3167 65.6638 47.8667 65.2805 47.3C64.8971 46.7167 64.7055 46.05 64.7055 45.3C64.7055 44.6167 64.8638 44 65.1805 43.45C65.5138 42.8833 66.0471 42.4333 66.7805 42.1C67.5305 41.75 68.5305 41.575 69.7805 41.575H74.3055V42.9H69.8305C68.5638 42.9 67.6805 43.125 67.1805 43.575C66.6971 44.025 66.4555 44.5833 66.4555 45.25C66.4555 46 66.7471 46.6 67.3305 47.05C67.9138 47.5 68.7305 47.725 69.7805 47.725C70.7805 47.725 71.6388 47.5 72.3555 47.05C73.0888 46.5833 73.6221 45.9167 73.9555 45.05L74.3555 46.275C74.0221 47.1417 73.4388 47.8333 72.6055 48.35C71.7888 48.8667 70.7555 49.125 69.5055 49.125ZM80.4557 49V35.875H86.2557C87.739 35.875 88.9057 36.1583 89.7557 36.725C90.6223 37.2917 91.0557 38.125 91.0557 39.225C91.0557 40.2917 90.6473 41.1167 89.8307 41.7C89.014 42.2667 87.939 42.55 86.6057 42.55L86.9557 42.025C88.5223 42.025 89.6723 42.3167 90.4057 42.9C91.139 43.4833 91.5057 44.325 91.5057 45.425C91.5057 46.5583 91.089 47.4417 90.2557 48.075C89.439 48.6917 88.164 49 86.4307 49H80.4557ZM82.1807 47.6H86.3557C87.4723 47.6 88.314 47.425 88.8807 47.075C89.464 46.7083 89.7557 46.125 89.7557 45.325C89.7557 44.525 89.4973 43.9417 88.9807 43.575C88.464 43.2083 87.6473 43.025 86.5307 43.025H82.1807V47.6ZM82.1807 41.7H86.1307C87.1473 41.7 87.9223 41.5083 88.4557 41.125C89.0057 40.7417 89.2807 40.1833 89.2807 39.45C89.2807 38.7167 89.0057 38.1667 88.4557 37.8C87.9223 37.4333 87.1473 37.25 86.1307 37.25H82.1807V41.7ZM95.6656 49V35.875H97.4406V46.3L106.216 35.875H107.791V49H106.016V38.55L97.2656 49H95.6656ZM115.378 49V36.95L115.828 37.425H110.403V35.875H122.128V37.425H116.703L117.153 36.95V49H115.378ZM132.844 49V46.1L132.769 45.625V40.775C132.769 39.6583 132.452 38.8 131.819 38.2C131.202 37.6 130.277 37.3 129.044 37.3C128.194 37.3 127.386 37.4417 126.619 37.725C125.852 38.0083 125.202 38.3833 124.669 38.85L123.869 37.525C124.536 36.9583 125.336 36.525 126.269 36.225C127.202 35.9083 128.186 35.75 129.219 35.75C130.919 35.75 132.227 36.175 133.144 37.025C134.077 37.8583 134.544 39.1333 134.544 40.85V49H132.844ZM128.319 49.125C127.336 49.125 126.477 48.9667 125.744 48.65C125.027 48.3167 124.477 47.8667 124.094 47.3C123.711 46.7167 123.519 46.05 123.519 45.3C123.519 44.6167 123.677 44 123.994 43.45C124.327 42.8833 124.861 42.4333 125.594 42.1C126.344 41.75 127.344 41.575 128.594 41.575H133.119V42.9H128.644C127.377 42.9 126.494 43.125 125.994 43.575C125.511 44.025 125.269 44.5833 125.269 45.25C125.269 46 125.561 46.6 126.144 47.05C126.727 47.5 127.544 47.725 128.594 47.725C129.594 47.725 130.452 47.5 131.169 47.05C131.902 46.5833 132.436 45.9167 132.769 45.05L133.169 46.275C132.836 47.1417 132.252 47.8333 131.419 48.35C130.602 48.8667 129.569 49.125 128.319 49.125ZM139.269 49V35.875H141.044V47.45H149.069V35.875H150.844V49H139.269ZM151.294 52.175V48.85L151.744 49H149.069V47.45H152.969V52.175H151.294ZM156.359 49V35.875H158.134V46.3L166.909 35.875H168.484V49H166.709V38.55L157.959 49H156.359ZM178.971 49.125C177.704 49.125 176.563 48.8417 175.546 48.275C174.546 47.6917 173.754 46.9 173.171 45.9C172.588 44.8833 172.296 43.725 172.296 42.425C172.296 41.1083 172.588 39.95 173.171 38.95C173.754 37.95 174.546 37.1667 175.546 36.6C176.546 36.0333 177.688 35.75 178.971 35.75C180.271 35.75 181.421 36.0333 182.421 36.6C183.438 37.1667 184.229 37.95 184.796 38.95C185.379 39.95 185.671 41.1083 185.671 42.425C185.671 43.725 185.379 44.8833 184.796 45.9C184.229 46.9 183.438 47.6917 182.421 48.275C181.404 48.8417 180.254 49.125 178.971 49.125ZM178.971 47.55C179.921 47.55 180.763 47.3417 181.496 46.925C182.229 46.4917 182.804 45.8917 183.221 45.125C183.654 44.3417 183.871 43.4417 183.871 42.425C183.871 41.3917 183.654 40.4917 183.221 39.725C182.804 38.9583 182.229 38.3667 181.496 37.95C180.763 37.5167 179.929 37.3 178.996 37.3C178.063 37.3 177.229 37.5167 176.496 37.95C175.763 38.3667 175.179 38.9583 174.746 39.725C174.313 40.4917 174.096 41.3917 174.096 42.425C174.096 43.4417 174.313 44.3417 174.746 45.125C175.179 45.8917 175.763 46.4917 176.496 46.925C177.229 47.3417 178.054 47.55 178.971 47.55ZM189.464 49V35.875H191.239V41.675H199.514V35.875H201.289V49H199.514V43.2H191.239V49H189.464ZM206.335 49V35.875H208.11V41.675H216.385V35.875H218.16V49H216.385V43.2H208.11V49H206.335ZM231.355 49V46.1L231.28 45.625V40.775C231.28 39.6583 230.963 38.8 230.33 38.2C229.713 37.6 228.788 37.3 227.555 37.3C226.705 37.3 225.896 37.4417 225.13 37.725C224.363 38.0083 223.713 38.3833 223.18 38.85L222.38 37.525C223.046 36.9583 223.846 36.525 224.78 36.225C225.713 35.9083 226.696 35.75 227.73 35.75C229.43 35.75 230.738 36.175 231.655 37.025C232.588 37.8583 233.055 39.1333 233.055 40.85V49H231.355ZM226.83 49.125C225.846 49.125 224.988 48.9667 224.255 48.65C223.538 48.3167 222.988 47.8667 222.605 47.3C222.221 46.7167 222.03 46.05 222.03 45.3C222.03 44.6167 222.188 44 222.505 43.45C222.838 42.8833 223.371 42.4333 224.105 42.1C224.855 41.75 225.855 41.575 227.105 41.575H231.63V42.9H227.155C225.888 42.9 225.005 43.125 224.505 43.575C224.021 44.025 223.78 44.5833 223.78 45.25C223.78 46 224.071 46.6 224.655 47.05C225.238 47.5 226.055 47.725 227.105 47.725C228.105 47.725 228.963 47.5 229.68 47.05C230.413 46.5833 230.946 45.9167 231.28 45.05L231.68 46.275C231.346 47.1417 230.763 47.8333 229.93 48.35C229.113 48.8667 228.08 49.125 226.83 49.125ZM246.255 49V44.275L246.58 44.65H242.13C240.447 44.65 239.13 44.2833 238.18 43.55C237.23 42.8167 236.755 41.75 236.755 40.35C236.755 38.85 237.263 37.7333 238.28 37C239.297 36.25 240.655 35.875 242.355 35.875H247.88V49H246.255ZM236.655 49L240.255 43.95H242.105L238.58 49H236.655ZM246.255 43.75V36.9L246.58 37.425H242.405C241.188 37.425 240.238 37.6583 239.555 38.125C238.888 38.5917 238.555 39.35 238.555 40.4C238.555 42.35 239.797 43.325 242.28 43.325H246.58L246.255 43.75ZM259.484 49V35.875H271.284V49H269.509V36.95L269.959 37.425H260.809L261.259 36.95V49H259.484ZM281.73 49.125C280.463 49.125 279.321 48.8417 278.305 48.275C277.305 47.6917 276.513 46.9 275.93 45.9C275.346 44.8833 275.055 43.725 275.055 42.425C275.055 41.1083 275.346 39.95 275.93 38.95C276.513 37.95 277.305 37.1667 278.305 36.6C279.305 36.0333 280.446 35.75 281.73 35.75C283.03 35.75 284.18 36.0333 285.18 36.6C286.196 37.1667 286.988 37.95 287.555 38.95C288.138 39.95 288.43 41.1083 288.43 42.425C288.43 43.725 288.138 44.8833 287.555 45.9C286.988 46.9 286.196 47.6917 285.18 48.275C284.163 48.8417 283.013 49.125 281.73 49.125ZM281.73 47.55C282.68 47.55 283.521 47.3417 284.255 46.925C284.988 46.4917 285.563 45.8917 285.98 45.125C286.413 44.3417 286.63 43.4417 286.63 42.425C286.63 41.3917 286.413 40.4917 285.98 39.725C285.563 38.9583 284.988 38.3667 284.255 37.95C283.521 37.5167 282.688 37.3 281.755 37.3C280.821 37.3 279.988 37.5167 279.255 37.95C278.521 38.3667 277.938 38.9583 277.505 39.725C277.071 40.4917 276.855 41.3917 276.855 42.425C276.855 43.4417 277.071 44.3417 277.505 45.125C277.938 45.8917 278.521 46.4917 279.255 46.925C279.988 47.3417 280.813 47.55 281.73 47.55ZM297.723 49.125C296.423 49.125 295.257 48.8417 294.223 48.275C293.207 47.6917 292.407 46.9 291.823 45.9C291.24 44.8833 290.948 43.725 290.948 42.425C290.948 41.1083 291.24 39.95 291.823 38.95C292.407 37.95 293.207 37.1667 294.223 36.6C295.257 36.0333 296.423 35.75 297.723 35.75C298.84 35.75 299.848 35.9667 300.748 36.4C301.648 36.8333 302.357 37.4833 302.873 38.35L301.548 39.25C301.098 38.5833 300.54 38.0917 299.873 37.775C299.207 37.4583 298.482 37.3 297.698 37.3C296.765 37.3 295.923 37.5167 295.173 37.95C294.423 38.3667 293.832 38.9583 293.398 39.725C292.965 40.4917 292.748 41.3917 292.748 42.425C292.748 43.4583 292.965 44.3583 293.398 45.125C293.832 45.8917 294.423 46.4917 295.173 46.925C295.923 47.3417 296.765 47.55 297.698 47.55C298.482 47.55 299.207 47.3917 299.873 47.075C300.54 46.7583 301.098 46.275 301.548 45.625L302.873 46.525C302.357 47.375 301.648 48.025 300.748 48.475C299.848 48.9083 298.84 49.125 297.723 49.125ZM308.566 49V36.95L309.016 37.425H303.591V35.875H315.316V37.425H309.891L310.341 36.95V49H308.566ZM322.672 49.125C321.405 49.125 320.264 48.8417 319.247 48.275C318.247 47.6917 317.455 46.9 316.872 45.9C316.289 44.8833 315.997 43.725 315.997 42.425C315.997 41.1083 316.289 39.95 316.872 38.95C317.455 37.95 318.247 37.1667 319.247 36.6C320.247 36.0333 321.389 35.75 322.672 35.75C323.972 35.75 325.122 36.0333 326.122 36.6C327.139 37.1667 327.93 37.95 328.497 38.95C329.08 39.95 329.372 41.1083 329.372 42.425C329.372 43.725 329.08 44.8833 328.497 45.9C327.93 46.9 327.139 47.6917 326.122 48.275C325.105 48.8417 323.955 49.125 322.672 49.125ZM322.672 47.55C323.622 47.55 324.464 47.3417 325.197 46.925C325.93 46.4917 326.505 45.8917 326.922 45.125C327.355 44.3417 327.572 43.4417 327.572 42.425C327.572 41.3917 327.355 40.4917 326.922 39.725C326.505 38.9583 325.93 38.3667 325.197 37.95C324.464 37.5167 323.63 37.3 322.697 37.3C321.764 37.3 320.93 37.5167 320.197 37.95C319.464 38.3667 318.88 38.9583 318.447 39.725C318.014 40.4917 317.797 41.3917 317.797 42.425C317.797 43.4417 318.014 44.3417 318.447 45.125C318.88 45.8917 319.464 46.4917 320.197 46.925C320.93 47.3417 321.755 47.55 322.672 47.55ZM341.177 49V44.275L341.502 44.65H337.052C335.368 44.65 334.052 44.2833 333.102 43.55C332.152 42.8167 331.677 41.75 331.677 40.35C331.677 38.85 332.185 37.7333 333.202 37C334.218 36.25 335.577 35.875 337.277 35.875H342.802V49H341.177ZM331.577 49L335.177 43.95H337.027L333.502 49H331.577ZM341.177 43.75V36.9L341.502 37.425H337.327C336.11 37.425 335.16 37.6583 334.477 38.125C333.81 38.5917 333.477 39.35 333.477 40.4C333.477 42.35 334.718 43.325 337.202 43.325H341.502L341.177 43.75ZM347.863 49V35.875H349.638V41.675H357.913V35.875H359.688V49H357.913V43.2H349.638V49H347.863ZM364.733 49V35.875H366.508V41.675H374.783V35.875H376.558V49H374.783V43.2H366.508V49H364.733ZM389.753 49V46.1L389.678 45.625V40.775C389.678 39.6583 389.361 38.8 388.728 38.2C388.111 37.6 387.186 37.3 385.953 37.3C385.103 37.3 384.295 37.4417 383.528 37.725C382.761 38.0083 382.111 38.3833 381.578 38.85L380.778 37.525C381.445 36.9583 382.245 36.525 383.178 36.225C384.111 35.9083 385.095 35.75 386.128 35.75C387.828 35.75 389.136 36.175 390.053 37.025C390.986 37.8583 391.453 39.1333 391.453 40.85V49H389.753ZM385.228 49.125C384.245 49.125 383.386 48.9667 382.653 48.65C381.936 48.3167 381.386 47.8667 381.003 47.3C380.62 46.7167 380.428 46.05 380.428 45.3C380.428 44.6167 380.586 44 380.903 43.45C381.236 42.8833 381.77 42.4333 382.503 42.1C383.253 41.75 384.253 41.575 385.503 41.575H390.028V42.9H385.553C384.286 42.9 383.403 43.125 382.903 43.575C382.42 44.025 382.178 44.5833 382.178 45.25C382.178 46 382.47 46.6 383.053 47.05C383.636 47.5 384.453 47.725 385.503 47.725C386.503 47.725 387.361 47.5 388.078 47.05C388.811 46.5833 389.345 45.9167 389.678 45.05L390.078 46.275C389.745 47.1417 389.161 47.8333 388.328 48.35C387.511 48.8667 386.478 49.125 385.228 49.125ZM404.653 49V44.275L404.978 44.65H400.528C398.845 44.65 397.528 44.2833 396.578 43.55C395.628 42.8167 395.153 41.75 395.153 40.35C395.153 38.85 395.662 37.7333 396.678 37C397.695 36.25 399.053 35.875 400.753 35.875H406.278V49H404.653ZM395.053 49L398.653 43.95H400.503L396.978 49H395.053ZM404.653 43.75V36.9L404.978 37.425H400.803C399.587 37.425 398.637 37.6583 397.953 38.125C397.287 38.5917 396.953 39.35 396.953 40.4C396.953 42.35 398.195 43.325 400.678 43.325H404.978L404.653 43.75ZM17.875 65.75C18.9417 65.75 19.8667 65.9583 20.65 66.375C21.45 66.775 22.0667 67.3917 22.5 68.225C22.95 69.0583 23.175 70.1083 23.175 71.375V79H21.4V71.55C21.4 70.1667 21.0667 69.125 20.4 68.425C19.75 67.7083 18.825 67.35 17.625 67.35C16.725 67.35 15.9417 67.5417 15.275 67.925C14.625 68.2917 14.1167 68.8333 13.75 69.55C13.4 70.25 13.225 71.1 13.225 72.1V79H11.45V71.55C11.45 70.1667 11.1167 69.125 10.45 68.425C9.78333 67.7083 8.85 67.35 7.65 67.35C6.76667 67.35 5.99167 67.5417 5.325 67.925C4.65833 68.2917 4.14167 68.8333 3.775 69.55C3.425 70.25 3.25 71.1 3.25 72.1V79H1.475V65.875H3.175V69.425L2.9 68.8C3.3 67.85 3.94167 67.1083 4.825 66.575C5.725 66.025 6.78333 65.75 8 65.75C9.28333 65.75 10.375 66.075 11.275 66.725C12.175 67.3583 12.7583 68.3167 13.025 69.6L12.325 69.325C12.7083 68.2583 13.3833 67.4 14.35 66.75C15.3333 66.0833 16.5083 65.75 17.875 65.75ZM27.2537 79V72.3L27.5737 72.64H25.6037V72H27.9737V79H27.2537ZM30.627 73V71.45H37.177V73H30.627ZM47.7408 79V65.875H49.5408L55.4908 75.95H54.7408L60.7908 65.875H62.4408V79H60.8158V67.9L61.1408 68.05L55.4908 77.4H54.6908L48.9908 67.95L49.3658 67.875V79H47.7408ZM75.6418 79V76.1L75.5668 75.625V70.775C75.5668 69.6583 75.2501 68.8 74.6168 68.2C74.0001 67.6 73.0751 67.3 71.8418 67.3C70.9918 67.3 70.1835 67.4417 69.4168 67.725C68.6501 68.0083 68.0001 68.3833 67.4668 68.85L66.6668 67.525C67.3335 66.9583 68.1335 66.525 69.0668 66.225C70.0001 65.9083 70.9835 65.75 72.0168 65.75C73.7168 65.75 75.0251 66.175 75.9418 67.025C76.8751 67.8583 77.3418 69.1333 77.3418 70.85V79H75.6418ZM71.1168 79.125C70.1335 79.125 69.2751 78.9667 68.5418 78.65C67.8251 78.3167 67.2751 77.8667 66.8918 77.3C66.5085 76.7167 66.3168 76.05 66.3168 75.3C66.3168 74.6167 66.4751 74 66.7918 73.45C67.1251 72.8833 67.6585 72.4333 68.3918 72.1C69.1418 71.75 70.1418 71.575 71.3918 71.575H75.9168V72.9H71.4418C70.1751 72.9 69.2918 73.125 68.7918 73.575C68.3085 74.025 68.0668 74.5833 68.0668 75.25C68.0668 76 68.3585 76.6 68.9418 77.05C69.5251 77.5 70.3418 77.725 71.3918 77.725C72.3918 77.725 73.2501 77.5 73.9668 77.05C74.7001 76.5833 75.2335 75.9167 75.5668 75.05L75.9668 76.275C75.6335 77.1417 75.0501 77.8333 74.2168 78.35C73.4001 78.8667 72.3668 79.125 71.1168 79.125ZM87.567 79.125C86.267 79.125 85.1003 78.8417 84.067 78.275C83.0503 77.6917 82.2503 76.9 81.667 75.9C81.0837 74.8833 80.792 73.725 80.792 72.425C80.792 71.1083 81.0837 69.95 81.667 68.95C82.2503 67.95 83.0503 67.1667 84.067 66.6C85.1003 66.0333 86.267 65.75 87.567 65.75C88.6837 65.75 89.692 65.9667 90.592 66.4C91.492 66.8333 92.2003 67.4833 92.717 68.35L91.392 69.25C90.942 68.5833 90.3837 68.0917 89.717 67.775C89.0503 67.4583 88.3253 67.3 87.542 67.3C86.6087 67.3 85.767 67.5167 85.017 67.95C84.267 68.3667 83.6753 68.9583 83.242 69.725C82.8087 70.4917 82.592 71.3917 82.592 72.425C82.592 73.4583 82.8087 74.3583 83.242 75.125C83.6753 75.8917 84.267 76.4917 85.017 76.925C85.767 77.3417 86.6087 77.55 87.542 77.55C88.3253 77.55 89.0503 77.3917 89.717 77.075C90.3837 76.7583 90.942 76.275 91.392 75.625L92.717 76.525C92.2003 77.375 91.492 78.025 90.592 78.475C89.692 78.9083 88.6837 79.125 87.567 79.125ZM101.434 79.125C100.134 79.125 98.9675 78.8417 97.9342 78.275C96.9175 77.6917 96.1175 76.9 95.5342 75.9C94.9508 74.8833 94.6592 73.725 94.6592 72.425C94.6592 71.1083 94.9508 69.95 95.5342 68.95C96.1175 67.95 96.9175 67.1667 97.9342 66.6C98.9675 66.0333 100.134 65.75 101.434 65.75C102.551 65.75 103.559 65.9667 104.459 66.4C105.359 66.8333 106.068 67.4833 106.584 68.35L105.259 69.25C104.809 68.5833 104.251 68.0917 103.584 67.775C102.918 67.4583 102.193 67.3 101.409 67.3C100.476 67.3 99.6342 67.5167 98.8842 67.95C98.1342 68.3667 97.5425 68.9583 97.1092 69.725C96.6758 70.4917 96.4592 71.3917 96.4592 72.425C96.4592 73.4583 96.6758 74.3583 97.1092 75.125C97.5425 75.8917 98.1342 76.4917 98.8842 76.925C99.6342 77.3417 100.476 77.55 101.409 77.55C102.193 77.55 102.918 77.3917 103.584 77.075C104.251 76.7583 104.809 76.275 105.259 75.625L106.584 76.525C106.068 77.375 105.359 78.025 104.459 78.475C103.559 78.9083 102.551 79.125 101.434 79.125ZM118.171 79V76.1L118.096 75.625V70.775C118.096 69.6583 117.779 68.8 117.146 68.2C116.529 67.6 115.604 67.3 114.371 67.3C113.521 67.3 112.713 67.4417 111.946 67.725C111.179 68.0083 110.529 68.3833 109.996 68.85L109.196 67.525C109.863 66.9583 110.663 66.525 111.596 66.225C112.529 65.9083 113.513 65.75 114.546 65.75C116.246 65.75 117.554 66.175 118.471 67.025C119.404 67.8583 119.871 69.1333 119.871 70.85V79H118.171ZM113.646 79.125C112.663 79.125 111.804 78.9667 111.071 78.65C110.354 78.3167 109.804 77.8667 109.421 77.3C109.038 76.7167 108.846 76.05 108.846 75.3C108.846 74.6167 109.004 74 109.321 73.45C109.654 72.8833 110.188 72.4333 110.921 72.1C111.671 71.75 112.671 71.575 113.921 71.575H118.446V72.9H113.971C112.704 72.9 111.821 73.125 111.321 73.575C110.838 74.025 110.596 74.5833 110.596 75.25C110.596 76 110.888 76.6 111.471 77.05C112.054 77.5 112.871 77.725 113.921 77.725C114.921 77.725 115.779 77.5 116.496 77.05C117.229 76.5833 117.763 75.9167 118.096 75.05L118.496 76.275C118.163 77.1417 117.579 77.8333 116.746 78.35C115.929 78.8667 114.896 79.125 113.646 79.125ZM131.139 79V65.875H142.939V79H141.164V66.95L141.614 67.425H132.464L132.914 66.95V79H131.139ZM153.61 79.125C152.243 79.125 151.043 78.8417 150.01 78.275C148.977 77.6917 148.168 76.9 147.585 75.9C147.002 74.8833 146.71 73.725 146.71 72.425C146.71 71.125 146.985 69.975 147.535 68.975C148.102 67.975 148.868 67.1917 149.835 66.625C150.818 66.0417 151.918 65.75 153.135 65.75C154.368 65.75 155.46 66.0333 156.41 66.6C157.377 67.15 158.135 67.9333 158.685 68.95C159.235 69.95 159.51 71.1083 159.51 72.425C159.51 72.5083 159.502 72.6 159.485 72.7C159.485 72.7833 159.485 72.875 159.485 72.975H148.06V71.65H158.535L157.835 72.175C157.835 71.225 157.627 70.3833 157.21 69.65C156.81 68.9 156.26 68.3167 155.56 67.9C154.86 67.4833 154.052 67.275 153.135 67.275C152.235 67.275 151.427 67.4833 150.71 67.9C149.993 68.3167 149.435 68.9 149.035 69.65C148.635 70.4 148.435 71.2583 148.435 72.225V72.5C148.435 73.5 148.652 74.3833 149.085 75.15C149.535 75.9 150.152 76.4917 150.935 76.925C151.735 77.3417 152.643 77.55 153.66 77.55C154.46 77.55 155.202 77.4083 155.885 77.125C156.585 76.8417 157.185 76.4083 157.685 75.825L158.685 76.975C158.102 77.675 157.368 78.2083 156.485 78.575C155.618 78.9417 154.66 79.125 153.61 79.125ZM170.214 79.125C169.081 79.125 168.056 78.8667 167.139 78.35C166.222 77.8167 165.489 77.0583 164.939 76.075C164.406 75.075 164.139 73.8583 164.139 72.425C164.139 70.9917 164.406 69.7833 164.939 68.8C165.472 67.8 166.197 67.0417 167.114 66.525C168.031 66.0083 169.064 65.75 170.214 65.75C171.464 65.75 172.581 66.0333 173.564 66.6C174.564 67.15 175.347 67.9333 175.914 68.95C176.481 69.95 176.764 71.1083 176.764 72.425C176.764 73.7583 176.481 74.925 175.914 75.925C175.347 76.925 174.564 77.7083 173.564 78.275C172.581 78.8417 171.464 79.125 170.214 79.125ZM163.439 83.85V65.875H165.139V69.825L164.964 72.45L165.214 75.1V83.85H163.439ZM170.089 77.55C171.022 77.55 171.856 77.3417 172.589 76.925C173.322 76.4917 173.906 75.8917 174.339 75.125C174.772 74.3417 174.989 73.4417 174.989 72.425C174.989 71.4083 174.772 70.5167 174.339 69.75C173.906 68.9833 173.322 68.3833 172.589 67.95C171.856 67.5167 171.022 67.3 170.089 67.3C169.156 67.3 168.314 67.5167 167.564 67.95C166.831 68.3833 166.247 68.9833 165.814 69.75C165.397 70.5167 165.189 71.4083 165.189 72.425C165.189 73.4417 165.397 74.3417 165.814 75.125C166.247 75.8917 166.831 76.4917 167.564 76.925C168.314 77.3417 169.156 77.55 170.089 77.55ZM180.578 79V65.875H186.378C187.861 65.875 189.028 66.1583 189.878 66.725C190.744 67.2917 191.178 68.125 191.178 69.225C191.178 70.2917 190.769 71.1167 189.953 71.7C189.136 72.2667 188.061 72.55 186.728 72.55L187.078 72.025C188.644 72.025 189.794 72.3167 190.528 72.9C191.261 73.4833 191.628 74.325 191.628 75.425C191.628 76.5583 191.211 77.4417 190.378 78.075C189.561 78.6917 188.286 79 186.553 79H180.578ZM182.303 77.6H186.478C187.594 77.6 188.436 77.425 189.003 77.075C189.586 76.7083 189.878 76.125 189.878 75.325C189.878 74.525 189.619 73.9417 189.103 73.575C188.586 73.2083 187.769 73.025 186.653 73.025H182.303V77.6ZM182.303 71.7H186.253C187.269 71.7 188.044 71.5083 188.578 71.125C189.128 70.7417 189.403 70.1833 189.403 69.45C189.403 68.7167 189.128 68.1667 188.578 67.8C188.044 67.4333 187.269 67.25 186.253 67.25H182.303V71.7ZM201.188 79.125C199.921 79.125 198.779 78.8417 197.763 78.275C196.763 77.6917 195.971 76.9 195.388 75.9C194.804 74.8833 194.513 73.725 194.513 72.425C194.513 71.1083 194.804 69.95 195.388 68.95C195.971 67.95 196.763 67.1667 197.763 66.6C198.763 66.0333 199.904 65.75 201.188 65.75C202.488 65.75 203.638 66.0333 204.638 66.6C205.654 67.1667 206.446 67.95 207.013 68.95C207.596 69.95 207.888 71.1083 207.888 72.425C207.888 73.725 207.596 74.8833 207.013 75.9C206.446 76.9 205.654 77.6917 204.638 78.275C203.621 78.8417 202.471 79.125 201.188 79.125ZM201.188 77.55C202.138 77.55 202.979 77.3417 203.713 76.925C204.446 76.4917 205.021 75.8917 205.438 75.125C205.871 74.3417 206.088 73.4417 206.088 72.425C206.088 71.3917 205.871 70.4917 205.438 69.725C205.021 68.9583 204.446 68.3667 203.713 67.95C202.979 67.5167 202.146 67.3 201.213 67.3C200.279 67.3 199.446 67.5167 198.713 67.95C197.979 68.3667 197.396 68.9583 196.963 69.725C196.529 70.4917 196.313 71.3917 196.313 72.425C196.313 73.4417 196.529 74.3417 196.963 75.125C197.396 75.8917 197.979 76.4917 198.713 76.925C199.446 77.3417 200.271 77.55 201.188 77.55ZM211.681 79V65.875H220.981V67.425H213.006L213.456 66.975V79H211.681ZM228.336 79.125C227.069 79.125 225.928 78.8417 224.911 78.275C223.911 77.6917 223.119 76.9 222.536 75.9C221.953 74.8833 221.661 73.725 221.661 72.425C221.661 71.1083 221.953 69.95 222.536 68.95C223.119 67.95 223.911 67.1667 224.911 66.6C225.911 66.0333 227.053 65.75 228.336 65.75C229.636 65.75 230.786 66.0333 231.786 66.6C232.803 67.1667 233.594 67.95 234.161 68.95C234.744 69.95 235.036 71.1083 235.036 72.425C235.036 73.725 234.744 74.8833 234.161 75.9C233.594 76.9 232.803 77.6917 231.786 78.275C230.769 78.8417 229.619 79.125 228.336 79.125ZM228.336 77.55C229.286 77.55 230.128 77.3417 230.861 76.925C231.594 76.4917 232.169 75.8917 232.586 75.125C233.019 74.3417 233.236 73.4417 233.236 72.425C233.236 71.3917 233.019 70.4917 232.586 69.725C232.169 68.9583 231.594 68.3667 230.861 67.95C230.128 67.5167 229.294 67.3 228.361 67.3C227.428 67.3 226.594 67.5167 225.861 67.95C225.128 68.3667 224.544 68.9583 224.111 69.725C223.678 70.4917 223.461 71.3917 223.461 72.425C223.461 73.4417 223.678 74.3417 224.111 75.125C224.544 75.8917 225.128 76.4917 225.861 76.925C226.594 77.3417 227.419 77.55 228.336 77.55ZM247.873 79V66.95L248.323 67.425H242.898V65.875H254.623V67.425H249.198L249.648 66.95V79H247.873ZM262.204 79.125C260.837 79.125 259.637 78.8417 258.604 78.275C257.57 77.6917 256.762 76.9 256.179 75.9C255.595 74.8833 255.304 73.725 255.304 72.425C255.304 71.125 255.579 69.975 256.129 68.975C256.695 67.975 257.462 67.1917 258.429 66.625C259.412 66.0417 260.512 65.75 261.729 65.75C262.962 65.75 264.054 66.0333 265.004 66.6C265.97 67.15 266.729 67.9333 267.279 68.95C267.829 69.95 268.104 71.1083 268.104 72.425C268.104 72.5083 268.095 72.6 268.079 72.7C268.079 72.7833 268.079 72.875 268.079 72.975H256.654V71.65H267.129L266.429 72.175C266.429 71.225 266.22 70.3833 265.804 69.65C265.404 68.9 264.854 68.3167 264.154 67.9C263.454 67.4833 262.645 67.275 261.729 67.275C260.829 67.275 260.02 67.4833 259.304 67.9C258.587 68.3167 258.029 68.9 257.629 69.65C257.229 70.4 257.029 71.2583 257.029 72.225V72.5C257.029 73.5 257.245 74.3833 257.679 75.15C258.129 75.9 258.745 76.4917 259.529 76.925C260.329 77.3417 261.237 77.55 262.254 77.55C263.054 77.55 263.795 77.4083 264.479 77.125C265.179 76.8417 265.779 76.4083 266.279 75.825L267.279 76.975C266.695 77.675 265.962 78.2083 265.079 78.575C264.212 78.9417 263.254 79.125 262.204 79.125ZM269.364 78.975L269.489 77.45C269.606 77.4667 269.714 77.4917 269.814 77.525C269.931 77.5417 270.031 77.55 270.114 77.55C270.648 77.55 271.073 77.35 271.389 76.95C271.723 76.55 271.973 76.0167 272.139 75.35C272.306 74.6833 272.423 73.9333 272.489 73.1C272.556 72.25 272.614 71.4 272.664 70.55L272.889 65.875H282.514V79H280.739V66.9L281.189 67.425H274.039L274.464 66.875L274.264 70.675C274.214 71.8083 274.123 72.8917 273.989 73.925C273.873 74.9583 273.681 75.8667 273.414 76.65C273.164 77.4333 272.814 78.05 272.364 78.5C271.914 78.9333 271.339 79.15 270.639 79.15C270.439 79.15 270.231 79.1333 270.014 79.1C269.814 79.0667 269.598 79.025 269.364 78.975ZM295.71 79V76.1L295.635 75.625V70.775C295.635 69.6583 295.318 68.8 294.685 68.2C294.068 67.6 293.143 67.3 291.91 67.3C291.06 67.3 290.252 67.4417 289.485 67.725C288.718 68.0083 288.068 68.3833 287.535 68.85L286.735 67.525C287.402 66.9583 288.202 66.525 289.135 66.225C290.068 65.9083 291.052 65.75 292.085 65.75C293.785 65.75 295.093 66.175 296.01 67.025C296.943 67.8583 297.41 69.1333 297.41 70.85V79H295.71ZM291.185 79.125C290.202 79.125 289.343 78.9667 288.61 78.65C287.893 78.3167 287.343 77.8667 286.96 77.3C286.577 76.7167 286.385 76.05 286.385 75.3C286.385 74.6167 286.543 74 286.86 73.45C287.193 72.8833 287.727 72.4333 288.46 72.1C289.21 71.75 290.21 71.575 291.46 71.575H295.985V72.9H291.51C290.243 72.9 289.36 73.125 288.86 73.575C288.377 74.025 288.135 74.5833 288.135 75.25C288.135 76 288.427 76.6 289.01 77.05C289.593 77.5 290.41 77.725 291.46 77.725C292.46 77.725 293.318 77.5 294.035 77.05C294.768 76.5833 295.302 75.9167 295.635 75.05L296.035 76.275C295.702 77.1417 295.118 77.8333 294.285 78.35C293.468 78.8667 292.435 79.125 291.185 79.125ZM17.875 95.75C18.9417 95.75 19.8667 95.9583 20.65 96.375C21.45 96.775 22.0667 97.3917 22.5 98.225C22.95 99.0583 23.175 100.108 23.175 101.375V109H21.4V101.55C21.4 100.167 21.0667 99.125 20.4 98.425C19.75 97.7083 18.825 97.35 17.625 97.35C16.725 97.35 15.9417 97.5417 15.275 97.925C14.625 98.2917 14.1167 98.8333 13.75 99.55C13.4 100.25 13.225 101.1 13.225 102.1V109H11.45V101.55C11.45 100.167 11.1167 99.125 10.45 98.425C9.78333 97.7083 8.85 97.35 7.65 97.35C6.76667 97.35 5.99167 97.5417 5.325 97.925C4.65833 98.2917 4.14167 98.8333 3.775 99.55C3.425 100.25 3.25 101.1 3.25 102.1V109H1.475V95.875H3.175V99.425L2.9 98.8C3.3 97.85 3.94167 97.1083 4.825 96.575C5.725 96.025 6.78333 95.75 8 95.75C9.28333 95.75 10.375 96.075 11.275 96.725C12.175 97.3583 12.7583 98.3167 13.025 99.6L12.325 99.325C12.7083 98.2583 13.3833 97.4 14.35 96.75C15.3333 96.0833 16.5083 95.75 17.875 95.75ZM25.9037 109V108.49L28.8137 105.64C29.0803 105.38 29.2803 105.153 29.4137 104.96C29.547 104.76 29.637 104.573 29.6837 104.4C29.7303 104.227 29.7537 104.063 29.7537 103.91C29.7537 103.503 29.6137 103.183 29.3337 102.95C29.0603 102.717 28.6537 102.6 28.1137 102.6C27.7003 102.6 27.3337 102.663 27.0137 102.79C26.7003 102.917 26.4303 103.113 26.2037 103.38L25.6937 102.94C25.967 102.62 26.317 102.373 26.7437 102.2C27.1703 102.027 27.647 101.94 28.1737 101.94C28.647 101.94 29.057 102.017 29.4037 102.17C29.7503 102.317 30.017 102.533 30.2037 102.82C30.397 103.107 30.4937 103.443 30.4937 103.83C30.4937 104.057 30.4603 104.28 30.3937 104.5C30.3337 104.72 30.2203 104.953 30.0537 105.2C29.8937 105.44 29.657 105.713 29.3437 106.02L26.6737 108.64L26.4737 108.36H30.8137V109H25.9037ZM32.6973 103V101.45H39.2473V103H32.6973ZM43.2682 109V95.875H45.0682L51.0182 105.95H50.2682L56.3182 95.875H57.9682V109H56.3432V97.9L56.6682 98.05L51.0182 107.4H50.2182L44.5182 97.95L44.8932 97.875V109H43.2682ZM71.1691 109V106.1L71.0941 105.625V100.775C71.0941 99.6583 70.7775 98.8 70.1441 98.2C69.5275 97.6 68.6025 97.3 67.3691 97.3C66.5191 97.3 65.7108 97.4417 64.9441 97.725C64.1775 98.0083 63.5275 98.3833 62.9941 98.85L62.1941 97.525C62.8608 96.9583 63.6608 96.525 64.5941 96.225C65.5275 95.9083 66.5108 95.75 67.5441 95.75C69.2441 95.75 70.5525 96.175 71.4691 97.025C72.4025 97.8583 72.8691 99.1333 72.8691 100.85V109H71.1691ZM66.6441 109.125C65.6608 109.125 64.8025 108.967 64.0691 108.65C63.3525 108.317 62.8025 107.867 62.4191 107.3C62.0358 106.717 61.8441 106.05 61.8441 105.3C61.8441 104.617 62.0025 104 62.3191 103.45C62.6525 102.883 63.1858 102.433 63.9191 102.1C64.6691 101.75 65.6691 101.575 66.9191 101.575H71.4441V102.9H66.9691C65.7025 102.9 64.8191 103.125 64.3191 103.575C63.8358 104.025 63.5941 104.583 63.5941 105.25C63.5941 106 63.8858 106.6 64.4691 107.05C65.0525 107.5 65.8691 107.725 66.9191 107.725C67.9191 107.725 68.7775 107.5 69.4941 107.05C70.2275 106.583 70.7608 105.917 71.0941 105.05L71.4941 106.275C71.1608 107.142 70.5775 107.833 69.7441 108.35C68.9275 108.867 67.8941 109.125 66.6441 109.125ZM83.0943 109.125C81.7943 109.125 80.6277 108.842 79.5943 108.275C78.5777 107.692 77.7777 106.9 77.1943 105.9C76.611 104.883 76.3193 103.725 76.3193 102.425C76.3193 101.108 76.611 99.95 77.1943 98.95C77.7777 97.95 78.5777 97.1667 79.5943 96.6C80.6277 96.0333 81.7943 95.75 83.0943 95.75C84.211 95.75 85.2193 95.9667 86.1193 96.4C87.0193 96.8333 87.7277 97.4833 88.2443 98.35L86.9193 99.25C86.4693 98.5833 85.911 98.0917 85.2443 97.775C84.5777 97.4583 83.8527 97.3 83.0693 97.3C82.136 97.3 81.2943 97.5167 80.5443 97.95C79.7943 98.3667 79.2027 98.9583 78.7693 99.725C78.336 100.492 78.1193 101.392 78.1193 102.425C78.1193 103.458 78.336 104.358 78.7693 105.125C79.2027 105.892 79.7943 106.492 80.5443 106.925C81.2943 107.342 82.136 107.55 83.0693 107.55C83.8527 107.55 84.5777 107.392 85.2443 107.075C85.911 106.758 86.4693 106.275 86.9193 105.625L88.2443 106.525C87.7277 107.375 87.0193 108.025 86.1193 108.475C85.2193 108.908 84.211 109.125 83.0943 109.125ZM96.9615 109.125C95.6615 109.125 94.4949 108.842 93.4615 108.275C92.4449 107.692 91.6449 106.9 91.0615 105.9C90.4782 104.883 90.1865 103.725 90.1865 102.425C90.1865 101.108 90.4782 99.95 91.0615 98.95C91.6449 97.95 92.4449 97.1667 93.4615 96.6C94.4949 96.0333 95.6615 95.75 96.9615 95.75C98.0782 95.75 99.0865 95.9667 99.9865 96.4C100.887 96.8333 101.595 97.4833 102.112 98.35L100.787 99.25C100.337 98.5833 99.7782 98.0917 99.1115 97.775C98.4449 97.4583 97.7199 97.3 96.9365 97.3C96.0032 97.3 95.1615 97.5167 94.4115 97.95C93.6615 98.3667 93.0699 98.9583 92.6365 99.725C92.2032 100.492 91.9865 101.392 91.9865 102.425C91.9865 103.458 92.2032 104.358 92.6365 105.125C93.0699 105.892 93.6615 106.492 94.4115 106.925C95.1615 107.342 96.0032 107.55 96.9365 107.55C97.7199 107.55 98.4449 107.392 99.1115 107.075C99.7782 106.758 100.337 106.275 100.787 105.625L102.112 106.525C101.595 107.375 100.887 108.025 99.9865 108.475C99.0865 108.908 98.0782 109.125 96.9615 109.125ZM113.698 109V106.1L113.623 105.625V100.775C113.623 99.6583 113.307 98.8 112.673 98.2C112.057 97.6 111.132 97.3 109.898 97.3C109.048 97.3 108.24 97.4417 107.473 97.725C106.707 98.0083 106.057 98.3833 105.523 98.85L104.723 97.525C105.39 96.9583 106.19 96.525 107.123 96.225C108.057 95.9083 109.04 95.75 110.073 95.75C111.773 95.75 113.082 96.175 113.998 97.025C114.932 97.8583 115.398 99.1333 115.398 100.85V109H113.698ZM109.173 109.125C108.19 109.125 107.332 108.967 106.598 108.65C105.882 108.317 105.332 107.867 104.948 107.3C104.565 106.717 104.373 106.05 104.373 105.3C104.373 104.617 104.532 104 104.848 103.45C105.182 102.883 105.715 102.433 106.448 102.1C107.198 101.75 108.198 101.575 109.448 101.575H113.973V102.9H109.498C108.232 102.9 107.348 103.125 106.848 103.575C106.365 104.025 106.123 104.583 106.123 105.25C106.123 106 106.415 106.6 106.998 107.05C107.582 107.5 108.398 107.725 109.448 107.725C110.448 107.725 111.307 107.5 112.023 107.05C112.757 106.583 113.29 105.917 113.623 105.05L114.023 106.275C113.69 107.142 113.107 107.833 112.273 108.35C111.457 108.867 110.423 109.125 109.173 109.125ZM126.667 109V95.875H132.467C133.95 95.875 135.117 96.1583 135.967 96.725C136.833 97.2917 137.267 98.125 137.267 99.225C137.267 100.292 136.858 101.117 136.042 101.7C135.225 102.267 134.15 102.55 132.817 102.55L133.167 102.025C134.733 102.025 135.883 102.317 136.617 102.9C137.35 103.483 137.717 104.325 137.717 105.425C137.717 106.558 137.3 107.442 136.467 108.075C135.65 108.692 134.375 109 132.642 109H126.667ZM128.392 107.6H132.567C133.683 107.6 134.525 107.425 135.092 107.075C135.675 106.708 135.967 106.125 135.967 105.325C135.967 104.525 135.708 103.942 135.192 103.575C134.675 103.208 133.858 103.025 132.742 103.025H128.392V107.6ZM128.392 101.7H132.342C133.358 101.7 134.133 101.508 134.667 101.125C135.217 100.742 135.492 100.183 135.492 99.45C135.492 98.7167 135.217 98.1667 134.667 97.8C134.133 97.4333 133.358 97.25 132.342 97.25H128.392V101.7ZM144.377 109V96.95L144.827 97.425H139.402V95.875H151.127V97.425H145.702L146.152 96.95V109H144.377ZM158.483 109.125C157.216 109.125 156.074 108.842 155.058 108.275C154.058 107.692 153.266 106.9 152.683 105.9C152.099 104.883 151.808 103.725 151.808 102.425C151.808 101.108 152.099 99.95 152.683 98.95C153.266 97.95 154.058 97.1667 155.058 96.6C156.058 96.0333 157.199 95.75 158.483 95.75C159.783 95.75 160.933 96.0333 161.933 96.6C162.949 97.1667 163.741 97.95 164.308 98.95C164.891 99.95 165.183 101.108 165.183 102.425C165.183 103.725 164.891 104.883 164.308 105.9C163.741 106.9 162.949 107.692 161.933 108.275C160.916 108.842 159.766 109.125 158.483 109.125ZM158.483 107.55C159.433 107.55 160.274 107.342 161.008 106.925C161.741 106.492 162.316 105.892 162.733 105.125C163.166 104.342 163.383 103.442 163.383 102.425C163.383 101.392 163.166 100.492 162.733 99.725C162.316 98.9583 161.741 98.3667 161.008 97.95C160.274 97.5167 159.441 97.3 158.508 97.3C157.574 97.3 156.741 97.5167 156.008 97.95C155.274 98.3667 154.691 98.9583 154.258 99.725C153.824 100.492 153.608 101.392 153.608 102.425C153.608 103.442 153.824 104.342 154.258 105.125C154.691 105.892 155.274 106.492 156.008 106.925C156.741 107.342 157.566 107.55 158.483 107.55ZM175.751 109.125C174.618 109.125 173.593 108.867 172.676 108.35C171.76 107.817 171.026 107.058 170.476 106.075C169.943 105.075 169.676 103.858 169.676 102.425C169.676 100.992 169.943 99.7833 170.476 98.8C171.01 97.8 171.735 97.0417 172.651 96.525C173.568 96.0083 174.601 95.75 175.751 95.75C177.001 95.75 178.118 96.0333 179.101 96.6C180.101 97.15 180.885 97.9333 181.451 98.95C182.018 99.95 182.301 101.108 182.301 102.425C182.301 103.758 182.018 104.925 181.451 105.925C180.885 106.925 180.101 107.708 179.101 108.275C178.118 108.842 177.001 109.125 175.751 109.125ZM168.976 113.85V95.875H170.676V99.825L170.501 102.45L170.751 105.1V113.85H168.976ZM175.626 107.55C176.56 107.55 177.393 107.342 178.126 106.925C178.86 106.492 179.443 105.892 179.876 105.125C180.31 104.342 180.526 103.442 180.526 102.425C180.526 101.408 180.31 100.517 179.876 99.75C179.443 98.9833 178.86 98.3833 178.126 97.95C177.393 97.5167 176.56 97.3 175.626 97.3C174.693 97.3 173.851 97.5167 173.101 97.95C172.368 98.3833 171.785 98.9833 171.351 99.75C170.935 100.517 170.726 101.408 170.726 102.425C170.726 103.442 170.935 104.342 171.351 105.125C171.785 105.892 172.368 106.492 173.101 106.925C173.851 107.342 174.693 107.55 175.626 107.55ZM191.515 109.125C190.248 109.125 189.107 108.842 188.09 108.275C187.09 107.692 186.298 106.9 185.715 105.9C185.132 104.883 184.84 103.725 184.84 102.425C184.84 101.108 185.132 99.95 185.715 98.95C186.298 97.95 187.09 97.1667 188.09 96.6C189.09 96.0333 190.232 95.75 191.515 95.75C192.815 95.75 193.965 96.0333 194.965 96.6C195.982 97.1667 196.773 97.95 197.34 98.95C197.923 99.95 198.215 101.108 198.215 102.425C198.215 103.725 197.923 104.883 197.34 105.9C196.773 106.9 195.982 107.692 194.965 108.275C193.948 108.842 192.798 109.125 191.515 109.125ZM191.515 107.55C192.465 107.55 193.307 107.342 194.04 106.925C194.773 106.492 195.348 105.892 195.765 105.125C196.198 104.342 196.415 103.442 196.415 102.425C196.415 101.392 196.198 100.492 195.765 99.725C195.348 98.9583 194.773 98.3667 194.04 97.95C193.307 97.5167 192.473 97.3 191.54 97.3C190.607 97.3 189.773 97.5167 189.04 97.95C188.307 98.3667 187.723 98.9583 187.29 99.725C186.857 100.492 186.64 101.392 186.64 102.425C186.64 103.442 186.857 104.342 187.29 105.125C187.723 105.892 188.307 106.492 189.04 106.925C189.773 107.342 190.598 107.55 191.515 107.55ZM202.008 109V95.875H211.308V97.425H203.333L203.783 96.975V109H202.008ZM218.663 109.125C217.397 109.125 216.255 108.842 215.238 108.275C214.238 107.692 213.447 106.9 212.863 105.9C212.28 104.883 211.988 103.725 211.988 102.425C211.988 101.108 212.28 99.95 212.863 98.95C213.447 97.95 214.238 97.1667 215.238 96.6C216.238 96.0333 217.38 95.75 218.663 95.75C219.963 95.75 221.113 96.0333 222.113 96.6C223.13 97.1667 223.922 97.95 224.488 98.95C225.072 99.95 225.363 101.108 225.363 102.425C225.363 103.725 225.072 104.883 224.488 105.9C223.922 106.9 223.13 107.692 222.113 108.275C221.097 108.842 219.947 109.125 218.663 109.125ZM218.663 107.55C219.613 107.55 220.455 107.342 221.188 106.925C221.922 106.492 222.497 105.892 222.913 105.125C223.347 104.342 223.563 103.442 223.563 102.425C223.563 101.392 223.347 100.492 222.913 99.725C222.497 98.9583 221.922 98.3667 221.188 97.95C220.455 97.5167 219.622 97.3 218.688 97.3C217.755 97.3 216.922 97.5167 216.188 97.95C215.455 98.3667 214.872 98.9583 214.438 99.725C214.005 100.492 213.788 101.392 213.788 102.425C213.788 103.442 214.005 104.342 214.438 105.125C214.872 105.892 215.455 106.492 216.188 106.925C216.922 107.342 217.747 107.55 218.663 107.55ZM238.2 109V96.95L238.65 97.425H233.225V95.875H244.95V97.425H239.525L239.975 96.95V109H238.2ZM252.531 109.125C251.164 109.125 249.964 108.842 248.931 108.275C247.898 107.692 247.089 106.9 246.506 105.9C245.923 104.883 245.631 103.725 245.631 102.425C245.631 101.125 245.906 99.975 246.456 98.975C247.023 97.975 247.789 97.1917 248.756 96.625C249.739 96.0417 250.839 95.75 252.056 95.75C253.289 95.75 254.381 96.0333 255.331 96.6C256.298 97.15 257.056 97.9333 257.606 98.95C258.156 99.95 258.431 101.108 258.431 102.425C258.431 102.508 258.423 102.6 258.406 102.7C258.406 102.783 258.406 102.875 258.406 102.975H246.981V101.65H257.456L256.756 102.175C256.756 101.225 256.548 100.383 256.131 99.65C255.731 98.9 255.181 98.3167 254.481 97.9C253.781 97.4833 252.973 97.275 252.056 97.275C251.156 97.275 250.348 97.4833 249.631 97.9C248.914 98.3167 248.356 98.9 247.956 99.65C247.556 100.4 247.356 101.258 247.356 102.225V102.5C247.356 103.5 247.573 104.383 248.006 105.15C248.456 105.9 249.073 106.492 249.856 106.925C250.656 107.342 251.564 107.55 252.581 107.55C253.381 107.55 254.123 107.408 254.806 107.125C255.506 106.842 256.106 106.408 256.606 105.825L257.606 106.975C257.023 107.675 256.289 108.208 255.406 108.575C254.539 108.942 253.581 109.125 252.531 109.125ZM259.691 108.975L259.816 107.45C259.933 107.467 260.041 107.492 260.141 107.525C260.258 107.542 260.358 107.55 260.441 107.55C260.975 107.55 261.4 107.35 261.716 106.95C262.05 106.55 262.3 106.017 262.466 105.35C262.633 104.683 262.75 103.933 262.816 103.1C262.883 102.25 262.941 101.4 262.991 100.55L263.216 95.875H272.841V109H271.066V96.9L271.516 97.425H264.366L264.791 96.875L264.591 100.675C264.541 101.808 264.45 102.892 264.316 103.925C264.2 104.958 264.008 105.867 263.741 106.65C263.491 107.433 263.141 108.05 262.691 108.5C262.241 108.933 261.666 109.15 260.966 109.15C260.766 109.15 260.558 109.133 260.341 109.1C260.141 109.067 259.925 109.025 259.691 108.975ZM286.037 109V106.1L285.962 105.625V100.775C285.962 99.6583 285.646 98.8 285.012 98.2C284.396 97.6 283.471 97.3 282.237 97.3C281.387 97.3 280.579 97.4417 279.812 97.725C279.046 98.0083 278.396 98.3833 277.862 98.85L277.062 97.525C277.729 96.9583 278.529 96.525 279.462 96.225C280.396 95.9083 281.379 95.75 282.412 95.75C284.112 95.75 285.421 96.175 286.337 97.025C287.271 97.8583 287.737 99.1333 287.737 100.85V109H286.037ZM281.512 109.125C280.529 109.125 279.671 108.967 278.937 108.65C278.221 108.317 277.671 107.867 277.287 107.3C276.904 106.717 276.712 106.05 276.712 105.3C276.712 104.617 276.871 104 277.187 103.45C277.521 102.883 278.054 102.433 278.787 102.1C279.537 101.75 280.537 101.575 281.787 101.575H286.312V102.9H281.837C280.571 102.9 279.687 103.125 279.187 103.575C278.704 104.025 278.462 104.583 278.462 105.25C278.462 106 278.754 106.6 279.337 107.05C279.921 107.5 280.737 107.725 281.787 107.725C282.787 107.725 283.646 107.5 284.362 107.05C285.096 106.583 285.629 105.917 285.962 105.05L286.362 106.275C286.029 107.142 285.446 107.833 284.612 108.35C283.796 108.867 282.762 109.125 281.512 109.125ZM1.475 139V125.875H3.175V129.45L3 128.825C3.36667 127.825 3.98333 127.067 4.85 126.55C5.71667 126.017 6.79167 125.75 8.075 125.75V127.475C8.00833 127.475 7.94167 127.475 7.875 127.475C7.80833 127.458 7.74167 127.45 7.675 127.45C6.29167 127.45 5.20833 127.875 4.425 128.725C3.64167 129.558 3.25 130.75 3.25 132.3V139H1.475ZM10.2656 133V131.45H16.8156V133H10.2656ZM34.1545 139.125C33.0212 139.125 31.9962 138.867 31.0795 138.35C30.1628 137.817 29.4295 137.058 28.8795 136.075C28.3462 135.075 28.0795 133.858 28.0795 132.425C28.0795 130.992 28.3462 129.783 28.8795 128.8C29.4128 127.8 30.1378 127.042 31.0545 126.525C31.9712 126.008 33.0045 125.75 34.1545 125.75C35.4045 125.75 36.5212 126.033 37.5045 126.6C38.5045 127.15 39.2878 127.933 39.8545 128.95C40.4212 129.95 40.7045 131.108 40.7045 132.425C40.7045 133.758 40.4212 134.925 39.8545 135.925C39.2878 136.925 38.5045 137.708 37.5045 138.275C36.5212 138.842 35.4045 139.125 34.1545 139.125ZM27.3795 143.85V125.875H29.0795V129.825L28.9045 132.45L29.1545 135.1V143.85H27.3795ZM34.0295 137.55C34.9628 137.55 35.7962 137.342 36.5295 136.925C37.2628 136.492 37.8462 135.892 38.2795 135.125C38.7128 134.342 38.9295 133.442 38.9295 132.425C38.9295 131.408 38.7128 130.517 38.2795 129.75C37.8462 128.983 37.2628 128.383 36.5295 127.95C35.7962 127.517 34.9628 127.3 34.0295 127.3C33.0962 127.3 32.2545 127.517 31.5045 127.95C30.7712 128.383 30.1878 128.983 29.7545 129.75C29.3378 130.517 29.1295 131.408 29.1295 132.425C29.1295 133.442 29.3378 134.342 29.7545 135.125C30.1878 135.892 30.7712 136.492 31.5045 136.925C32.2545 137.342 33.0962 137.55 34.0295 137.55ZM52.5949 139V136.1L52.5199 135.625V130.775C52.5199 129.658 52.2033 128.8 51.5699 128.2C50.9533 127.6 50.0283 127.3 48.7949 127.3C47.9449 127.3 47.1366 127.442 46.3699 127.725C45.6033 128.008 44.9533 128.383 44.4199 128.85L43.6199 127.525C44.2866 126.958 45.0866 126.525 46.0199 126.225C46.9533 125.908 47.9366 125.75 48.9699 125.75C50.6699 125.75 51.9783 126.175 52.8949 127.025C53.8283 127.858 54.2949 129.133 54.2949 130.85V139H52.5949ZM48.0699 139.125C47.0866 139.125 46.2283 138.967 45.4949 138.65C44.7783 138.317 44.2283 137.867 43.8449 137.3C43.4616 136.717 43.2699 136.05 43.2699 135.3C43.2699 134.617 43.4283 134 43.7449 133.45C44.0783 132.883 44.6116 132.433 45.3449 132.1C46.0949 131.75 47.0949 131.575 48.3449 131.575H52.8699V132.9H48.3949C47.1283 132.9 46.2449 133.125 45.7449 133.575C45.2616 134.025 45.0199 134.583 45.0199 135.25C45.0199 136 45.3116 136.6 45.8949 137.05C46.4783 137.5 47.2949 137.725 48.3449 137.725C49.3449 137.725 50.2033 137.5 50.9199 137.05C51.6533 136.583 52.1866 135.917 52.5199 135.05L52.9199 136.275C52.5866 137.142 52.0033 137.833 51.1699 138.35C50.3533 138.867 49.3199 139.125 48.0699 139.125ZM64.5201 139.125C63.2201 139.125 62.0535 138.842 61.0201 138.275C60.0035 137.692 59.2035 136.9 58.6201 135.9C58.0368 134.883 57.7451 133.725 57.7451 132.425C57.7451 131.108 58.0368 129.95 58.6201 128.95C59.2035 127.95 60.0035 127.167 61.0201 126.6C62.0535 126.033 63.2201 125.75 64.5201 125.75C65.6368 125.75 66.6451 125.967 67.5451 126.4C68.4451 126.833 69.1535 127.483 69.6701 128.35L68.3451 129.25C67.8951 128.583 67.3368 128.092 66.6701 127.775C66.0035 127.458 65.2785 127.3 64.4951 127.3C63.5618 127.3 62.7201 127.517 61.9701 127.95C61.2201 128.367 60.6285 128.958 60.1951 129.725C59.7618 130.492 59.5451 131.392 59.5451 132.425C59.5451 133.458 59.7618 134.358 60.1951 135.125C60.6285 135.892 61.2201 136.492 61.9701 136.925C62.7201 137.342 63.5618 137.55 64.4951 137.55C65.2785 137.55 66.0035 137.392 66.6701 137.075C67.3368 136.758 67.8951 136.275 68.3451 135.625L69.6701 136.525C69.1535 137.375 68.4451 138.025 67.5451 138.475C66.6451 138.908 65.6368 139.125 64.5201 139.125ZM78.3873 139.125C77.0873 139.125 75.9206 138.842 74.8873 138.275C73.8706 137.692 73.0706 136.9 72.4873 135.9C71.904 134.883 71.6123 133.725 71.6123 132.425C71.6123 131.108 71.904 129.95 72.4873 128.95C73.0706 127.95 73.8706 127.167 74.8873 126.6C75.9206 126.033 77.0873 125.75 78.3873 125.75C79.504 125.75 80.5123 125.967 81.4123 126.4C82.3123 126.833 83.0206 127.483 83.5373 128.35L82.2123 129.25C81.7623 128.583 81.204 128.092 80.5373 127.775C79.8706 127.458 79.1456 127.3 78.3623 127.3C77.429 127.3 76.5873 127.517 75.8373 127.95C75.0873 128.367 74.4956 128.958 74.0623 129.725C73.629 130.492 73.4123 131.392 73.4123 132.425C73.4123 133.458 73.629 134.358 74.0623 135.125C74.4956 135.892 75.0873 136.492 75.8373 136.925C76.5873 137.342 77.429 137.55 78.3623 137.55C79.1456 137.55 79.8706 137.392 80.5373 137.075C81.204 136.758 81.7623 136.275 82.2123 135.625L83.5373 136.525C83.0206 137.375 82.3123 138.025 81.4123 138.475C80.5123 138.908 79.504 139.125 78.3873 139.125ZM89.2301 139V126.95L89.6801 127.425H84.2551V125.875H95.9801V127.425H90.5551L91.0051 126.95V139H89.2301ZM103.336 139.125C102.069 139.125 100.928 138.842 99.9111 138.275C98.9111 137.692 98.1195 136.9 97.5361 135.9C96.9528 134.883 96.6611 133.725 96.6611 132.425C96.6611 131.108 96.9528 129.95 97.5361 128.95C98.1195 127.95 98.9111 127.167 99.9111 126.6C100.911 126.033 102.053 125.75 103.336 125.75C104.636 125.75 105.786 126.033 106.786 126.6C107.803 127.167 108.594 127.95 109.161 128.95C109.744 129.95 110.036 131.108 110.036 132.425C110.036 133.725 109.744 134.883 109.161 135.9C108.594 136.9 107.803 137.692 106.786 138.275C105.769 138.842 104.619 139.125 103.336 139.125ZM103.336 137.55C104.286 137.55 105.128 137.342 105.861 136.925C106.594 136.492 107.169 135.892 107.586 135.125C108.019 134.342 108.236 133.442 108.236 132.425C108.236 131.392 108.019 130.492 107.586 129.725C107.169 128.958 106.594 128.367 105.861 127.95C105.128 127.517 104.294 127.3 103.361 127.3C102.428 127.3 101.594 127.517 100.861 127.95C100.128 128.367 99.5445 128.958 99.1111 129.725C98.6778 130.492 98.4611 131.392 98.4611 132.425C98.4611 133.442 98.6778 134.342 99.1111 135.125C99.5445 135.892 100.128 136.492 100.861 136.925C101.594 137.342 102.419 137.55 103.336 137.55ZM121.841 139V134.275L122.166 134.65H117.716C116.032 134.65 114.716 134.283 113.766 133.55C112.816 132.817 112.341 131.75 112.341 130.35C112.341 128.85 112.849 127.733 113.866 127C114.882 126.25 116.241 125.875 117.941 125.875H123.466V139H121.841ZM112.241 139L115.841 133.95H117.691L114.166 139H112.241ZM121.841 133.75V126.9L122.166 127.425H117.991C116.774 127.425 115.824 127.658 115.141 128.125C114.474 128.592 114.141 129.35 114.141 130.4C114.141 132.35 115.382 133.325 117.866 133.325H122.166L121.841 133.75ZM128.527 139V125.875H130.302V131.675H138.577V125.875H140.352V139H138.577V133.2H130.302V139H128.527ZM145.397 139V125.875H147.172V136.3L155.947 125.875H157.522V139H155.747V128.55L146.997 139H145.397ZM168.234 139.125C166.867 139.125 165.667 138.842 164.634 138.275C163.601 137.692 162.792 136.9 162.209 135.9C161.626 134.883 161.334 133.725 161.334 132.425C161.334 131.125 161.609 129.975 162.159 128.975C162.726 127.975 163.492 127.192 164.459 126.625C165.442 126.042 166.542 125.75 167.759 125.75C168.992 125.75 170.084 126.033 171.034 126.6C172.001 127.15 172.759 127.933 173.309 128.95C173.859 129.95 174.134 131.108 174.134 132.425C174.134 132.508 174.126 132.6 174.109 132.7C174.109 132.783 174.109 132.875 174.109 132.975H162.684V131.65H173.159L172.459 132.175C172.459 131.225 172.251 130.383 171.834 129.65C171.434 128.9 170.884 128.317 170.184 127.9C169.484 127.483 168.676 127.275 167.759 127.275C166.859 127.275 166.051 127.483 165.334 127.9C164.617 128.317 164.059 128.9 163.659 129.65C163.259 130.4 163.059 131.258 163.059 132.225V132.5C163.059 133.5 163.276 134.383 163.709 135.15C164.159 135.9 164.776 136.492 165.559 136.925C166.359 137.342 167.267 137.55 168.284 137.55C169.084 137.55 169.826 137.408 170.509 137.125C171.209 136.842 171.809 136.408 172.309 135.825L173.309 136.975C172.726 137.675 171.992 138.208 171.109 138.575C170.242 138.942 169.284 139.125 168.234 139.125ZM184.606 139V125.875H186.406L192.356 135.95H191.606L197.656 125.875H199.306V139H197.681V127.9L198.006 128.05L192.356 137.4H191.556L185.856 127.95L186.231 127.875V139H184.606ZM209.982 139.125C208.615 139.125 207.415 138.842 206.382 138.275C205.349 137.692 204.54 136.9 203.957 135.9C203.374 134.883 203.082 133.725 203.082 132.425C203.082 131.125 203.357 129.975 203.907 128.975C204.474 127.975 205.24 127.192 206.207 126.625C207.19 126.042 208.29 125.75 209.507 125.75C210.74 125.75 211.832 126.033 212.782 126.6C213.749 127.15 214.507 127.933 215.057 128.95C215.607 129.95 215.882 131.108 215.882 132.425C215.882 132.508 215.874 132.6 215.857 132.7C215.857 132.783 215.857 132.875 215.857 132.975H204.432V131.65H214.907L214.207 132.175C214.207 131.225 213.999 130.383 213.582 129.65C213.182 128.9 212.632 128.317 211.932 127.9C211.232 127.483 210.424 127.275 209.507 127.275C208.607 127.275 207.799 127.483 207.082 127.9C206.365 128.317 205.807 128.9 205.407 129.65C205.007 130.4 204.807 131.258 204.807 132.225V132.5C204.807 133.5 205.024 134.383 205.457 135.15C205.907 135.9 206.524 136.492 207.307 136.925C208.107 137.342 209.015 137.55 210.032 137.55C210.832 137.55 211.574 137.408 212.257 137.125C212.957 136.842 213.557 136.408 214.057 135.825L215.057 136.975C214.474 137.675 213.74 138.208 212.857 138.575C211.99 138.942 211.032 139.125 209.982 139.125ZM235.02 139L230.52 132.5L231.995 131.625L237.145 139H235.02ZM227.57 133.15V131.625H231.72V133.15H227.57ZM232.17 132.625L230.47 132.375L234.845 125.875H236.77L232.17 132.625ZM219.47 139H217.345L222.495 131.625L223.945 132.5L219.47 139ZM228.12 139H226.345V125.875H228.12V139ZM226.895 133.15H222.77V131.625H226.895V133.15ZM222.345 132.625L217.72 125.875H219.645L223.995 132.375L222.345 132.625ZM239.567 143.975C238.951 143.975 238.359 143.875 237.792 143.675C237.242 143.475 236.767 143.175 236.367 142.775L237.192 141.45C237.526 141.767 237.884 142.008 238.267 142.175C238.667 142.358 239.109 142.45 239.592 142.45C240.176 142.45 240.676 142.283 241.092 141.95C241.526 141.633 241.934 141.067 242.317 140.25L243.167 138.325L243.367 138.05L248.767 125.875H250.517L243.942 140.575C243.576 141.425 243.167 142.1 242.717 142.6C242.284 143.1 241.809 143.45 241.292 143.65C240.776 143.867 240.201 143.975 239.567 143.975ZM243.067 139.375L237.017 125.875H238.867L244.217 137.925L243.067 139.375ZM262.326 139V126.95L262.776 127.425H257.351V125.875H269.076V127.425H263.651L264.101 126.95V139H262.326ZM276.657 139.125C275.29 139.125 274.09 138.842 273.057 138.275C272.024 137.692 271.215 136.9 270.632 135.9C270.049 134.883 269.757 133.725 269.757 132.425C269.757 131.125 270.032 129.975 270.582 128.975C271.149 127.975 271.915 127.192 272.882 126.625C273.865 126.042 274.965 125.75 276.182 125.75C277.415 125.75 278.507 126.033 279.457 126.6C280.424 127.15 281.182 127.933 281.732 128.95C282.282 129.95 282.557 131.108 282.557 132.425C282.557 132.508 282.549 132.6 282.532 132.7C282.532 132.783 282.532 132.875 282.532 132.975H271.107V131.65H281.582L280.882 132.175C280.882 131.225 280.674 130.383 280.257 129.65C279.857 128.9 279.307 128.317 278.607 127.9C277.907 127.483 277.099 127.275 276.182 127.275C275.282 127.275 274.474 127.483 273.757 127.9C273.04 128.317 272.482 128.9 272.082 129.65C271.682 130.4 271.482 131.258 271.482 132.225V132.5C271.482 133.5 271.699 134.383 272.132 135.15C272.582 135.9 273.199 136.492 273.982 136.925C274.782 137.342 275.69 137.55 276.707 137.55C277.507 137.55 278.249 137.408 278.932 137.125C279.632 136.842 280.232 136.408 280.732 135.825L281.732 136.975C281.149 137.675 280.415 138.208 279.532 138.575C278.665 138.942 277.707 139.125 276.657 139.125ZM283.817 138.975L283.942 137.45C284.059 137.467 284.167 137.492 284.267 137.525C284.384 137.542 284.484 137.55 284.567 137.55C285.101 137.55 285.526 137.35 285.842 136.95C286.176 136.55 286.426 136.017 286.592 135.35C286.759 134.683 286.876 133.933 286.942 133.1C287.009 132.25 287.067 131.4 287.117 130.55L287.342 125.875H296.967V139H295.192V126.9L295.642 127.425H288.492L288.917 126.875L288.717 130.675C288.667 131.808 288.576 132.892 288.442 133.925C288.326 134.958 288.134 135.867 287.867 136.65C287.617 137.433 287.267 138.05 286.817 138.5C286.367 138.933 285.792 139.15 285.092 139.15C284.892 139.15 284.684 139.133 284.467 139.1C284.267 139.067 284.051 139.025 283.817 138.975ZM310.163 139V136.1L310.088 135.625V130.775C310.088 129.658 309.772 128.8 309.138 128.2C308.522 127.6 307.597 127.3 306.363 127.3C305.513 127.3 304.705 127.442 303.938 127.725C303.172 128.008 302.522 128.383 301.988 128.85L301.188 127.525C301.855 126.958 302.655 126.525 303.588 126.225C304.522 125.908 305.505 125.75 306.538 125.75C308.238 125.75 309.547 126.175 310.463 127.025C311.397 127.858 311.863 129.133 311.863 130.85V139H310.163ZM305.638 139.125C304.655 139.125 303.797 138.967 303.063 138.65C302.347 138.317 301.797 137.867 301.413 137.3C301.03 136.717 300.838 136.05 300.838 135.3C300.838 134.617 300.997 134 301.313 133.45C301.647 132.883 302.18 132.433 302.913 132.1C303.663 131.75 304.663 131.575 305.913 131.575H310.438V132.9H305.963C304.697 132.9 303.813 133.125 303.313 133.575C302.83 134.025 302.588 134.583 302.588 135.25C302.588 136 302.88 136.6 303.463 137.05C304.047 137.5 304.863 137.725 305.913 137.725C306.913 137.725 307.772 137.5 308.488 137.05C309.222 136.583 309.755 135.917 310.088 135.05L310.488 136.275C310.155 137.142 309.572 137.833 308.738 138.35C307.922 138.867 306.888 139.125 305.638 139.125ZM316.588 139V125.875H318.388L324.338 135.95H323.588L329.638 125.875H331.288V139H329.663V127.9L329.988 128.05L324.338 137.4H323.538L317.838 127.95L318.213 127.875V139H316.588ZM336.339 139V125.875H338.114V136.3L346.889 125.875H348.464V139H346.689V128.55L337.939 139H336.339Z" fill="white"/>
</svg>
