<svg width="257" height="84" viewBox="0 0 257 84" fill="none" xmlns="http://www.w3.org/2000/svg">
<path d="M3.5 9.975H12.75V11.575H3.5V9.975ZM3.7 19H1.85V1.5H13.85V3.1H3.7V19ZM16.5603 19V12.3L16.8803 12.64H14.9103V12H17.2803V19H16.5603ZM27.5016 19V5.875H29.2766V16.3L38.0516 5.875H39.6266V19H37.8516V8.55L29.1016 19H27.5016ZM53.2314 9.975H62.4814V11.575H53.2314V9.975ZM53.4314 19H51.5814V1.5H63.5814V3.1H53.4314V19ZM64.9418 19V18.49L67.8518 15.64C68.1184 15.38 68.3184 15.1533 68.4518 14.96C68.5851 14.76 68.6751 14.5733 68.7218 14.4C68.7684 14.2267 68.7918 14.0633 68.7918 13.91C68.7918 13.5033 68.6518 13.1833 68.3718 12.95C68.0984 12.7167 67.6918 12.6 67.1518 12.6C66.7384 12.6 66.3718 12.6633 66.0518 12.79C65.7384 12.9167 65.4684 13.1133 65.2418 13.38L64.7318 12.94C65.0051 12.62 65.3551 12.3733 65.7818 12.2C66.2084 12.0267 66.6851 11.94 67.2118 11.94C67.6851 11.94 68.0951 12.0167 68.4418 12.17C68.7884 12.3167 69.0551 12.5333 69.2418 12.82C69.4351 13.1067 69.5318 13.4433 69.5318 13.83C69.5318 14.0567 69.4984 14.28 69.4318 14.5C69.3718 14.72 69.2584 14.9533 69.0918 15.2C68.9318 15.44 68.6951 15.7133 68.3818 16.02L65.7118 18.64L65.5118 18.36H69.8518V19H64.9418ZM78.2783 13V11.45H84.8283V13H78.2783ZM102.767 19.15C102.767 19.15 102.734 19.15 102.667 19.15C102.601 19.15 102.534 19.15 102.467 19.15C102.417 19.15 102.376 19.15 102.342 19.15C99.7422 19.1333 97.7172 18.5417 96.2672 17.375C94.8172 16.2083 94.0922 14.55 94.0922 12.4C94.0922 10.2833 94.8172 8.65 96.2672 7.5C97.7339 6.33333 99.7922 5.74167 102.442 5.725C102.459 5.725 102.492 5.725 102.542 5.725C102.609 5.725 102.667 5.725 102.717 5.725C102.767 5.725 102.801 5.725 102.817 5.725C105.484 5.74167 107.559 6.33333 109.042 7.5C110.526 8.65 111.267 10.2833 111.267 12.4C111.267 14.5667 110.517 16.2333 109.017 17.4C107.534 18.5667 105.451 19.15 102.767 19.15ZM102.742 17.6C104.226 17.6 105.467 17.4 106.467 17C107.467 16.5833 108.226 15.9917 108.742 15.225C109.259 14.4583 109.517 13.5167 109.517 12.4C109.517 11.3167 109.259 10.4 108.742 9.65C108.226 8.88333 107.467 8.3 106.467 7.9C105.467 7.5 104.226 7.3 102.742 7.3C102.726 7.3 102.676 7.3 102.592 7.3C102.526 7.3 102.484 7.3 102.467 7.3C101.017 7.3 99.8005 7.50833 98.8172 7.925C97.8339 8.325 97.0922 8.9 96.5922 9.65C96.0922 10.4 95.8422 11.3167 95.8422 12.4C95.8422 13.5 96.0922 14.4333 96.5922 15.2C97.1089 15.9667 97.8589 16.5583 98.8422 16.975C99.8255 17.375 101.034 17.5833 102.467 17.6C102.501 17.6 102.551 17.6 102.617 17.6C102.684 17.6 102.726 17.6 102.742 17.6ZM101.792 23.85V0.449999H103.517V23.85H101.792ZM120.421 19.125C119.154 19.125 118.013 18.8417 116.996 18.275C115.996 17.6917 115.204 16.9 114.621 15.9C114.038 14.8833 113.746 13.725 113.746 12.425C113.746 11.1083 114.038 9.95 114.621 8.95C115.204 7.95 115.996 7.16667 116.996 6.6C117.996 6.03333 119.138 5.75 120.421 5.75C121.721 5.75 122.871 6.03333 123.871 6.6C124.888 7.16667 125.679 7.95 126.246 8.95C126.829 9.95 127.121 11.1083 127.121 12.425C127.121 13.725 126.829 14.8833 126.246 15.9C125.679 16.9 124.888 17.6917 123.871 18.275C122.854 18.8417 121.704 19.125 120.421 19.125ZM120.421 17.55C121.371 17.55 122.213 17.3417 122.946 16.925C123.679 16.4917 124.254 15.8917 124.671 15.125C125.104 14.3417 125.321 13.4417 125.321 12.425C125.321 11.3917 125.104 10.4917 124.671 9.725C124.254 8.95833 123.679 8.36667 122.946 7.95C122.213 7.51667 121.379 7.3 120.446 7.3C119.513 7.3 118.679 7.51667 117.946 7.95C117.213 8.36667 116.629 8.95833 116.196 9.725C115.763 10.4917 115.546 11.3917 115.546 12.425C115.546 13.4417 115.763 14.3417 116.196 15.125C116.629 15.8917 117.213 16.4917 117.946 16.925C118.679 17.3417 119.504 17.55 120.421 17.55ZM140.54 19L135.14 12.5L136.615 11.625L142.64 19H140.54ZM130.915 19V5.875H132.69V19H130.915ZM132.14 13.15V11.625H136.365V13.15H132.14ZM136.765 12.625L135.115 12.375L140.34 5.875H142.265L136.765 12.625ZM144.909 23.975C144.293 23.975 143.701 23.875 143.134 23.675C142.584 23.475 142.109 23.175 141.709 22.775L142.534 21.45C142.868 21.7667 143.226 22.0083 143.609 22.175C144.009 22.3583 144.451 22.45 144.934 22.45C145.518 22.45 146.018 22.2833 146.434 21.95C146.868 21.6333 147.276 21.0667 147.659 20.25L148.509 18.325L148.709 18.05L154.109 5.875H155.859L149.284 20.575C148.918 21.425 148.509 22.1 148.059 22.6C147.626 23.1 147.151 23.45 146.634 23.65C146.118 23.8667 145.543 23.975 144.909 23.975ZM148.409 19.375L142.359 5.875H144.209L149.559 17.925L148.409 19.375ZM163.758 19.125C162.458 19.125 161.292 18.8417 160.258 18.275C159.242 17.6917 158.442 16.9 157.858 15.9C157.275 14.8833 156.983 13.725 156.983 12.425C156.983 11.1083 157.275 9.95 157.858 8.95C158.442 7.95 159.242 7.16667 160.258 6.6C161.292 6.03333 162.458 5.75 163.758 5.75C164.875 5.75 165.883 5.96667 166.783 6.4C167.683 6.83333 168.392 7.48333 168.908 8.35L167.583 9.25C167.133 8.58333 166.575 8.09167 165.908 7.775C165.242 7.45833 164.517 7.3 163.733 7.3C162.8 7.3 161.958 7.51667 161.208 7.95C160.458 8.36667 159.867 8.95833 159.433 9.725C159 10.4917 158.783 11.3917 158.783 12.425C158.783 13.4583 159 14.3583 159.433 15.125C159.867 15.8917 160.458 16.4917 161.208 16.925C161.958 17.3417 162.8 17.55 163.733 17.55C164.517 17.55 165.242 17.3917 165.908 17.075C166.575 16.7583 167.133 16.275 167.583 15.625L168.908 16.525C168.392 17.375 167.683 18.025 166.783 18.475C165.883 18.9083 164.875 19.125 163.758 19.125ZM185.145 19V5.875H186.92V19H185.145ZM177.87 10.5C179.52 10.5167 180.779 10.8833 181.645 11.6C182.512 12.3167 182.945 13.35 182.945 14.7C182.945 16.1 182.479 17.175 181.545 17.925C180.612 18.675 179.279 19.0417 177.545 19.025L172.345 19V5.875H174.12V10.45L177.87 10.5ZM177.42 17.675C178.654 17.6917 179.579 17.45 180.195 16.95C180.829 16.4333 181.145 15.6833 181.145 14.7C181.145 13.7167 180.837 13 180.22 12.55C179.604 12.0833 178.67 11.8417 177.42 11.825L174.12 11.775V17.625L177.42 17.675ZM9.7 49V46.1L9.625 45.625V40.775C9.625 39.6583 9.30833 38.8 8.675 38.2C8.05833 37.6 7.13333 37.3 5.9 37.3C5.05 37.3 4.24167 37.4417 3.475 37.725C2.70833 38.0083 2.05833 38.3833 1.525 38.85L0.725 37.525C1.39167 36.9583 2.19167 36.525 3.125 36.225C4.05833 35.9083 5.04167 35.75 6.075 35.75C7.775 35.75 9.08333 36.175 10 37.025C10.9333 37.8583 11.4 39.1333 11.4 40.85V49H9.7ZM5.175 49.125C4.19167 49.125 3.33333 48.9667 2.6 48.65C1.88333 48.3167 1.33333 47.8667 0.95 47.3C0.566667 46.7167 0.375 46.05 0.375 45.3C0.375 44.6167 0.533333 44 0.85 43.45C1.18333 42.8833 1.71667 42.4333 2.45 42.1C3.2 41.75 4.2 41.575 5.45 41.575H9.975V42.9H5.5C4.23333 42.9 3.35 43.125 2.85 43.575C2.36667 44.025 2.125 44.5833 2.125 45.25C2.125 46 2.41667 46.6 3 47.05C3.58333 47.5 4.4 47.725 5.45 47.725C6.45 47.725 7.30833 47.5 8.025 47.05C8.75833 46.5833 9.29167 45.9167 9.625 45.05L10.025 46.275C9.69167 47.1417 9.10833 47.8333 8.275 48.35C7.45833 48.8667 6.425 49.125 5.175 49.125ZM15.2461 43V41.45H21.7961V43H15.2461ZM38.26 49.15C37.1933 49.15 36.2433 48.975 35.41 48.625C34.5933 48.275 33.8933 47.7417 33.31 47.025C32.7266 46.3083 32.285 45.425 31.985 44.375C31.685 43.3083 31.535 42.075 31.535 40.675C31.535 39.425 31.6516 38.3333 31.885 37.4C32.1183 36.45 32.4433 35.6333 32.86 34.95C33.2766 34.2667 33.76 33.6917 34.31 33.225C34.8766 32.7417 35.485 32.3583 36.135 32.075C36.8016 31.775 37.485 31.55 38.185 31.4L44.085 30.025L44.385 31.675L38.835 32.925C38.485 33.0083 38.06 33.125 37.56 33.275C37.0766 33.425 36.5766 33.65 36.06 33.95C35.56 34.25 35.0933 34.6667 34.66 35.2C34.2266 35.7333 33.8766 36.425 33.61 37.275C33.36 38.1083 33.235 39.15 33.235 40.4C33.235 40.6667 33.2433 40.8833 33.26 41.05C33.2766 41.2 33.2933 41.3667 33.31 41.55C33.3433 41.7167 33.3683 41.9667 33.385 42.3L32.61 41.65C32.7933 40.6333 33.1683 39.75 33.735 39C34.3016 38.2333 35.01 37.6417 35.86 37.225C36.7266 36.7917 37.685 36.575 38.735 36.575C39.9516 36.575 41.035 36.8417 41.985 37.375C42.935 37.8917 43.6766 38.6167 44.21 39.55C44.76 40.4833 45.035 41.5667 45.035 42.8C45.035 44.0167 44.7516 45.1083 44.185 46.075C43.635 47.0417 42.8516 47.8 41.835 48.35C40.8183 48.8833 39.6266 49.15 38.26 49.15ZM38.46 47.675C39.3933 47.675 40.2183 47.4667 40.935 47.05C41.6516 46.6167 42.21 46.0333 42.61 45.3C43.0266 44.5667 43.235 43.7417 43.235 42.825C43.235 41.925 43.0266 41.125 42.61 40.425C42.21 39.725 41.6516 39.175 40.935 38.775C40.2183 38.3583 39.385 38.15 38.435 38.15C37.5016 38.15 36.6766 38.35 35.96 38.75C35.2433 39.1333 34.6766 39.675 34.26 40.375C33.86 41.075 33.66 41.8833 33.66 42.8C33.66 43.7167 33.86 44.5417 34.26 45.275C34.6766 46.0083 35.2433 46.5917 35.96 47.025C36.6933 47.4583 37.5266 47.675 38.46 47.675ZM54.2395 49.125C52.9728 49.125 51.8311 48.8417 50.8145 48.275C49.8145 47.6917 49.0228 46.9 48.4395 45.9C47.8561 44.8833 47.5645 43.725 47.5645 42.425C47.5645 41.1083 47.8561 39.95 48.4395 38.95C49.0228 37.95 49.8145 37.1667 50.8145 36.6C51.8145 36.0333 52.9561 35.75 54.2395 35.75C55.5395 35.75 56.6895 36.0333 57.6895 36.6C58.7061 37.1667 59.4978 37.95 60.0645 38.95C60.6478 39.95 60.9395 41.1083 60.9395 42.425C60.9395 43.725 60.6478 44.8833 60.0645 45.9C59.4978 46.9 58.7061 47.6917 57.6895 48.275C56.6728 48.8417 55.5228 49.125 54.2395 49.125ZM54.2395 47.55C55.1895 47.55 56.0311 47.3417 56.7645 46.925C57.4978 46.4917 58.0728 45.8917 58.4895 45.125C58.9228 44.3417 59.1395 43.4417 59.1395 42.425C59.1395 41.3917 58.9228 40.4917 58.4895 39.725C58.0728 38.9583 57.4978 38.3667 56.7645 37.95C56.0311 37.5167 55.1978 37.3 54.2645 37.3C53.3311 37.3 52.4978 37.5167 51.7645 37.95C51.0311 38.3667 50.4478 38.9583 50.0145 39.725C49.5811 40.4917 49.3645 41.3917 49.3645 42.425C49.3645 43.4417 49.5811 44.3417 50.0145 45.125C50.4478 45.8917 51.0311 46.4917 51.7645 46.925C52.4978 47.3417 53.3228 47.55 54.2395 47.55ZM62.2598 48.975L62.3848 47.45C62.5014 47.4667 62.6098 47.4917 62.7098 47.525C62.8264 47.5417 62.9264 47.55 63.0098 47.55C63.5431 47.55 63.9681 47.35 64.2848 46.95C64.6181 46.55 64.8681 46.0167 65.0348 45.35C65.2014 44.6833 65.3181 43.9333 65.3848 43.1C65.4514 42.25 65.5098 41.4 65.5598 40.55L65.7848 35.875H75.4098V49H73.6348V36.9L74.0848 37.425H66.9348L67.3598 36.875L67.1598 40.675C67.1098 41.8083 67.0181 42.8917 66.8848 43.925C66.7681 44.9583 66.5764 45.8667 66.3098 46.65C66.0598 47.4333 65.7098 48.05 65.2598 48.5C64.8098 48.9333 64.2348 49.15 63.5348 49.15C63.3348 49.15 63.1264 49.1333 62.9098 49.1C62.7098 49.0667 62.4931 49.025 62.2598 48.975ZM86.1057 40.5C87.7557 40.5167 89.0057 40.8833 89.8557 41.6C90.7223 42.3167 91.1557 43.35 91.1557 44.7C91.1557 46.1 90.689 47.175 89.7557 47.925C88.839 48.675 87.5057 49.0417 85.7557 49.025L80.4557 49V35.875H82.2307V40.45L86.1057 40.5ZM85.6557 47.675C86.8723 47.6917 87.789 47.45 88.4057 46.95C89.039 46.4333 89.3557 45.6833 89.3557 44.7C89.3557 43.7167 89.0473 43 88.4307 42.55C87.814 42.0833 86.889 41.8417 85.6557 41.825L82.2307 41.775V47.625L85.6557 47.675ZM103.168 47.45L102.768 47.925V35.875H104.543V47.925L104.068 47.45H111.393L110.918 47.925V35.875H112.693V49H94.5426V35.875H96.3176V47.925L95.8676 47.45H103.168ZM125.886 49V46.1L125.811 45.625V40.775C125.811 39.6583 125.494 38.8 124.861 38.2C124.244 37.6 123.319 37.3 122.086 37.3C121.236 37.3 120.428 37.4417 119.661 37.725C118.894 38.0083 118.244 38.3833 117.711 38.85L116.911 37.525C117.578 36.9583 118.378 36.525 119.311 36.225C120.244 35.9083 121.228 35.75 122.261 35.75C123.961 35.75 125.269 36.175 126.186 37.025C127.119 37.8583 127.586 39.1333 127.586 40.85V49H125.886ZM121.361 49.125C120.378 49.125 119.519 48.9667 118.786 48.65C118.069 48.3167 117.519 47.8667 117.136 47.3C116.753 46.7167 116.561 46.05 116.561 45.3C116.561 44.6167 116.719 44 117.036 43.45C117.369 42.8833 117.903 42.4333 118.636 42.1C119.386 41.75 120.386 41.575 121.636 41.575H126.161V42.9H121.686C120.419 42.9 119.536 43.125 119.036 43.575C118.553 44.025 118.311 44.5833 118.311 45.25C118.311 46 118.603 46.6 119.186 47.05C119.769 47.5 120.586 47.725 121.636 47.725C122.636 47.725 123.494 47.5 124.211 47.05C124.944 46.5833 125.478 45.9167 125.811 45.05L126.211 46.275C125.878 47.1417 125.294 47.8333 124.461 48.35C123.644 48.8667 122.611 49.125 121.361 49.125ZM140.786 49V44.275L141.111 44.65H136.661C134.978 44.65 133.661 44.2833 132.711 43.55C131.761 42.8167 131.286 41.75 131.286 40.35C131.286 38.85 131.794 37.7333 132.811 37C133.828 36.25 135.186 35.875 136.886 35.875H142.411V49H140.786ZM131.186 49L134.786 43.95H136.636L133.111 49H131.186ZM140.786 43.75V36.9L141.111 37.425H136.936C135.719 37.425 134.769 37.6583 134.086 38.125C133.419 38.5917 133.086 39.35 133.086 40.4C133.086 42.35 134.328 43.325 136.811 43.325H141.111L140.786 43.75ZM154.015 49V35.875H165.815V49H164.04V36.95L164.49 37.425H155.34L155.79 36.95V49H154.015ZM176.261 49.125C174.994 49.125 173.853 48.8417 172.836 48.275C171.836 47.6917 171.044 46.9 170.461 45.9C169.878 44.8833 169.586 43.725 169.586 42.425C169.586 41.1083 169.878 39.95 170.461 38.95C171.044 37.95 171.836 37.1667 172.836 36.6C173.836 36.0333 174.978 35.75 176.261 35.75C177.561 35.75 178.711 36.0333 179.711 36.6C180.728 37.1667 181.519 37.95 182.086 38.95C182.669 39.95 182.961 41.1083 182.961 42.425C182.961 43.725 182.669 44.8833 182.086 45.9C181.519 46.9 180.728 47.6917 179.711 48.275C178.694 48.8417 177.544 49.125 176.261 49.125ZM176.261 47.55C177.211 47.55 178.053 47.3417 178.786 46.925C179.519 46.4917 180.094 45.8917 180.511 45.125C180.944 44.3417 181.161 43.4417 181.161 42.425C181.161 41.3917 180.944 40.4917 180.511 39.725C180.094 38.9583 179.519 38.3667 178.786 37.95C178.053 37.5167 177.219 37.3 176.286 37.3C175.353 37.3 174.519 37.5167 173.786 37.95C173.053 38.3667 172.469 38.9583 172.036 39.725C171.603 40.4917 171.386 41.3917 171.386 42.425C171.386 43.4417 171.603 44.3417 172.036 45.125C172.469 45.8917 173.053 46.4917 173.786 46.925C174.519 47.3417 175.344 47.55 176.261 47.55ZM184.281 48.975L184.406 47.45C184.523 47.4667 184.631 47.4917 184.731 47.525C184.848 47.5417 184.948 47.55 185.031 47.55C185.565 47.55 185.99 47.35 186.306 46.95C186.64 46.55 186.89 46.0167 187.056 45.35C187.223 44.6833 187.34 43.9333 187.406 43.1C187.473 42.25 187.531 41.4 187.581 40.55L187.806 35.875H197.431V49H195.656V36.9L196.106 37.425H188.956L189.381 36.875L189.181 40.675C189.131 41.8083 189.04 42.8917 188.906 43.925C188.79 44.9583 188.598 45.8667 188.331 46.65C188.081 47.4333 187.731 48.05 187.281 48.5C186.831 48.9333 186.256 49.15 185.556 49.15C185.356 49.15 185.148 49.1333 184.931 49.1C184.731 49.0667 184.515 49.025 184.281 48.975ZM202.702 53.975C202.085 53.975 201.494 53.875 200.927 53.675C200.377 53.475 199.902 53.175 199.502 52.775L200.327 51.45C200.66 51.7667 201.019 52.0083 201.402 52.175C201.802 52.3583 202.244 52.45 202.727 52.45C203.31 52.45 203.81 52.2833 204.227 51.95C204.66 51.6333 205.069 51.0667 205.452 50.25L206.302 48.325L206.502 48.05L211.902 35.875H213.652L207.077 50.575C206.71 51.425 206.302 52.1 205.852 52.6C205.419 53.1 204.944 53.45 204.427 53.65C203.91 53.8667 203.335 53.975 202.702 53.975ZM206.202 49.375L200.152 35.875H202.002L207.352 47.925L206.202 49.375ZM221.451 49.125C220.185 49.125 219.043 48.8417 218.026 48.275C217.026 47.6917 216.235 46.9 215.651 45.9C215.068 44.8833 214.776 43.725 214.776 42.425C214.776 41.1083 215.068 39.95 215.651 38.95C216.235 37.95 217.026 37.1667 218.026 36.6C219.026 36.0333 220.168 35.75 221.451 35.75C222.751 35.75 223.901 36.0333 224.901 36.6C225.918 37.1667 226.71 37.95 227.276 38.95C227.86 39.95 228.151 41.1083 228.151 42.425C228.151 43.725 227.86 44.8833 227.276 45.9C226.71 46.9 225.918 47.6917 224.901 48.275C223.885 48.8417 222.735 49.125 221.451 49.125ZM221.451 47.55C222.401 47.55 223.243 47.3417 223.976 46.925C224.71 46.4917 225.285 45.8917 225.701 45.125C226.135 44.3417 226.351 43.4417 226.351 42.425C226.351 41.3917 226.135 40.4917 225.701 39.725C225.285 38.9583 224.71 38.3667 223.976 37.95C223.243 37.5167 222.41 37.3 221.476 37.3C220.543 37.3 219.71 37.5167 218.976 37.95C218.243 38.3667 217.66 38.9583 217.226 39.725C216.793 40.4917 216.576 41.3917 216.576 42.425C216.576 43.4417 216.793 44.3417 217.226 45.125C217.66 45.8917 218.243 46.4917 218.976 46.925C219.71 47.3417 220.535 47.55 221.451 47.55ZM237.445 49.125C236.145 49.125 234.978 48.8417 233.945 48.275C232.928 47.6917 232.128 46.9 231.545 45.9C230.962 44.8833 230.67 43.725 230.67 42.425C230.67 41.1083 230.962 39.95 231.545 38.95C232.128 37.95 232.928 37.1667 233.945 36.6C234.978 36.0333 236.145 35.75 237.445 35.75C238.562 35.75 239.57 35.9667 240.47 36.4C241.37 36.8333 242.078 37.4833 242.595 38.35L241.27 39.25C240.82 38.5833 240.262 38.0917 239.595 37.775C238.928 37.4583 238.203 37.3 237.42 37.3C236.487 37.3 235.645 37.5167 234.895 37.95C234.145 38.3667 233.553 38.9583 233.12 39.725C232.687 40.4917 232.47 41.3917 232.47 42.425C232.47 43.4583 232.687 44.3583 233.12 45.125C233.553 45.8917 234.145 46.4917 234.895 46.925C235.645 47.3417 236.487 47.55 237.42 47.55C238.203 47.55 238.928 47.3917 239.595 47.075C240.262 46.7583 240.82 46.275 241.27 45.625L242.595 46.525C242.078 47.375 241.37 48.025 240.47 48.475C239.57 48.9083 238.562 49.125 237.445 49.125ZM251.682 40.5C253.332 40.5167 254.582 40.8833 255.432 41.6C256.299 42.3167 256.732 43.35 256.732 44.7C256.732 46.1 256.265 47.175 255.332 47.925C254.415 48.675 253.082 49.0417 251.332 49.025L246.032 49V35.875H247.807V40.45L251.682 40.5ZM251.232 47.675C252.449 47.6917 253.365 47.45 253.982 46.95C254.615 46.4333 254.932 45.6833 254.932 44.7C254.932 43.7167 254.624 43 254.007 42.55C253.39 42.0833 252.465 41.8417 251.232 41.825L247.807 41.775V47.625L251.232 47.675ZM8.25 79.125C7.1 79.125 6.06667 78.8667 5.15 78.35C4.23333 77.8167 3.50833 77.05 2.975 76.05C2.44167 75.05 2.175 73.8417 2.175 72.425C2.175 70.9917 2.44167 69.7833 2.975 68.8C3.525 67.8 4.25833 67.0417 5.175 66.525C6.09167 66.0083 7.11667 65.75 8.25 65.75C9.5 65.75 10.6167 66.0333 11.6 66.6C12.6 67.15 13.3833 67.925 13.95 68.925C14.5167 69.925 14.8 71.0917 14.8 72.425C14.8 73.7417 14.5167 74.9083 13.95 75.925C13.3833 76.925 12.6 77.7083 11.6 78.275C10.6167 78.8417 9.5 79.125 8.25 79.125ZM1.475 79V60.45H3.25V69.75L3 72.4L3.175 75.05V79H1.475ZM8.125 77.55C9.05833 77.55 9.89167 77.3417 10.625 76.925C11.3583 76.4917 11.9417 75.8917 12.375 75.125C12.8083 74.3417 13.025 73.4417 13.025 72.425C13.025 71.3917 12.8083 70.4917 12.375 69.725C11.9417 68.9583 11.3583 68.3667 10.625 67.95C9.89167 67.5167 9.05833 67.3 8.125 67.3C7.19167 67.3 6.35 67.5167 5.6 67.95C4.86667 68.3667 4.28333 68.9583 3.85 69.725C3.43333 70.4917 3.225 71.3917 3.225 72.425C3.225 73.4417 3.43333 74.3417 3.85 75.125C4.28333 75.8917 4.86667 76.4917 5.6 76.925C6.35 77.3417 7.19167 77.55 8.125 77.55ZM17.6875 73V71.45H24.2375V73H17.6875ZM34.8014 79V65.875H36.6014L42.5514 75.95H41.8014L47.8514 65.875H49.5014V79H47.8764V67.9L48.2014 68.05L42.5514 77.4H41.7514L36.0514 67.95L36.4264 67.875V79H34.8014ZM62.7023 79V76.1L62.6273 75.625V70.775C62.6273 69.6583 62.3107 68.8 61.6773 68.2C61.0607 67.6 60.1357 67.3 58.9023 67.3C58.0523 67.3 57.244 67.4417 56.4773 67.725C55.7107 68.0083 55.0607 68.3833 54.5273 68.85L53.7273 67.525C54.394 66.9583 55.194 66.525 56.1273 66.225C57.0607 65.9083 58.044 65.75 59.0773 65.75C60.7773 65.75 62.0857 66.175 63.0023 67.025C63.9357 67.8583 64.4023 69.1333 64.4023 70.85V79H62.7023ZM58.1773 79.125C57.194 79.125 56.3357 78.9667 55.6023 78.65C54.8857 78.3167 54.3357 77.8667 53.9523 77.3C53.569 76.7167 53.3773 76.05 53.3773 75.3C53.3773 74.6167 53.5357 74 53.8523 73.45C54.1857 72.8833 54.719 72.4333 55.4523 72.1C56.2023 71.75 57.2023 71.575 58.4523 71.575H62.9773V72.9H58.5023C57.2357 72.9 56.3523 73.125 55.8523 73.575C55.369 74.025 55.1273 74.5833 55.1273 75.25C55.1273 76 55.419 76.6 56.0023 77.05C56.5857 77.5 57.4023 77.725 58.4523 77.725C59.4523 77.725 60.3107 77.5 61.0273 77.05C61.7607 76.5833 62.294 75.9167 62.6273 75.05L63.0273 76.275C62.694 77.1417 62.1107 77.8333 61.2773 78.35C60.4607 78.8667 59.4273 79.125 58.1773 79.125ZM66.7275 78.975L66.8525 77.45C66.9692 77.4667 67.0775 77.4917 67.1775 77.525C67.2942 77.5417 67.3942 77.55 67.4775 77.55C68.0109 77.55 68.4359 77.35 68.7525 76.95C69.0859 76.55 69.3359 76.0167 69.5025 75.35C69.6692 74.6833 69.7859 73.9333 69.8525 73.1C69.9192 72.25 69.9775 71.4 70.0275 70.55L70.2525 65.875H79.8775V79H78.1025V66.9L78.5525 67.425H71.4025L71.8275 66.875L71.6275 70.675C71.5775 71.8083 71.4859 72.8917 71.3525 73.925C71.2359 74.9583 71.0442 75.8667 70.7775 76.65C70.5275 77.4333 70.1775 78.05 69.7275 78.5C69.2775 78.9333 68.7025 79.15 68.0025 79.15C67.8025 79.15 67.5942 79.1333 67.3775 79.1C67.1775 79.0667 66.9609 79.025 66.7275 78.975ZM93.0734 79V76.1L92.9984 75.625V70.775C92.9984 69.6583 92.6818 68.8 92.0484 68.2C91.4318 67.6 90.5068 67.3 89.2734 67.3C88.4234 67.3 87.6151 67.4417 86.8484 67.725C86.0818 68.0083 85.4318 68.3833 84.8984 68.85L84.0984 67.525C84.7651 66.9583 85.5651 66.525 86.4984 66.225C87.4318 65.9083 88.4151 65.75 89.4484 65.75C91.1484 65.75 92.4568 66.175 93.3734 67.025C94.3068 67.8583 94.7734 69.1333 94.7734 70.85V79H93.0734ZM88.5484 79.125C87.5651 79.125 86.7068 78.9667 85.9734 78.65C85.2568 78.3167 84.7068 77.8667 84.3234 77.3C83.9401 76.7167 83.7484 76.05 83.7484 75.3C83.7484 74.6167 83.9068 74 84.2234 73.45C84.5568 72.8833 85.0901 72.4333 85.8234 72.1C86.5734 71.75 87.5734 71.575 88.8234 71.575H93.3484V72.9H88.8734C87.6068 72.9 86.7234 73.125 86.2234 73.575C85.7401 74.025 85.4984 74.5833 85.4984 75.25C85.4984 76 85.7901 76.6 86.3734 77.05C86.9568 77.5 87.7734 77.725 88.8234 77.725C89.8234 77.725 90.6818 77.5 91.3984 77.05C92.1318 76.5833 92.6651 75.9167 92.9984 75.05L93.3984 76.275C93.0651 77.1417 92.4818 77.8333 91.6484 78.35C90.8318 78.8667 89.7984 79.125 88.5484 79.125ZM107.974 79V74.275L108.299 74.65H103.849C102.165 74.65 100.849 74.2833 99.8986 73.55C98.9486 72.8167 98.4736 71.75 98.4736 70.35C98.4736 68.85 98.982 67.7333 99.9986 67C101.015 66.25 102.374 65.875 104.074 65.875H109.599V79H107.974ZM98.3736 79L101.974 73.95H103.824L100.299 79H98.3736ZM107.974 73.75V66.9L108.299 67.425H104.124C102.907 67.425 101.957 67.6583 101.274 68.125C100.607 68.5917 100.274 69.35 100.274 70.4C100.274 72.35 101.515 73.325 103.999 73.325H108.299L107.974 73.75ZM121.203 79V65.875H133.003V79H131.228V66.95L131.678 67.425H122.528L122.978 66.95V79H121.203ZM143.448 79.125C142.182 79.125 141.04 78.8417 140.023 78.275C139.023 77.6917 138.232 76.9 137.648 75.9C137.065 74.8833 136.773 73.725 136.773 72.425C136.773 71.1083 137.065 69.95 137.648 68.95C138.232 67.95 139.023 67.1667 140.023 66.6C141.023 66.0333 142.165 65.75 143.448 65.75C144.748 65.75 145.898 66.0333 146.898 66.6C147.915 67.1667 148.707 67.95 149.273 68.95C149.857 69.95 150.148 71.1083 150.148 72.425C150.148 73.725 149.857 74.8833 149.273 75.9C148.707 76.9 147.915 77.6917 146.898 78.275C145.882 78.8417 144.732 79.125 143.448 79.125ZM143.448 77.55C144.398 77.55 145.24 77.3417 145.973 76.925C146.707 76.4917 147.282 75.8917 147.698 75.125C148.132 74.3417 148.348 73.4417 148.348 72.425C148.348 71.3917 148.132 70.4917 147.698 69.725C147.282 68.9583 146.707 68.3667 145.973 67.95C145.24 67.5167 144.407 67.3 143.473 67.3C142.54 67.3 141.707 67.5167 140.973 67.95C140.24 68.3667 139.657 68.9583 139.223 69.725C138.79 70.4917 138.573 71.3917 138.573 72.425C138.573 73.4417 138.79 74.3417 139.223 75.125C139.657 75.8917 140.24 76.4917 140.973 76.925C141.707 77.3417 142.532 77.55 143.448 77.55ZM151.469 78.975L151.594 77.45C151.71 77.4667 151.819 77.4917 151.919 77.525C152.035 77.5417 152.135 77.55 152.219 77.55C152.752 77.55 153.177 77.35 153.494 76.95C153.827 76.55 154.077 76.0167 154.244 75.35C154.41 74.6833 154.527 73.9333 154.594 73.1C154.66 72.25 154.719 71.4 154.769 70.55L154.994 65.875H164.619V79H162.844V66.9L163.294 67.425H156.144L156.569 66.875L156.369 70.675C156.319 71.8083 156.227 72.8917 156.094 73.925C155.977 74.9583 155.785 75.8667 155.519 76.65C155.269 77.4333 154.919 78.05 154.469 78.5C154.019 78.9333 153.444 79.15 152.744 79.15C152.544 79.15 152.335 79.1333 152.119 79.1C151.919 79.0667 151.702 79.025 151.469 78.975ZM169.89 83.975C169.273 83.975 168.681 83.875 168.115 83.675C167.565 83.475 167.09 83.175 166.69 82.775L167.515 81.45C167.848 81.7667 168.206 82.0083 168.59 82.175C168.99 82.3583 169.431 82.45 169.915 82.45C170.498 82.45 170.998 82.2833 171.415 81.95C171.848 81.6333 172.256 81.0667 172.64 80.25L173.49 78.325L173.69 78.05L179.09 65.875H180.84L174.265 80.575C173.898 81.425 173.49 82.1 173.04 82.6C172.606 83.1 172.131 83.45 171.615 83.65C171.098 83.8667 170.523 83.975 169.89 83.975ZM173.39 79.375L167.34 65.875H169.19L174.54 77.925L173.39 79.375ZM188.639 79.125C187.372 79.125 186.231 78.8417 185.214 78.275C184.214 77.6917 183.422 76.9 182.839 75.9C182.256 74.8833 181.964 73.725 181.964 72.425C181.964 71.1083 182.256 69.95 182.839 68.95C183.422 67.95 184.214 67.1667 185.214 66.6C186.214 66.0333 187.356 65.75 188.639 65.75C189.939 65.75 191.089 66.0333 192.089 66.6C193.106 67.1667 193.897 67.95 194.464 68.95C195.047 69.95 195.339 71.1083 195.339 72.425C195.339 73.725 195.047 74.8833 194.464 75.9C193.897 76.9 193.106 77.6917 192.089 78.275C191.072 78.8417 189.922 79.125 188.639 79.125ZM188.639 77.55C189.589 77.55 190.431 77.3417 191.164 76.925C191.897 76.4917 192.472 75.8917 192.889 75.125C193.322 74.3417 193.539 73.4417 193.539 72.425C193.539 71.3917 193.322 70.4917 192.889 69.725C192.472 68.9583 191.897 68.3667 191.164 67.95C190.431 67.5167 189.597 67.3 188.664 67.3C187.731 67.3 186.897 67.5167 186.164 67.95C185.431 68.3667 184.847 68.9583 184.414 69.725C183.981 70.4917 183.764 71.3917 183.764 72.425C183.764 73.4417 183.981 74.3417 184.414 75.125C184.847 75.8917 185.431 76.4917 186.164 76.925C186.897 77.3417 187.722 77.55 188.639 77.55ZM204.632 79.125C203.332 79.125 202.166 78.8417 201.132 78.275C200.116 77.6917 199.316 76.9 198.732 75.9C198.149 74.8833 197.857 73.725 197.857 72.425C197.857 71.1083 198.149 69.95 198.732 68.95C199.316 67.95 200.116 67.1667 201.132 66.6C202.166 66.0333 203.332 65.75 204.632 65.75C205.749 65.75 206.757 65.9667 207.657 66.4C208.557 66.8333 209.266 67.4833 209.782 68.35L208.457 69.25C208.007 68.5833 207.449 68.0917 206.782 67.775C206.116 67.4583 205.391 67.3 204.607 67.3C203.674 67.3 202.832 67.5167 202.082 67.95C201.332 68.3667 200.741 68.9583 200.307 69.725C199.874 70.4917 199.657 71.3917 199.657 72.425C199.657 73.4583 199.874 74.3583 200.307 75.125C200.741 75.8917 201.332 76.4917 202.082 76.925C202.832 77.3417 203.674 77.55 204.607 77.55C205.391 77.55 206.116 77.3917 206.782 77.075C207.449 76.7583 208.007 76.275 208.457 75.625L209.782 76.525C209.266 77.375 208.557 78.025 207.657 78.475C206.757 78.9083 205.749 79.125 204.632 79.125ZM218.869 70.5C220.519 70.5167 221.769 70.8833 222.619 71.6C223.486 72.3167 223.919 73.35 223.919 74.7C223.919 76.1 223.453 77.175 222.519 77.925C221.603 78.675 220.269 79.0417 218.519 79.025L213.219 79V65.875H214.994V70.45L218.869 70.5ZM218.419 77.675C219.636 77.6917 220.553 77.45 221.169 76.95C221.803 76.4333 222.119 75.6833 222.119 74.7C222.119 73.7167 221.811 73 221.194 72.55C220.578 72.0833 219.653 71.8417 218.419 71.825L214.994 71.775V77.625L218.419 77.675Z" fill="white"/>
</svg>
