<svg width="281" height="145" viewBox="0 0 281 145" fill="none" xmlns="http://www.w3.org/2000/svg">
<path d="M10.6484 73.3285H32.5369V77.1163H10.6484V73.3285ZM11.1217 94.6938H6.74402V53.2653H35.1398V57.053H11.1217V94.6938ZM40.5417 75.3408V72.7219H59.8419V75.3408H40.5417ZM40.5417 85.5943V82.9755H59.8419V85.5943H40.5417ZM87.8619 95.0489C84.7067 95.0489 81.7883 94.536 79.1065 93.5102C76.4641 92.4449 74.157 90.9653 72.1851 89.0714C70.2525 87.1775 68.7341 84.9482 67.6299 82.3836C66.5651 79.8191 66.0327 77.0176 66.0327 73.9795C66.0327 70.9415 66.5651 68.14 67.6299 65.5755C68.7341 63.0109 70.2722 60.7816 72.2442 58.8877C74.2161 56.9938 76.5233 55.5339 79.1657 54.5081C81.8475 53.4428 84.7659 52.9102 87.9211 52.9102C91.0761 52.9102 93.9552 53.4033 96.5581 54.3897C99.2004 55.3762 101.448 56.8755 103.302 58.8877L100.581 61.6693C98.8455 59.9333 96.9327 58.6905 94.8426 57.9408C92.7522 57.1911 90.5042 56.8163 88.0985 56.8163C85.5349 56.8163 83.1686 57.2502 80.9996 58.1183C78.8699 58.9469 76.9965 60.1502 75.3796 61.7285C73.802 63.2673 72.5597 65.0823 71.6526 67.1734C70.785 69.2252 70.3512 71.4938 70.3512 73.9795C70.3512 76.4258 70.785 78.6946 71.6526 80.7857C72.5597 82.8768 73.802 84.7115 75.3796 86.2898C76.9965 87.8285 78.8699 89.0319 80.9996 89.9C83.1686 90.7285 85.5153 91.1428 88.0394 91.1428C90.4057 91.1428 92.6339 90.7877 94.7242 90.0775C96.8539 89.3673 98.8061 88.1639 100.581 86.4673L103.066 89.7816C101.093 91.5176 98.7863 92.8395 96.144 93.7469C93.5016 94.615 90.7408 95.0489 87.8619 95.0489ZM98.8653 89.2489V73.9795H103.066V89.7816L98.8653 89.2489Z" fill="white"/>
<path d="M170.375 26.3367C172.899 26.3367 175.088 26.8298 176.941 27.8163C178.834 28.7632 180.294 30.2231 181.319 32.1959C182.384 34.1686 182.916 36.6543 182.916 39.653V57.704H178.716V40.0673C178.716 36.7925 177.928 34.3265 176.35 32.6693C174.812 30.9727 172.623 30.1244 169.783 30.1244C167.653 30.1244 165.8 30.5782 164.222 31.4857C162.684 32.3537 161.482 33.6359 160.614 35.3326C159.785 36.9897 159.371 39.002 159.371 41.3693V57.704H155.171V40.0673C155.171 36.7925 154.383 34.3265 152.805 32.6693C151.227 30.9727 149.019 30.1244 146.179 30.1244C144.089 30.1244 142.255 30.5782 140.677 31.4857C139.1 32.3537 137.877 33.6359 137.01 35.3326C136.181 36.9897 135.767 39.002 135.767 41.3693V57.704H131.567V26.6326H135.59V35.0367L134.939 33.5571C135.886 31.3081 137.404 29.5523 139.494 28.2897C141.624 26.9877 144.128 26.3367 147.007 26.3367C150.044 26.3367 152.627 27.1061 154.757 28.6448C156.887 30.1441 158.267 32.4129 158.898 35.451L157.242 34.7999C158.148 32.2747 159.746 30.2428 162.033 28.704C164.36 27.1257 167.14 26.3367 170.375 26.3367ZM192.31 57.704V42.8341L193.02 43.5887H188.65V42.1683H193.908V57.704H192.31ZM241.131 26.3367C243.654 26.3367 245.842 26.8298 247.697 27.8163C249.59 28.7632 251.048 30.2231 252.075 32.1959C253.14 34.1686 253.672 36.6543 253.672 39.653V57.704H249.472V40.0673C249.472 36.7925 248.682 34.3265 247.105 32.6693C245.567 30.9727 243.379 30.1244 240.539 30.1244C238.409 30.1244 236.555 30.5782 234.978 31.4857C233.44 32.3537 232.236 33.6359 231.369 35.3326C230.541 36.9897 230.127 39.002 230.127 41.3693V57.704H225.927V40.0673C225.927 36.7925 225.137 34.3265 223.561 32.6693C221.983 30.9727 219.775 30.1244 216.935 30.1244C214.844 30.1244 213.01 30.5782 211.433 31.4857C209.855 32.3537 208.632 33.6359 207.765 35.3326C206.937 36.9897 206.523 39.002 206.523 41.3693V57.704H202.323V26.6326H206.346V35.0367L205.695 33.5571C206.641 31.3081 208.159 29.5523 210.25 28.2897C212.38 26.9877 214.884 26.3367 217.763 26.3367C220.799 26.3367 223.383 27.1061 225.513 28.6448C227.643 30.1441 229.022 32.4129 229.654 35.451L227.997 34.7999C228.904 32.2747 230.501 30.2428 232.789 28.704C235.116 27.1257 237.896 26.3367 241.131 26.3367ZM260.071 57.704V56.5721L266.527 50.2469C267.119 49.6698 267.562 49.1668 267.858 48.7377C268.154 48.2938 268.354 47.8795 268.457 47.4948C268.561 47.1101 268.612 46.7476 268.612 46.4073C268.612 45.5048 268.302 44.7946 267.681 44.2767C267.074 43.7589 266.172 43.4999 264.974 43.4999C264.057 43.4999 263.244 43.6405 262.534 43.9216C261.839 44.2027 261.24 44.6392 260.737 45.2311L259.606 44.2545C260.212 43.5443 260.988 42.9969 261.935 42.6122C262.881 42.2275 263.939 42.0351 265.107 42.0351C266.157 42.0351 267.067 42.2053 267.836 42.5456C268.605 42.8711 269.197 43.352 269.611 43.9882C270.04 44.6244 270.254 45.3716 270.254 46.2298C270.254 46.7328 270.18 47.2285 270.032 47.7168C269.899 48.205 269.648 48.7229 269.278 49.2703C268.923 49.803 268.398 50.4096 267.703 51.0902L261.78 56.905L261.336 56.2836H270.964V57.704H260.071Z" fill="white"/>
<path d="M128.665 73.9795H279.524" stroke="white"/>
<path d="M196.641 130.204V99.1326H200.664V107.596L200.249 106.116C201.118 103.749 202.576 101.954 204.627 100.731C206.678 99.468 209.222 98.8367 212.259 98.8367V102.92C212.1 102.92 211.944 102.92 211.785 102.92C211.627 102.881 211.47 102.861 211.312 102.861C208.039 102.861 205.475 103.867 203.621 105.88C201.768 107.852 200.841 110.673 200.841 114.343V130.204H196.641Z" fill="white"/>
<path d="M216.791 102.092V100.96L223.247 94.6346C223.839 94.0575 224.282 93.5545 224.578 93.1254C224.874 92.6815 225.074 92.2672 225.177 91.8825C225.281 91.4978 225.332 91.1354 225.332 90.795C225.332 89.8925 225.022 89.1823 224.401 88.6644C223.794 88.1466 222.892 87.8876 221.694 87.8876C220.777 87.8876 219.964 88.0282 219.254 88.3093C218.559 88.5905 217.96 89.0269 217.457 89.6188L216.326 88.6422C216.932 87.932 217.708 87.3846 218.655 86.9999C219.601 86.6152 220.659 86.4229 221.827 86.4229C222.877 86.4229 223.787 86.593 224.556 86.9333C225.325 87.2588 225.917 87.7397 226.331 88.3759C226.76 89.0121 226.974 89.7593 226.974 90.6175C226.974 91.1206 226.9 91.6162 226.752 92.1045C226.619 92.5927 226.368 93.1106 225.998 93.6581C225.643 94.1907 225.118 94.7973 224.423 95.478L218.5 101.293L218.056 100.671H227.684V102.092H216.791Z" fill="white"/>
</svg>
