<svg width="175" height="107" viewBox="0 0 175 107" fill="none" xmlns="http://www.w3.org/2000/svg">
<path d="M27.4023 51V25.56H17.5623V23H40.2023V25.56H30.3623V51H27.4023ZM43.8511 51V37.6L44.4911 38.28H40.5511V37H45.2911V51H43.8511Z" fill="white"/>
<path d="M27.332 97V71.56H17.492V69H40.132V71.56H30.292V97H27.332ZM41.0808 97V95.98L46.9008 90.28C47.4341 89.76 47.8341 89.3067 48.1008 88.92C48.3674 88.52 48.5474 88.1467 48.6408 87.8C48.7341 87.4533 48.7808 87.1267 48.7808 86.82C48.7808 86.0067 48.5008 85.3667 47.9408 84.9C47.3941 84.4333 46.5808 84.2 45.5008 84.2C44.6741 84.2 43.9408 84.3267 43.3008 84.58C42.6741 84.8333 42.1341 85.2267 41.6808 85.76L40.6608 84.88C41.2074 84.24 41.9074 83.7467 42.7608 83.4C43.6141 83.0533 44.5674 82.88 45.6208 82.88C46.5674 82.88 47.3874 83.0333 48.0808 83.34C48.7741 83.6333 49.3074 84.0667 49.6808 84.64C50.0674 85.2133 50.2608 85.8867 50.2608 86.66C50.2608 87.1133 50.1941 87.56 50.0608 88C49.9408 88.44 49.7141 88.9067 49.3808 89.4C49.0608 89.88 48.5874 90.4267 47.9608 91.04L42.6208 96.28L42.2208 95.72H50.9008V97H41.0808Z" fill="white"/>
<path d="M134.21 50V45.36L134.09 44.6V36.84C134.09 35.0533 133.583 33.68 132.57 32.72C131.583 31.76 130.103 31.28 128.13 31.28C126.77 31.28 125.477 31.5067 124.25 31.96C123.023 32.4133 121.983 33.0133 121.13 33.76L119.85 31.64C120.917 30.7333 122.197 30.04 123.69 29.56C125.183 29.0533 126.757 28.8 128.41 28.8C131.13 28.8 133.223 29.48 134.69 30.84C136.183 32.1733 136.93 34.2133 136.93 36.96V50H134.21ZM126.97 50.2C125.397 50.2 124.023 49.9467 122.85 49.44C121.703 48.9067 120.823 48.1867 120.21 47.28C119.597 46.3467 119.29 45.28 119.29 44.08C119.29 42.9867 119.543 42 120.05 41.12C120.583 40.2133 121.437 39.4933 122.61 38.96C123.81 38.4 125.41 38.12 127.41 38.12H134.65V40.24H127.49C125.463 40.24 124.05 40.6 123.25 41.32C122.477 42.04 122.09 42.9333 122.09 44C122.09 45.2 122.557 46.16 123.49 46.88C124.423 47.6 125.73 47.96 127.41 47.96C129.01 47.96 130.383 47.6 131.53 46.88C132.703 46.1333 133.557 45.0667 134.09 43.68L134.73 45.64C134.197 47.0267 133.263 48.1333 131.93 48.96C130.623 49.7867 128.97 50.2 126.97 50.2ZM144.164 50V36.6L144.804 37.28H140.864V36H145.604V50H144.164Z" fill="white"/>
<path d="M134.14 90V85.36L134.02 84.6V76.84C134.02 75.0533 133.513 73.68 132.5 72.72C131.513 71.76 130.033 71.28 128.06 71.28C126.7 71.28 125.406 71.5067 124.18 71.96C122.953 72.4133 121.913 73.0133 121.06 73.76L119.78 71.64C120.846 70.7333 122.126 70.04 123.62 69.56C125.113 69.0533 126.686 68.8 128.34 68.8C131.06 68.8 133.153 69.48 134.62 70.84C136.113 72.1733 136.86 74.2133 136.86 76.96V90H134.14ZM126.9 90.2C125.326 90.2 123.953 89.9467 122.78 89.44C121.633 88.9067 120.753 88.1867 120.14 87.28C119.526 86.3467 119.22 85.28 119.22 84.08C119.22 82.9867 119.473 82 119.98 81.12C120.513 80.2133 121.366 79.4933 122.54 78.96C123.74 78.4 125.34 78.12 127.34 78.12H134.58V80.24H127.42C125.393 80.24 123.98 80.6 123.18 81.32C122.406 82.04 122.02 82.9333 122.02 84C122.02 85.2 122.486 86.16 123.42 86.88C124.353 87.6 125.66 87.96 127.34 87.96C128.94 87.96 130.313 87.6 131.46 86.88C132.633 86.1333 133.486 85.0667 134.02 83.68L134.66 85.64C134.126 87.0267 133.193 88.1333 131.86 88.96C130.553 89.7867 128.9 90.2 126.9 90.2ZM141.393 90V88.98L147.213 83.28C147.747 82.76 148.147 82.3067 148.413 81.92C148.68 81.52 148.86 81.1467 148.953 80.8C149.047 80.4533 149.093 80.1267 149.093 79.82C149.093 79.0067 148.813 78.3667 148.253 77.9C147.707 77.4333 146.893 77.2 145.813 77.2C144.987 77.2 144.253 77.3267 143.613 77.58C142.987 77.8333 142.447 78.2267 141.993 78.76L140.973 77.88C141.52 77.24 142.22 76.7467 143.073 76.4C143.927 76.0533 144.88 75.88 145.933 75.88C146.88 75.88 147.7 76.0333 148.393 76.34C149.087 76.6333 149.62 77.0667 149.993 77.64C150.38 78.2133 150.573 78.8867 150.573 79.66C150.573 80.1133 150.507 80.56 150.373 81C150.253 81.44 150.027 81.9067 149.693 82.4C149.373 82.88 148.9 83.4267 148.273 84.04L142.933 89.28L142.533 88.72H151.213V90H141.393Z" fill="white"/>
<line x1="14" y1="57" x2="59" y2="57" stroke="white" stroke-width="2"/>
<line x1="112" y1="56" x2="157" y2="56" stroke="white" stroke-width="2"/>
<path d="M77.2961 53.56V51.2H94.6961V53.56H77.2961ZM77.2961 62.8V60.44H94.6961V62.8H77.2961Z" fill="white"/>
<path d="M10.9387 19C3.43873 32.8333 -7.06127 67.8 10.9387 97" stroke="white" stroke-width="2" stroke-linecap="round"/>
<path d="M58 19C65.5 32.8333 76 67.8 58 97" stroke="white" stroke-width="2" stroke-linecap="round"/>
<path d="M155 19C162.5 32.8333 173 67.8 155 97" stroke="white" stroke-width="2" stroke-linecap="round"/>
<path d="M113.939 19C106.439 32.8333 95.9387 67.8 113.939 97" stroke="white" stroke-width="2" stroke-linecap="round"/>
<path d="M64.0964 19V17.98L69.9164 12.28C70.4497 11.76 70.8497 11.3067 71.1164 10.92C71.3831 10.52 71.5631 10.1467 71.6564 9.8C71.7497 9.45333 71.7964 9.12667 71.7964 8.82C71.7964 8.00667 71.5164 7.36667 70.9564 6.9C70.4097 6.43333 69.5964 6.2 68.5164 6.2C67.6897 6.2 66.9564 6.32667 66.3164 6.58C65.6897 6.83333 65.1497 7.22667 64.6964 7.76L63.6764 6.88C64.2231 6.24 64.9231 5.74667 65.7764 5.4C66.6297 5.05333 67.5831 4.88 68.6364 4.88C69.5831 4.88 70.4031 5.03333 71.0964 5.34C71.7897 5.63333 72.3231 6.06667 72.6964 6.64C73.0831 7.21333 73.2764 7.88667 73.2764 8.66C73.2764 9.11333 73.2097 9.56 73.0764 10C72.9564 10.44 72.7297 10.9067 72.3964 11.4C72.0764 11.88 71.6031 12.4267 70.9764 13.04L65.6364 18.28L65.2364 17.72H73.9164V19H64.0964Z" fill="white"/>
<path d="M168.575 19.12C167.562 19.12 166.602 18.96 165.695 18.64C164.802 18.3067 164.082 17.8667 163.535 17.32L164.235 16.18C164.689 16.6467 165.295 17.0333 166.055 17.34C166.829 17.6467 167.669 17.8 168.575 17.8C169.735 17.8 170.622 17.5467 171.235 17.04C171.862 16.5333 172.175 15.8533 172.175 15C172.175 14.1467 171.869 13.4667 171.255 12.96C170.655 12.4533 169.702 12.2 168.395 12.2H167.395V11.14L171.715 5.72L171.915 6.28H164.115V5H173.115V6.02L168.795 11.44L168.095 10.98H168.635C170.315 10.98 171.569 11.3533 172.395 12.1C173.235 12.8467 173.655 13.8067 173.655 14.98C173.655 15.7667 173.469 16.4733 173.095 17.1C172.722 17.7267 172.155 18.22 171.395 18.58C170.649 18.94 169.709 19.12 168.575 19.12Z" fill="white"/>
</svg>
