<svg width="656" height="655" viewBox="0 0 656 655" fill="none" xmlns="http://www.w3.org/2000/svg">
<path d="M568.674 169.411C565.514 169.411 562.574 168.891 559.854 167.851C557.174 166.771 554.834 165.271 552.834 163.351C550.874 161.391 549.334 159.131 548.214 156.571C547.134 153.971 546.594 151.131 546.594 148.051C546.594 144.971 547.134 142.151 548.214 139.591C549.334 136.991 550.874 134.731 552.834 132.811C554.834 130.851 557.174 129.351 559.854 128.311C562.534 127.231 565.474 126.691 568.674 126.691C571.834 126.691 574.754 127.231 577.434 128.311C580.114 129.351 582.434 130.831 584.394 132.751C586.394 134.671 587.934 136.931 589.014 139.531C590.134 142.131 590.694 144.971 590.694 148.051C590.694 151.131 590.134 153.971 589.014 156.571C587.934 159.171 586.394 161.431 584.394 163.351C582.434 165.271 580.114 166.771 577.434 167.851C574.754 168.891 571.834 169.411 568.674 169.411ZM582.414 177.391C581.134 177.391 579.894 177.231 578.694 176.911C577.494 176.591 576.274 176.071 575.034 175.351C573.834 174.671 572.594 173.771 571.314 172.651C570.034 171.531 568.634 170.171 567.114 168.571L571.974 167.371C573.214 168.851 574.414 170.071 575.574 171.031C576.774 171.991 577.934 172.691 579.054 173.131C580.214 173.611 581.354 173.851 582.474 173.851C585.594 173.851 588.254 172.571 590.454 170.011L592.614 172.591C589.974 175.791 586.574 177.391 582.414 177.391ZM568.674 165.451C571.194 165.451 573.514 165.031 575.634 164.191C577.794 163.311 579.654 162.071 581.214 160.471C582.814 158.871 584.054 157.031 584.934 154.951C585.814 152.831 586.254 150.531 586.254 148.051C586.254 145.531 585.814 143.231 584.934 141.151C584.054 139.031 582.814 137.191 581.214 135.631C579.654 134.031 577.794 132.811 575.634 131.971C573.514 131.091 571.194 130.651 568.674 130.651C566.154 130.651 563.814 131.091 561.654 131.971C559.494 132.811 557.614 134.031 556.014 135.631C554.454 137.191 553.214 139.031 552.294 141.151C551.414 143.231 550.974 145.531 550.974 148.051C550.974 150.531 551.414 152.831 552.294 154.951C553.214 157.031 554.454 158.871 556.014 160.471C557.614 162.071 559.494 163.311 561.654 164.191C563.814 165.031 566.154 165.451 568.674 165.451Z" fill="white"/>
<line x1="151.229" y1="484.339" x2="514.299" y2="190.621" stroke="white" stroke-opacity="0.6" stroke-width="3" stroke-dasharray="6 6"/>
<path d="M181.474 162.051C33.9736 312.551 326.974 625.551 488.974 514.551" stroke="white" stroke-opacity="0.6" stroke-width="3" stroke-dasharray="6 6"/>
<path d="M515.474 192.551L514.974 198.551L508.581 209.863L495.515 228.397L490.474 234.051L484.474 239.551L461.474 261.051L340.473 337.051L340.473 334.551L515.474 192.551Z" fill="#31DD75" fill-opacity="0.3"/>
<path d="M515.474 192.551L514.974 198.551L508.581 209.863L495.515 228.397L490.474 234.051L484.474 239.551L461.474 261.051L340.473 337.051L340.473 334.551L515.474 192.551Z" fill="#31DD75" fill-opacity="0.3"/>
<path d="M463.473 264.051C482.473 289.051 571.973 419.051 489.973 514.551" stroke="white" stroke-width="2"/>
<path d="M377.473 182.051C395.307 190.718 437.173 218.951 461.973 262.551" stroke="#0E90D9" stroke-width="2"/>
<path d="M335.973 571.551C465.208 571.551 569.973 466.786 569.973 337.551C569.973 208.317 465.208 103.551 335.973 103.551C206.739 103.551 101.973 208.317 101.973 337.551C101.973 466.786 206.739 571.551 335.973 571.551Z" stroke="white" stroke-width="5"/>
<path d="M182.973 161.051C215.973 141.552 308.473 127.551 385.973 186.552" stroke="#5745C1" stroke-width="2"/>
<path d="M313.993 75.0513L314.593 71.9913L350.833 35.2113L351.193 36.8913H322.093L322.873 33.0513H356.173L355.573 36.1113L319.273 72.8913L318.973 71.2113H349.213L348.433 75.0513H313.993Z" fill="white"/>
<path d="M313.993 639.051L314.593 635.991L350.833 599.211L351.193 600.891H322.093L322.873 597.051H356.173L355.573 600.111L319.273 636.891L318.973 635.211H349.213L348.433 639.051H313.993ZM360.155 612.891L362.975 597.051H366.755L363.335 612.891H360.155Z" fill="white"/>
<line x1="377.444" y1="182.294" x2="338.444" y2="338.294" stroke="#0E90D9" stroke-width="2"/>
<line x1="336.973" y1="99.0513" x2="336.973" y2="572.051" stroke="white" stroke-opacity="0.6" stroke-width="3" stroke-dasharray="6 6"/>
<line x1="184.612" y1="162.075" x2="490.612" y2="519.075" stroke="white" stroke-opacity="0.6" stroke-width="3" stroke-dasharray="6 6"/>
<circle cx="336.973" cy="105.551" r="6.5" fill="#D9D9D9"/>
<circle cx="336.973" cy="571.551" r="6.5" fill="#D9D9D9"/>
<circle cx="488.973" cy="513.551" r="6.5" fill="#D9D9D9"/>
<path d="M64.9134 363.411C61.7534 363.411 58.8334 362.891 56.1534 361.851C53.4734 360.771 51.1534 359.271 49.1934 357.351C47.2334 355.431 45.6934 353.171 44.5734 350.571C43.4934 347.971 42.9534 345.131 42.9534 342.051C42.9534 338.971 43.4934 336.131 44.5734 333.531C45.6934 330.931 47.2334 328.671 49.1934 326.751C51.1934 324.831 53.5334 323.351 56.2134 322.311C58.8934 321.231 61.8134 320.691 64.9734 320.691C68.0134 320.691 70.8734 321.211 73.5534 322.251C76.2334 323.251 78.4934 324.771 80.3334 326.811L77.5134 329.631C75.7934 327.871 73.8934 326.611 71.8134 325.851C69.7334 325.051 67.4934 324.651 65.0934 324.651C62.5734 324.651 60.2334 325.091 58.0734 325.971C55.9134 326.811 54.0334 328.031 52.4334 329.631C50.8334 331.191 49.5734 333.031 48.6534 335.151C47.7734 337.231 47.3334 339.531 47.3334 342.051C47.3334 344.571 47.7734 346.891 48.6534 349.011C49.5734 351.091 50.8334 352.931 52.4334 354.531C54.0334 356.091 55.9134 357.311 58.0734 358.191C60.2334 359.031 62.5734 359.451 65.0934 359.451C67.4934 359.451 69.7334 359.051 71.8134 358.251C73.8934 357.451 75.7934 356.171 77.5134 354.411L80.3334 357.231C78.4934 359.271 76.2334 360.811 73.5534 361.851C70.8734 362.891 67.9934 363.411 64.9134 363.411Z" fill="white"/>
<path d="M596.553 363.051V321.051H600.933V339.711H611.793V343.731H600.933V363.051H596.553ZM630.453 363.411C627.453 363.411 624.673 362.891 622.113 361.851C619.593 360.771 617.373 359.271 615.453 357.351C613.573 355.431 612.113 353.171 611.073 350.571C610.033 347.971 609.513 345.131 609.513 342.051C609.513 338.971 610.033 336.131 611.073 333.531C612.113 330.931 613.573 328.671 615.453 326.751C617.373 324.831 619.593 323.351 622.113 322.311C624.673 321.231 627.453 320.691 630.453 320.691C633.453 320.691 636.233 321.231 638.793 322.311C641.353 323.351 643.573 324.831 645.453 326.751C647.333 328.671 648.793 330.931 649.833 333.531C650.913 336.131 651.453 338.971 651.453 342.051C651.453 345.131 650.913 347.971 649.833 350.571C648.793 353.171 647.333 355.431 645.453 357.351C643.573 359.271 641.353 360.771 638.793 361.851C636.233 362.891 633.453 363.411 630.453 363.411ZM630.453 359.451C632.813 359.451 634.993 359.031 636.993 358.191C639.033 357.311 640.793 356.091 642.273 354.531C643.753 352.971 644.913 351.151 645.753 349.071C646.593 346.951 647.013 344.611 647.013 342.051C647.013 339.491 646.593 337.171 645.753 335.091C644.913 332.971 643.753 331.131 642.273 329.571C640.793 328.011 639.033 326.811 636.993 325.971C634.993 325.091 632.813 324.651 630.453 324.651C628.133 324.651 625.953 325.091 623.913 325.971C621.913 326.811 620.173 328.011 618.693 329.571C617.213 331.131 616.053 332.971 615.213 335.091C614.373 337.171 613.953 339.491 613.953 342.051C613.953 344.611 614.373 346.951 615.213 349.071C616.053 351.151 617.213 352.971 618.693 354.531C620.173 356.091 621.913 357.311 623.913 358.191C625.953 359.031 628.133 359.451 630.453 359.451Z" fill="white"/>
<path d="M353.41 359.92C452.982 279.719 525.949 205.08 516.387 193.209C506.825 181.337 418.355 236.728 318.783 316.928C219.211 397.128 146.243 471.767 155.805 483.639C165.368 495.511 253.838 440.12 353.41 359.92Z" stroke="white" stroke-width="3" stroke-dasharray="6 6"/>
<path d="M336.973 340.052L180.973 158.327L186.973 158.327L222.973 146.551L258.473 144.051L296.473 146.551L338.973 159.551L377.973 180.552L362.473 243.552L336.973 340.052Z" fill="#533DD6" fill-opacity="0.4"/>
<path d="M153.974 485.551C210.778 493.903 536.427 220.193 518.973 190.552" stroke="white" stroke-width="5"/>
<path d="M336.973 337.052L515.473 192.552C518.473 196.052 510.673 216.352 461.473 261.552" stroke="#1DAB56" stroke-width="2"/>
<path d="M378.116 181.451C378.288 180.777 379.095 180.5 379.672 180.917L396.474 193.051L410.974 203.551L425.974 217.551L439.474 231.051L452.417 246.483C452.455 246.529 452.488 246.577 452.518 246.628L460.99 261.217C461.26 261.684 461.116 262.27 460.663 262.547L407.474 295.051L340.128 337.202C339.362 337.682 338.378 336.968 338.601 336.095L378.116 181.451Z" fill="#137DB8" fill-opacity="0.4"/>
<path d="M327.542 354.506C327.542 357.574 326.988 360.226 325.88 362.46C324.772 364.695 323.252 366.419 321.32 367.631C319.388 368.843 317.182 369.449 314.701 369.449C312.22 369.449 310.013 368.843 308.082 367.631C306.15 366.419 304.63 364.695 303.522 362.46C302.414 360.226 301.86 357.574 301.86 354.506C301.86 351.438 302.414 348.786 303.522 346.551C304.63 344.316 306.15 342.593 308.082 341.381C310.013 340.169 312.22 339.563 314.701 339.563C317.182 339.563 319.388 340.169 321.32 341.381C323.252 342.593 324.772 344.316 325.88 346.551C326.988 348.786 327.542 351.438 327.542 354.506ZM324.133 354.506C324.133 351.987 323.711 349.861 322.869 348.128C322.035 346.395 320.904 345.083 319.474 344.193C318.053 343.303 316.462 342.858 314.701 342.858C312.94 342.858 311.344 343.303 309.914 344.193C308.494 345.083 307.362 346.395 306.519 348.128C305.686 349.861 305.269 351.987 305.269 354.506C305.269 357.025 305.686 359.151 306.519 360.884C307.362 362.617 308.494 363.928 309.914 364.818C311.344 365.708 312.94 366.154 314.701 366.154C316.462 366.154 318.053 365.708 319.474 364.818C320.904 363.928 322.035 362.617 322.869 360.884C323.711 359.151 324.133 357.025 324.133 354.506Z" fill="white"/>
<path d="M461.973 261.052L338.006 338.898" stroke="#0E90D9" stroke-width="2"/>
<circle cx="336.613" cy="336.191" r="6.5" transform="rotate(-38.8497 336.613 336.191)" fill="white"/>
<circle cx="181.973" cy="159.552" r="6.5" fill="#D9D9D9"/>
<circle cx="377.973" cy="183.552" r="13.5" fill="white"/>
<path d="M115.305 148.386L113.605 149.786C113.102 149.379 112.572 149.095 112.016 148.931C111.465 148.764 110.907 148.702 110.344 148.744C109.782 148.778 109.233 148.907 108.698 149.133C108.163 149.359 107.663 149.663 107.197 150.047C106.347 150.747 105.753 151.595 105.417 152.593C105.085 153.586 105.06 154.669 105.341 155.84C105.628 157.007 106.271 158.198 107.272 159.414C108.272 160.629 109.318 161.49 110.408 161.995C111.503 162.497 112.57 162.68 113.609 162.545C114.653 162.407 115.599 161.988 116.449 161.288C116.915 160.905 117.311 160.472 117.635 159.991C117.959 159.509 118.194 158.998 118.339 158.457C118.484 157.908 118.528 157.346 118.471 156.773C118.413 156.191 118.236 155.617 117.938 155.05L119.638 153.651C120.1 154.474 120.396 155.307 120.524 156.152C120.652 156.997 120.628 157.825 120.453 158.637C120.274 159.444 119.956 160.207 119.499 160.928C119.047 161.645 118.467 162.296 117.758 162.879C116.561 163.864 115.256 164.448 113.842 164.63C112.428 164.813 111.01 164.585 109.588 163.946C108.166 163.308 106.845 162.249 105.626 160.768C104.408 159.287 103.622 157.788 103.269 156.269C102.916 154.751 102.965 153.315 103.416 151.963C103.866 150.611 104.69 149.442 105.888 148.457C106.596 147.874 107.345 147.429 108.136 147.123C108.931 146.814 109.744 146.651 110.574 146.635C111.4 146.614 112.215 146.748 113.02 147.036C113.821 147.32 114.582 147.77 115.305 148.386ZM130.371 152.543C129.356 153.378 128.297 153.874 127.193 154.032C126.089 154.182 125.006 154.016 123.942 153.534C122.88 153.044 121.905 152.26 121.017 151.181C120.129 150.103 119.544 148.991 119.26 147.845C118.976 146.69 118.999 145.591 119.327 144.546C119.657 143.493 120.296 142.576 121.247 141.794C121.795 141.342 122.412 140.988 123.097 140.731C123.782 140.473 124.513 140.37 125.291 140.42C126.064 140.466 126.857 140.717 127.671 141.174C128.484 141.632 129.295 142.352 130.104 143.334L130.668 144.02L122.552 150.7L121.401 149.301L127.872 143.975C127.383 143.381 126.828 142.949 126.207 142.678C125.59 142.404 124.954 142.311 124.298 142.399C123.646 142.483 123.028 142.765 122.443 143.247C121.799 143.777 121.373 144.396 121.165 145.103C120.959 145.802 120.939 146.509 121.105 147.223C121.271 147.937 121.593 148.584 122.071 149.164L122.838 150.097C123.492 150.892 124.184 151.453 124.914 151.78C125.644 152.099 126.374 152.199 127.104 152.081C127.831 151.958 128.521 151.628 129.175 151.09C129.6 150.74 129.935 150.365 130.18 149.964C130.425 149.555 130.574 149.125 130.626 148.676C130.674 148.223 130.617 147.757 130.453 147.278L132.377 146.431C132.649 147.096 132.756 147.79 132.698 148.512C132.637 149.229 132.413 149.935 132.026 150.629C131.635 151.318 131.084 151.956 130.371 152.543ZM137.011 146.71L128.344 136.181L132.649 132.638C133.782 131.706 134.893 131.22 135.982 131.183C137.07 131.146 137.96 131.547 138.652 132.388C139.179 133.028 139.398 133.68 139.308 134.344C139.214 135.003 138.921 135.639 138.429 136.252C138.863 135.987 139.352 135.814 139.898 135.732C140.449 135.647 141.004 135.696 141.562 135.881C142.116 136.061 142.621 136.427 143.076 136.98C143.52 137.519 143.78 138.114 143.855 138.765C143.931 139.416 143.814 140.075 143.506 140.743C143.197 141.411 142.686 142.038 141.973 142.625L137.011 146.71ZM137.327 143.966L140.755 141.145C141.312 140.686 141.639 140.194 141.737 139.669C141.834 139.145 141.694 138.654 141.318 138.197C140.87 137.653 140.361 137.356 139.79 137.305C139.215 137.249 138.649 137.45 138.092 137.909L134.664 140.73L137.327 143.966ZM133.513 139.332L136.283 137.053C136.717 136.695 137.04 136.329 137.253 135.955C137.462 135.576 137.557 135.206 137.537 134.847C137.518 134.479 137.381 134.14 137.125 133.829C136.76 133.386 136.289 133.191 135.712 133.245C135.132 133.293 134.517 133.585 133.868 134.119L131.099 136.398L133.513 139.332ZM149.118 136.928C148.78 137.206 148.39 137.324 147.949 137.281C147.507 137.238 147.147 137.048 146.869 136.71C146.591 136.371 146.473 135.982 146.516 135.54C146.559 135.099 146.749 134.739 147.087 134.46C147.426 134.182 147.815 134.064 148.257 134.107C148.698 134.15 149.058 134.34 149.337 134.679C149.521 134.902 149.633 135.155 149.673 135.436C149.718 135.714 149.693 135.987 149.6 136.256C149.507 136.516 149.347 136.74 149.118 136.928ZM153.165 133.413L144.499 122.885L152.779 116.069L161.445 126.598L159.828 127.929L152.403 118.909L147.358 123.061L154.783 132.082L153.165 133.413ZM168.857 120.865C167.907 121.647 166.887 122.107 165.797 122.246C164.712 122.38 163.633 122.206 162.561 121.724C161.494 121.237 160.513 120.451 159.618 119.363C158.715 118.266 158.126 117.145 157.85 116C157.579 114.851 157.614 113.757 157.954 112.718C158.3 111.675 158.947 110.762 159.898 109.98C160.848 109.198 161.866 108.739 162.951 108.605C164.041 108.467 165.122 108.643 166.192 109.134C167.268 109.621 168.257 110.413 169.16 111.509C170.055 112.597 170.636 113.713 170.903 114.857C171.175 115.998 171.139 117.09 170.794 118.133C170.453 119.172 169.808 120.083 168.857 120.865ZM167.661 119.412C168.383 118.817 168.825 118.143 168.986 117.39C169.148 116.636 169.092 115.865 168.82 115.078C168.547 114.29 168.121 113.545 167.542 112.841C166.963 112.137 166.311 111.573 165.587 111.15C164.863 110.727 164.113 110.519 163.339 110.528C162.564 110.537 161.816 110.839 161.094 111.433C160.372 112.027 159.932 112.704 159.774 113.462C159.617 114.22 159.676 114.996 159.952 115.788C160.229 116.58 160.656 117.328 161.236 118.031C161.815 118.735 162.465 119.296 163.185 119.715C163.906 120.134 164.651 120.337 165.422 120.323C166.193 120.31 166.939 120.006 167.661 119.412ZM174.985 115.454L173.743 113.946L174.127 113.63C174.442 113.37 174.654 113.092 174.763 112.796C174.868 112.495 174.855 112.134 174.723 111.713C174.592 111.284 174.328 110.758 173.93 110.135C173.533 109.504 172.988 108.734 172.294 107.826L168.649 103.007L175.668 97.2294L184.334 107.758L182.716 109.089L175.292 100.069L171.426 103.251L174.353 107.143C175.027 108.036 175.576 108.861 175.999 109.617C176.422 110.364 176.698 111.058 176.825 111.697C176.957 112.332 176.921 112.921 176.716 113.465C176.512 114.008 176.118 114.521 175.533 115.002L174.985 115.454ZM187.472 95.2402L188.714 96.7481L183.148 101.329L181.907 99.8214L187.472 95.2402ZM179.486 94.0868L188.152 104.615L186.534 105.947L177.868 95.4183L179.486 94.0868ZM195.763 98.7188C194.812 99.5011 193.792 99.9614 192.702 100.1C191.617 100.234 190.539 100.06 189.467 99.5774C188.4 99.0913 187.419 98.3044 186.524 97.2168C185.621 96.1201 185.032 94.9991 184.756 93.8539C184.485 92.705 184.52 91.6109 184.86 90.5717C185.205 89.5288 185.853 88.6162 186.803 87.8338C187.754 87.0515 188.772 86.5931 189.857 86.4587C190.947 86.3206 192.027 86.4969 193.098 86.9877C194.173 87.4746 195.162 88.2665 196.065 89.3632C196.96 90.4508 197.542 91.5668 197.809 92.7112C198.081 93.8518 198.044 94.9436 197.699 95.9865C197.359 97.0257 196.713 97.9364 195.763 98.7188ZM194.567 97.2656C195.289 96.6713 195.731 95.9973 195.892 95.2435C196.053 94.4897 195.998 93.7191 195.725 92.9316C195.453 92.1441 195.027 91.3984 194.448 90.6947C193.868 89.991 193.217 89.4274 192.492 89.0039C191.768 88.5805 191.019 88.3732 190.244 88.3821C189.47 88.3911 188.722 88.6927 188 89.287C187.278 89.8813 186.838 90.5576 186.68 91.316C186.522 92.0743 186.582 92.8495 186.858 93.6416C187.134 94.4337 187.562 95.1816 188.141 95.8853C188.721 96.589 189.37 97.1504 190.091 97.5693C190.811 97.9881 191.557 98.1908 192.328 98.1773C193.098 98.1638 193.845 97.8599 194.567 97.2656ZM207.443 89.1049C206.456 89.9173 205.414 90.3839 204.318 90.5045C203.221 90.6252 202.144 90.4345 201.087 89.9325C200.03 89.4305 199.069 88.6539 198.204 87.6029C197.324 86.5336 196.743 85.4282 196.463 84.2868C196.184 83.137 196.208 82.0399 196.537 80.9953C196.866 79.9425 197.506 79.0248 198.456 78.2425C199.196 77.6332 199.976 77.2211 200.796 77.0063C201.616 76.7915 202.419 76.7748 203.204 76.9561C203.99 77.1375 204.699 77.5195 205.332 78.1023L203.714 79.4338C203.196 79.0556 202.572 78.8563 201.842 78.8359C201.113 78.8073 200.393 79.0863 199.68 79.6731C199.049 80.1921 198.632 80.8118 198.427 81.532C198.223 82.2438 198.234 83.0059 198.458 83.8181C198.682 84.622 199.122 85.4215 199.776 86.2166C200.446 87.03 201.157 87.633 201.909 88.0255C202.666 88.4143 203.417 88.5818 204.163 88.528C204.912 88.4704 205.607 88.1783 206.247 87.6517C206.667 87.3057 206.989 86.9185 207.211 86.4902C207.433 86.0619 207.551 85.6128 207.563 85.143C207.574 84.6733 207.473 84.2051 207.257 83.7385L208.875 82.407C209.295 83.1037 209.53 83.8497 209.579 84.6449C209.628 85.4318 209.479 86.2141 209.13 86.9918C208.782 87.7611 208.22 88.4655 207.443 89.1049Z" fill="white"/>
<path d="M456.097 586.898L467.652 600.936L465.952 602.336L454.397 588.298L456.097 586.898ZM464.42 590.765L465.661 592.273L461.363 595.81L460.122 594.302L464.42 590.765ZM476.845 581.595C478.064 583.076 478.849 584.575 479.202 586.094C479.556 587.612 479.507 589.048 479.056 590.4C478.605 591.752 477.781 592.921 476.584 593.907C475.387 594.892 474.081 595.476 472.667 595.658C471.254 595.841 469.836 595.613 468.413 594.974C466.991 594.336 465.671 593.277 464.452 591.796C463.233 590.315 462.448 588.816 462.094 587.297C461.741 585.779 461.79 584.343 462.241 582.991C462.692 581.639 463.516 580.47 464.713 579.485C465.91 578.499 467.216 577.915 468.63 577.733C470.043 577.551 471.461 577.779 472.883 578.417C474.306 579.055 475.626 580.115 476.845 581.595ZM475.2 582.949C474.199 581.734 473.152 580.875 472.057 580.374C470.966 579.869 469.899 579.685 468.856 579.824C467.817 579.958 466.872 580.375 466.022 581.075C465.172 581.775 464.579 582.623 464.242 583.621C463.911 584.614 463.885 585.697 464.167 586.868C464.453 588.035 465.097 589.226 466.097 590.442C467.098 591.657 468.143 592.518 469.234 593.023C470.329 593.525 471.396 593.708 472.435 593.573C473.478 593.435 474.425 593.016 475.275 592.316C476.125 591.617 476.716 590.77 477.048 589.776C477.384 588.779 477.409 587.696 477.123 586.529C476.841 585.358 476.2 584.165 475.2 582.949ZM484.603 586.984L484.48 578.117L475.992 576.41L477.911 574.83L485.122 576.438L485.999 575.716L482.298 571.22L483.916 569.888L487.617 574.385L488.467 573.685L488.275 566.3L490.195 564.72L490.265 573.355L498.916 575.203L496.969 576.806L489.681 575.216L488.858 575.893L492.582 580.417L490.964 581.748L487.241 577.224L486.418 577.901L486.55 585.382L484.603 586.984ZM503.331 561.496L504.573 563.004L498.76 567.789L497.519 566.281L503.331 561.496ZM494.179 561.441L502.845 571.969L501.227 573.301L492.561 562.772L494.179 561.441ZM500.841 555.957L509.507 566.485L507.89 567.817L499.224 557.288L500.841 555.957ZM513.731 563.193C513.393 563.471 513.003 563.589 512.561 563.546C512.12 563.503 511.76 563.313 511.482 562.974C511.203 562.636 511.086 562.246 511.128 561.805C511.171 561.363 511.362 561.003 511.7 560.725C512.038 560.447 512.428 560.329 512.869 560.372C513.311 560.415 513.671 560.605 513.949 560.943C514.134 561.167 514.246 561.42 514.286 561.701C514.33 561.979 514.306 562.252 514.212 562.52C514.12 562.781 513.959 563.005 513.731 563.193ZM517.777 559.678L509.111 549.15L517.392 542.334L526.058 552.863L524.44 554.194L517.015 545.174L511.97 549.326L519.395 558.347L517.777 559.678ZM533.47 547.13C532.519 547.912 531.499 548.372 530.409 548.51C529.324 548.645 528.246 548.471 527.174 547.988C526.107 547.502 525.126 546.715 524.231 545.628C523.328 544.531 522.739 543.41 522.463 542.265C522.192 541.116 522.226 540.022 522.567 538.983C522.912 537.94 523.56 537.027 524.51 536.245C525.461 535.462 526.479 535.004 527.564 534.87C528.654 534.732 529.734 534.908 530.805 535.399C531.88 535.886 532.869 536.677 533.772 537.774C534.667 538.862 535.249 539.978 535.516 541.122C535.788 542.263 535.751 543.355 535.406 544.397C535.066 545.437 534.42 546.347 533.47 547.13ZM532.274 545.677C532.996 545.082 533.437 544.408 533.599 543.654C533.76 542.901 533.705 542.13 533.432 541.343C533.16 540.555 532.734 539.809 532.154 539.106C531.575 538.402 530.923 537.838 530.199 537.415C529.475 536.991 528.726 536.784 527.951 536.793C527.177 536.802 526.428 537.104 525.706 537.698C524.984 538.292 524.545 538.969 524.387 539.727C524.229 540.485 524.289 541.26 524.565 542.053C524.841 542.845 525.269 543.593 525.848 544.296C526.427 545 527.077 545.561 527.798 545.98C528.518 546.399 529.264 546.602 530.034 546.588C530.805 546.575 531.552 546.271 532.274 545.677ZM539.597 541.718L538.356 540.21L538.74 539.894C539.055 539.635 539.267 539.357 539.376 539.061C539.48 538.76 539.467 538.399 539.336 537.978C539.205 537.549 538.94 537.023 538.543 536.4C538.146 535.769 537.6 534.999 536.906 534.091L533.262 529.272L540.281 523.494L548.947 534.023L547.329 535.354L539.904 526.334L536.038 529.516L538.965 533.407C539.64 534.301 540.188 535.126 540.611 535.882C541.035 536.629 541.31 537.322 541.437 537.961C541.569 538.596 541.533 539.186 541.329 539.729C541.125 540.273 540.73 540.786 540.145 541.267L539.597 541.718ZM552.085 521.505L553.326 523.013L547.76 527.594L546.519 526.086L552.085 521.505ZM544.099 520.352L552.765 530.88L551.147 532.212L542.481 521.683L544.099 520.352ZM560.375 524.984C559.425 525.766 558.405 526.226 557.315 526.364C556.23 526.499 555.151 526.325 554.08 525.842C553.013 525.356 552.031 524.569 551.136 523.482C550.234 522.385 549.644 521.264 549.369 520.119C549.097 518.97 549.132 517.876 549.473 516.837C549.818 515.794 550.465 514.881 551.416 514.099C552.366 513.316 553.384 512.858 554.47 512.724C555.559 512.585 556.64 512.762 557.711 513.252C558.786 513.739 559.775 514.531 560.678 515.628C561.573 516.716 562.154 517.832 562.422 518.976C562.694 520.117 562.657 521.208 562.312 522.251C561.971 523.291 561.326 524.201 560.375 524.984ZM559.179 523.53C559.901 522.936 560.343 522.262 560.504 521.508C560.666 520.755 560.61 519.984 560.338 519.196C560.065 518.409 559.639 517.663 559.06 516.96C558.481 516.256 557.829 515.692 557.105 515.269C556.381 514.845 555.631 514.638 554.857 514.647C554.082 514.656 553.334 514.958 552.612 515.552C551.89 516.146 551.45 516.822 551.293 517.581C551.135 518.339 551.194 519.114 551.471 519.906C551.747 520.699 552.175 521.446 552.754 522.15C553.333 522.854 553.983 523.415 554.703 523.834C555.424 524.253 556.169 524.456 556.94 524.442C557.711 524.429 558.457 524.125 559.179 523.53ZM572.055 515.37C571.068 516.182 570.027 516.649 568.93 516.769C567.834 516.89 566.757 516.699 565.7 516.197C564.643 515.695 563.681 514.919 562.816 513.868C561.936 512.798 561.356 511.693 561.076 510.552C560.796 509.402 560.821 508.305 561.149 507.26C561.478 506.207 562.118 505.29 563.069 504.507C563.809 503.898 564.589 503.486 565.409 503.271C566.228 503.056 567.031 503.04 567.817 503.221C568.602 503.402 569.311 503.784 569.944 504.367L568.327 505.699C567.808 505.32 567.184 505.121 566.455 505.101C565.726 505.072 565.005 505.351 564.292 505.938C563.662 506.457 563.244 507.077 563.04 507.797C562.836 508.509 562.846 509.271 563.07 510.083C563.295 510.887 563.734 511.686 564.389 512.481C565.058 513.295 565.769 513.898 566.522 514.29C567.279 514.679 568.03 514.847 568.775 514.793C569.525 514.735 570.22 514.443 570.859 513.917C571.28 513.571 571.601 513.183 571.824 512.755C572.046 512.327 572.163 511.878 572.175 511.408C572.187 510.938 572.085 510.47 571.87 510.003L573.487 508.672C573.908 509.369 574.142 510.114 574.191 510.91C574.241 511.697 574.091 512.479 573.743 513.257C573.395 514.026 572.832 514.73 572.055 515.37Z" fill="white"/>
<path d="M446.045 451.515C445.603 450.989 445.318 450.463 445.189 449.936C445.065 449.404 445.088 448.902 445.257 448.43C445.435 447.958 445.747 447.536 446.191 447.163C446.63 446.794 447.106 446.521 447.618 446.344C448.131 446.166 448.653 446.093 449.185 446.126C449.726 446.159 450.248 446.304 450.751 446.561C451.254 446.818 451.713 447.194 452.129 447.689C452.574 448.221 452.857 448.749 452.977 449.275C453.106 449.803 453.081 450.302 452.902 450.774C452.733 451.246 452.426 451.669 451.982 452.042C451.543 452.41 451.067 452.683 450.555 452.861C450.042 453.039 449.515 453.111 448.974 453.078C448.442 453.045 447.925 452.901 447.422 452.644C446.919 452.387 446.46 452.011 446.045 451.515ZM446.595 451.145C446.929 451.543 447.3 451.845 447.708 452.051C448.121 452.253 448.549 452.364 448.992 452.384C449.435 452.403 449.869 452.34 450.294 452.192C450.724 452.041 451.122 451.81 451.49 451.502C451.837 451.211 452.077 450.879 452.209 450.507C452.345 450.141 452.365 449.75 452.269 449.334C452.173 448.919 451.942 448.494 451.578 448.06C451.244 447.662 450.87 447.362 450.457 447.16C450.049 446.954 449.624 446.841 449.181 446.821C448.742 446.806 448.306 446.872 447.872 447.019C447.447 447.166 447.051 447.394 446.683 447.703C446.341 447.99 446.099 448.319 445.958 448.69C445.826 449.062 445.808 449.455 445.904 449.87C446.001 450.286 446.231 450.711 446.595 451.145ZM450.907 457.295C450.586 456.912 450.376 456.522 450.279 456.126C450.19 455.73 450.209 455.348 450.336 454.981C450.467 454.619 450.707 454.292 451.054 454C451.513 453.615 452.006 453.371 452.53 453.271C453.06 453.166 453.575 453.203 454.075 453.384C454.584 453.566 455.029 453.884 455.411 454.339C455.724 454.712 455.922 455.089 456.007 455.47C456.102 455.852 456.078 456.229 455.937 456.6L455.283 456.365C455.393 456.081 455.413 455.799 455.343 455.518C455.277 455.243 455.129 454.967 454.897 454.691C454.614 454.354 454.28 454.122 453.894 453.993C453.507 453.865 453.107 453.844 452.692 453.931C452.287 454.018 451.901 454.216 451.533 454.525C451.14 454.855 450.93 455.227 450.903 455.641C450.881 456.06 451.049 456.484 451.409 456.913C451.628 457.174 451.878 457.373 452.159 457.511C452.45 457.65 452.75 457.712 453.059 457.696L453.088 458.338C452.702 458.365 452.314 458.287 451.923 458.101C451.537 457.911 451.199 457.642 450.907 457.295ZM457.532 459.807C457.913 460.261 458.109 460.676 458.118 461.05C458.132 461.43 457.958 461.772 457.596 462.077C457.284 462.338 456.947 462.486 456.584 462.52C456.226 462.56 455.865 462.493 455.502 462.319C455.143 462.141 454.806 461.863 454.489 461.485L453.075 459.8L457.778 457.237L458.228 457.774L456.587 458.681L457.532 459.807ZM454.902 461.138C455.125 461.404 455.364 461.6 455.617 461.726C455.877 461.848 456.132 461.899 456.385 461.878C456.643 461.854 456.879 461.751 457.093 461.571C457.573 461.168 457.541 460.643 456.997 459.994L456.11 458.937L454.015 460.081L454.902 461.138ZM458.366 466.106L463.063 463.536L463.519 464.08L461.441 467.873L461.248 467.643L466.412 467.527L466.842 468.04L462.146 470.611L461.728 470.113L465.701 467.941L465.732 468.071L460.933 468.169L460.727 467.924L462.652 464.338L462.765 464.426L458.784 466.604L458.366 466.106ZM463.438 472.151L468.141 469.588L468.598 470.132L464.803 472.207L470.828 472.79L471.265 473.311L466.569 475.882L466.099 475.322L469.914 473.257L463.882 472.68L463.438 472.151ZM469.715 479.709C469.424 479.362 469.234 479.012 469.147 478.659C469.069 478.306 469.092 477.965 469.215 477.636C469.348 477.306 469.581 476.998 469.914 476.71C470.409 476.294 470.918 476.019 471.441 475.885C471.969 475.747 472.475 475.753 472.958 475.905C473.447 476.051 473.878 476.347 474.251 476.791C474.542 477.139 474.728 477.5 474.809 477.876C474.899 478.253 474.878 478.623 474.747 478.985C474.62 479.353 474.381 479.685 474.028 479.98C473.681 480.272 473.315 480.483 472.929 480.615C472.544 480.747 472.156 480.798 471.766 480.769C471.38 480.745 471.01 480.646 470.656 480.473C470.307 480.296 469.994 480.041 469.715 479.709ZM466.14 478.389L472.567 474.862L473.004 475.383L471.654 476.124L470.664 476.577L469.75 477.2L466.596 478.932L466.14 478.389ZM470.191 479.297C470.474 479.634 470.804 479.866 471.181 479.994C471.563 480.117 471.959 480.133 472.369 480.041C472.784 479.954 473.172 479.759 473.535 479.454C473.933 479.12 474.146 478.746 474.173 478.332C474.199 477.918 474.035 477.499 473.679 477.075C473.401 476.743 473.068 476.513 472.682 476.384C472.3 476.261 471.902 476.243 471.487 476.329C471.082 476.417 470.696 476.615 470.328 476.924C469.935 477.254 469.725 477.626 469.698 478.04C469.671 478.454 469.836 478.873 470.191 479.297ZM473.755 484.523C473.468 484.181 473.281 483.819 473.197 483.438C473.112 483.057 473.135 482.685 473.266 482.323C473.397 481.96 473.639 481.631 473.991 481.336C474.333 481.049 474.697 480.839 475.082 480.707C475.468 480.575 475.853 480.521 476.239 480.546C476.63 480.566 477 480.664 477.349 480.842C477.702 481.024 478.016 481.279 478.29 481.605C478.586 481.958 478.773 482.31 478.851 482.662C478.934 483.01 478.911 483.351 478.782 483.686C478.659 484.015 478.429 484.322 478.092 484.605C477.606 485.012 477.1 485.284 476.572 485.423C476.044 485.561 475.536 485.557 475.047 485.41C474.558 485.263 474.127 484.968 473.755 484.523ZM474.334 484.233C474.616 484.57 474.946 484.803 475.323 484.93C475.709 485.059 476.108 485.077 476.518 484.985C476.933 484.898 477.321 484.703 477.684 484.399C478.082 484.064 478.292 483.688 478.315 483.268C478.342 482.854 478.179 482.438 477.828 482.019C477.549 481.687 477.217 481.457 476.831 481.329C476.445 481.2 476.044 481.179 475.63 481.266C475.224 481.354 474.838 481.552 474.47 481.86C474.077 482.19 473.867 482.562 473.84 482.976C473.818 483.396 473.982 483.815 474.334 484.233ZM475.001 485.931L476.351 485.191L477.356 484.739L478.263 484.109L479.679 483.338L480.135 483.882L475.438 486.452L475.001 485.931Z" fill="white"/>
</svg>
