<svg width="616" height="637" viewBox="0 0 616 637" fill="none" xmlns="http://www.w3.org/2000/svg">
<path d="M310.1 411.96L311.72 408.78C313.56 410.38 315.62 411.58 317.9 412.38C320.22 413.14 322.54 413.54 324.86 413.58C327.18 413.58 329.3 413.24 331.22 412.56C333.18 411.88 334.76 410.88 335.96 409.56C337.16 408.2 337.76 406.56 337.76 404.64C337.76 402.2 336.78 400.32 334.82 399C332.9 397.68 330.22 397.02 326.78 397.02H317.78V393.42H326.54C329.5 393.42 331.8 392.8 333.44 391.56C335.12 390.28 335.96 388.52 335.96 386.28C335.96 384.68 335.48 383.32 334.52 382.2C333.6 381.04 332.32 380.16 330.68 379.56C329.08 378.92 327.28 378.58 325.28 378.54C323.28 378.46 321.2 378.72 319.04 379.32C316.92 379.88 314.86 380.78 312.86 382.02L311.42 378.36C313.9 376.88 316.48 375.86 319.16 375.3C321.84 374.7 324.44 374.5 326.96 374.7C329.48 374.9 331.74 375.48 333.74 376.44C335.78 377.4 337.4 378.66 338.6 380.22C339.8 381.78 340.4 383.64 340.4 385.8C340.4 387.8 339.88 389.56 338.84 391.08C337.84 392.6 336.42 393.78 334.58 394.62C332.78 395.42 330.64 395.82 328.16 395.82L328.4 394.5C331.2 394.5 333.62 394.94 335.66 395.82C337.74 396.7 339.34 397.96 340.46 399.6C341.62 401.2 342.2 403.08 342.2 405.24C342.2 407.28 341.68 409.1 340.64 410.7C339.64 412.26 338.24 413.58 336.44 414.66C334.68 415.7 332.7 416.46 330.5 416.94C328.3 417.38 326 417.5 323.6 417.3C321.2 417.1 318.84 416.58 316.52 415.74C314.2 414.86 312.06 413.6 310.1 411.96Z" fill="white"/>
<path d="M296.5 554.5C425.735 554.5 530.5 449.735 530.5 320.5C530.5 191.265 425.735 86.5 296.5 86.5C167.265 86.5 62.5 191.265 62.5 320.5C62.5 449.735 167.265 554.5 296.5 554.5Z" stroke="white" stroke-width="5"/>
<path d="M274.52 58L275.12 54.94L311.36 18.16L311.72 19.84H282.62L283.4 16H316.7L316.1 19.06L279.8 55.84L279.5 54.16H309.74L308.96 58H274.52Z" fill="white"/>
<path d="M274.52 622L275.12 618.94L311.36 582.16L311.72 583.84H282.62L283.4 580H316.7L316.1 583.06L279.8 619.84L279.5 618.16H309.74L308.96 622H274.52ZM320.682 595.84L323.502 580H327.282L323.862 595.84H320.682Z" fill="white"/>
<line x1="299.5" y1="85" x2="299.5" y2="558" stroke="white" stroke-opacity="0.6" stroke-width="3" stroke-dasharray="6 6"/>
<circle cx="300.5" cy="555.5" r="6.5" fill="#D9D9D9"/>
<path d="M25.44 346.36C22.28 346.36 19.36 345.84 16.68 344.8C14 343.72 11.68 342.22 9.72 340.3C7.76 338.38 6.22 336.12 5.1 333.52C4.02 330.92 3.48 328.08 3.48 325C3.48 321.92 4.02 319.08 5.1 316.48C6.22 313.88 7.76 311.62 9.72 309.7C11.72 307.78 14.06 306.3 16.74 305.26C19.42 304.18 22.34 303.64 25.5 303.64C28.54 303.64 31.4 304.16 34.08 305.2C36.76 306.2 39.02 307.72 40.86 309.76L38.04 312.58C36.32 310.82 34.42 309.56 32.34 308.8C30.26 308 28.02 307.6 25.62 307.6C23.1 307.6 20.76 308.04 18.6 308.92C16.44 309.76 14.56 310.98 12.96 312.58C11.36 314.14 10.1 315.98 9.18 318.1C8.3 320.18 7.86 322.48 7.86 325C7.86 327.52 8.3 329.84 9.18 331.96C10.1 334.04 11.36 335.88 12.96 337.48C14.56 339.04 16.44 340.26 18.6 341.14C20.76 341.98 23.1 342.4 25.62 342.4C28.02 342.4 30.26 342 32.34 341.2C34.42 340.4 36.32 339.12 38.04 337.36L40.86 340.18C39.02 342.22 36.76 343.76 34.08 344.8C31.4 345.84 28.52 346.36 25.44 346.36Z" fill="white"/>
<path d="M557.08 346V304H561.46V322.66H572.32V326.68H561.46V346H557.08ZM590.98 346.36C587.98 346.36 585.2 345.84 582.64 344.8C580.12 343.72 577.9 342.22 575.98 340.3C574.1 338.38 572.64 336.12 571.6 333.52C570.56 330.92 570.04 328.08 570.04 325C570.04 321.92 570.56 319.08 571.6 316.48C572.64 313.88 574.1 311.62 575.98 309.7C577.9 307.78 580.12 306.3 582.64 305.26C585.2 304.18 587.98 303.64 590.98 303.64C593.98 303.64 596.76 304.18 599.32 305.26C601.88 306.3 604.1 307.78 605.98 309.7C607.86 311.62 609.32 313.88 610.36 316.48C611.44 319.08 611.98 321.92 611.98 325C611.98 328.08 611.44 330.92 610.36 333.52C609.32 336.12 607.86 338.38 605.98 340.3C604.1 342.22 601.88 343.72 599.32 344.8C596.76 345.84 593.98 346.36 590.98 346.36ZM590.98 342.4C593.34 342.4 595.52 341.98 597.52 341.14C599.56 340.26 601.32 339.04 602.8 337.48C604.28 335.92 605.44 334.1 606.28 332.02C607.12 329.9 607.54 327.56 607.54 325C607.54 322.44 607.12 320.12 606.28 318.04C605.44 315.92 604.28 314.08 602.8 312.52C601.32 310.96 599.56 309.76 597.52 308.92C595.52 308.04 593.34 307.6 590.98 307.6C588.66 307.6 586.48 308.04 584.44 308.92C582.44 309.76 580.7 310.96 579.22 312.52C577.74 314.08 576.58 315.92 575.74 318.04C574.9 320.12 574.48 322.44 574.48 325C574.48 327.56 574.9 329.9 575.74 332.02C576.58 334.1 577.74 335.92 579.22 337.48C580.7 339.04 582.44 340.26 584.44 341.14C586.48 341.98 588.66 342.4 590.98 342.4Z" fill="white"/>
<path d="M254.9 270V235H269.45C273.15 235 276.05 235.767 278.15 237.3C280.283 238.8 281.35 241.017 281.35 243.95C281.35 246.85 280.333 249.05 278.3 250.55C276.267 252.017 273.6 252.75 270.3 252.75L271.15 251.5C275.05 251.5 278.017 252.267 280.05 253.8C282.083 255.333 283.1 257.583 283.1 260.55C283.1 263.55 282.033 265.883 279.9 267.55C277.8 269.183 274.633 270 270.4 270H254.9ZM258.55 267.05H270.4C273.367 267.05 275.617 266.5 277.15 265.4C278.683 264.3 279.45 262.6 279.45 260.3C279.45 258.033 278.683 256.367 277.15 255.3C275.617 254.233 273.367 253.7 270.4 253.7H258.55V267.05ZM258.55 250.85H269.25C271.95 250.85 274.017 250.317 275.45 249.25C276.917 248.15 277.65 246.533 277.65 244.4C277.65 242.267 276.917 240.667 275.45 239.6C274.017 238.5 271.95 237.95 269.25 237.95H258.55V250.85Z" fill="white"/>
<path d="M296.5 350.361C424.354 350.361 528 335.282 528 316.681C528 298.079 424.354 283 296.5 283C168.646 283 65 298.079 65 316.681C65 335.282 168.646 350.361 296.5 350.361Z" stroke="white" stroke-width="3" stroke-dasharray="6 6"/>
<path d="M65 318.243C103.874 367.262 523.016 356.592 528 317" stroke="white" stroke-width="5"/>
<path d="M289.051 301.977C289.051 304.278 288.636 306.267 287.805 307.943C286.974 309.619 285.834 310.912 284.385 311.821C282.936 312.73 281.281 313.185 279.42 313.185C277.56 313.185 275.905 312.73 274.456 311.821C273.007 310.912 271.867 309.619 271.036 307.943C270.205 306.267 269.79 304.278 269.79 301.977C269.79 299.676 270.205 297.687 271.036 296.011C271.867 294.335 273.007 293.042 274.456 292.133C275.905 291.224 277.56 290.77 279.42 290.77C281.281 290.77 282.936 291.224 284.385 292.133C285.834 293.042 286.974 294.335 287.805 296.011C288.636 297.687 289.051 299.676 289.051 301.977ZM286.494 301.977C286.494 300.088 286.178 298.493 285.546 297.194C284.921 295.894 284.072 294.91 283 294.243C281.935 293.575 280.741 293.241 279.42 293.241C278.099 293.241 276.903 293.575 275.83 294.243C274.765 294.91 273.916 295.894 273.284 297.194C272.659 298.493 272.347 300.088 272.347 301.977C272.347 303.866 272.659 305.461 273.284 306.761C273.916 308.06 274.765 309.044 275.83 309.712C276.903 310.379 278.099 310.713 279.42 310.713C280.741 310.713 281.935 310.379 283 309.712C284.072 309.044 284.921 308.06 285.546 306.761C286.178 305.461 286.494 303.866 286.494 301.977Z" fill="white"/>
<line y1="-1.5" x2="467.001" y2="-1.5" transform="matrix(0.999998 -0.00189792 0.00241594 0.999997 61 317.567)" stroke="white" stroke-opacity="0.6" stroke-width="3" stroke-dasharray="6 6"/>
<path d="M526.5 317.073L524 321.5L515 326L503.5 330L481.5 335.5L465.5 339L457 339L296 319L296 317.073L526.5 317.073Z" fill="#31DD75" fill-opacity="0.3"/>
<path d="M526.5 317.073L524 321.5L515 326L503.5 330L481.5 335.5L465.5 339L457 339L296 319L296 317.073L526.5 317.073Z" fill="#31DD75" fill-opacity="0.3"/>
<path d="M300 316.5H527C528.333 320.667 516 332 457 340" stroke="#1DAB56" stroke-width="2"/>
<path d="M300 316.5L298.5 87.9998L307 87.9998L331 102L359 127.5L384 154L406 182.5L353.5 249L300 316.5Z" fill="#533DD6" fill-opacity="0.4"/>
<path d="M297 85.5C326.5 91 382.5 142 408.5 190" stroke="#5745C1" stroke-width="2"/>
<circle cx="299.5" cy="85.5" r="6.5" fill="#D9D9D9"/>
<path d="M407.027 182.203C407.482 181.641 408.369 181.759 408.692 182.423L417 199.5L434.5 233L442 252L449.5 277L454.5 305L456.488 317.923C456.496 317.974 456.5 318.026 456.5 318.078L456.5 325.5L456.5 338.374C456.5 338.974 455.983 339.429 455.393 339.347L299.293 317.748C298.515 317.64 298.14 316.71 298.63 316.104L407.027 182.203Z" fill="#137DB8" fill-opacity="0.4"/>
<path fill-rule="evenodd" clip-rule="evenodd" d="M404.06 188.161L299.368 318.299L456.226 338.714C455.627 277.666 434.256 221 408.241 190.651L409.759 189.35C436.177 220.169 457.689 277.445 458.229 338.975L458.878 339.059L458.629 341.045L296.875 319.993L296.978 319.178L296.442 318.747L402.502 186.907L404.06 188.161Z" fill="#0E90D9"/>
<circle cx="300.5" cy="316.5" r="6.5" fill="white"/>
<circle cx="406.5" cy="184.5" r="13.5" fill="white"/>
<path d="M113.66 328L115.06 321H120.94L119.54 328H118.82L120.12 321.44L120.27 321.64H115.45L115.68 321.44L114.38 328H113.66ZM124.142 328.05C123.655 328.05 123.232 327.96 122.872 327.78C122.519 327.593 122.242 327.333 122.042 327C121.849 326.667 121.752 326.273 121.752 325.82C121.752 325.22 121.882 324.687 122.142 324.22C122.402 323.747 122.762 323.377 123.222 323.11C123.682 322.837 124.205 322.7 124.792 322.7C125.279 322.7 125.699 322.79 126.052 322.97C126.412 323.15 126.689 323.407 126.882 323.74C127.082 324.073 127.182 324.467 127.182 324.92C127.182 325.52 127.052 326.057 126.792 326.53C126.532 326.997 126.172 327.367 125.712 327.64C125.259 327.913 124.735 328.05 124.142 328.05ZM124.192 327.42C124.632 327.42 125.022 327.317 125.362 327.11C125.709 326.897 125.979 326.603 126.172 326.23C126.372 325.857 126.472 325.433 126.472 324.96C126.472 324.44 126.319 324.037 126.012 323.75C125.712 323.463 125.289 323.32 124.742 323.32C124.309 323.32 123.919 323.427 123.572 323.64C123.225 323.853 122.952 324.147 122.752 324.52C122.559 324.887 122.462 325.31 122.462 325.79C122.462 326.303 122.612 326.703 122.912 326.99C123.219 327.277 123.645 327.42 124.192 327.42ZM127.178 327.99L127.348 327.38C127.395 327.387 127.438 327.397 127.478 327.41C127.518 327.417 127.555 327.42 127.588 327.42C127.828 327.42 128.038 327.313 128.218 327.1C128.405 326.88 128.572 326.56 128.718 326.14C128.872 325.72 129.025 325.207 129.178 324.6L129.638 322.75H133.488L132.428 328H131.718L132.688 323.14L132.838 323.37H129.978L130.188 323.14L129.808 324.67C129.662 325.243 129.515 325.743 129.368 326.17C129.228 326.59 129.075 326.94 128.908 327.22C128.748 327.5 128.568 327.71 128.368 327.85C128.175 327.99 127.952 328.06 127.698 328.06C127.612 328.06 127.528 328.053 127.448 328.04C127.368 328.027 127.278 328.01 127.178 327.99ZM134.197 329.99C133.95 329.99 133.713 329.947 133.487 329.86C133.26 329.78 133.08 329.667 132.947 329.52L133.327 329C133.44 329.12 133.573 329.213 133.727 329.28C133.88 329.347 134.053 329.38 134.247 329.38C134.473 329.38 134.68 329.317 134.867 329.19C135.06 329.07 135.26 328.85 135.467 328.53L135.997 327.72L136.087 327.62L139.207 322.75H139.937L136.097 328.68C135.877 329.013 135.67 329.273 135.477 329.46C135.283 329.653 135.083 329.79 134.877 329.87C134.677 329.95 134.45 329.99 134.197 329.99ZM135.877 328.15L134.527 322.75H135.247L136.427 327.57L135.877 328.15ZM143.468 327.66L144.328 323.37H141.798L141.508 324.57C141.415 324.923 141.318 325.27 141.218 325.61C141.125 325.943 141.018 326.25 140.898 326.53C140.778 326.81 140.638 327.04 140.478 327.22C140.325 327.393 140.142 327.493 139.928 327.52L139.198 327.38C139.412 327.387 139.598 327.313 139.758 327.16C139.925 327 140.075 326.78 140.208 326.5C140.342 326.22 140.462 325.903 140.568 325.55C140.675 325.197 140.775 324.837 140.868 324.47L141.288 322.75H145.158L144.178 327.66H143.468ZM138.638 329.27L139.008 327.38H145.058L144.688 329.27H144.018L144.268 328H139.558L139.308 329.27H138.638ZM148.782 328.05C148.282 328.05 147.846 327.96 147.472 327.78C147.106 327.593 146.822 327.333 146.622 327C146.429 326.667 146.332 326.27 146.332 325.81C146.332 325.21 146.459 324.677 146.712 324.21C146.966 323.743 147.312 323.377 147.752 323.11C148.192 322.837 148.689 322.7 149.242 322.7C149.709 322.7 150.112 322.79 150.452 322.97C150.792 323.143 151.056 323.397 151.242 323.73C151.436 324.063 151.532 324.463 151.532 324.93C151.532 325.037 151.526 325.147 151.512 325.26C151.499 325.367 151.482 325.47 151.462 325.57H146.852L146.942 325.04H151.132L150.842 325.24C150.909 324.82 150.879 324.467 150.752 324.18C150.626 323.893 150.429 323.677 150.162 323.53C149.902 323.377 149.589 323.3 149.222 323.3C148.796 323.3 148.416 323.407 148.082 323.62C147.749 323.827 147.489 324.117 147.302 324.49C147.116 324.857 147.022 325.287 147.022 325.78C147.022 326.307 147.172 326.713 147.472 327C147.779 327.28 148.236 327.42 148.842 327.42C149.196 327.42 149.522 327.363 149.822 327.25C150.122 327.13 150.369 326.967 150.562 326.76L150.882 327.27C150.636 327.517 150.326 327.71 149.952 327.85C149.586 327.983 149.196 328.05 148.782 328.05ZM152.533 328L153.583 322.75H154.293L153.833 325.07H157.133L157.603 322.75H158.313L157.263 328H156.553L157.013 325.68H153.713L153.243 328H152.533ZM159.271 328L160.321 322.75H161.031L160.571 325.07H163.871L164.341 322.75H165.051L164.001 328H163.291L163.751 325.68H160.451L159.981 328H159.271ZM168.329 328.05C167.883 328.05 167.486 327.96 167.139 327.78C166.793 327.6 166.523 327.343 166.329 327.01C166.136 326.677 166.039 326.28 166.039 325.82C166.039 325.373 166.113 324.96 166.259 324.58C166.406 324.2 166.613 323.87 166.879 323.59C167.146 323.303 167.459 323.083 167.819 322.93C168.186 322.777 168.583 322.7 169.009 322.7C169.469 322.7 169.859 322.783 170.179 322.95C170.499 323.11 170.746 323.347 170.919 323.66C171.093 323.967 171.179 324.34 171.179 324.78C171.179 325.413 171.063 325.977 170.829 326.47C170.596 326.963 170.266 327.35 169.839 327.63C169.413 327.91 168.909 328.05 168.329 328.05ZM168.479 327.42C168.919 327.42 169.309 327.317 169.649 327.11C169.996 326.897 170.266 326.603 170.459 326.23C170.659 325.857 170.759 325.433 170.759 324.96C170.759 324.44 170.606 324.037 170.299 323.75C169.999 323.463 169.576 323.32 169.029 323.32C168.596 323.32 168.206 323.427 167.859 323.64C167.513 323.853 167.239 324.147 167.039 324.52C166.846 324.887 166.749 325.31 166.749 325.79C166.749 326.303 166.899 326.703 167.199 326.99C167.506 327.277 167.933 327.42 168.479 327.42ZM170.209 328L170.509 326.49L170.809 325.43L170.909 324.33L171.229 322.75H171.939L170.889 328H170.209ZM176.314 328L176.694 326.09L176.804 326.28H175.044C174.43 326.28 173.964 326.147 173.644 325.88C173.324 325.607 173.164 325.23 173.164 324.75C173.164 324.123 173.397 323.633 173.864 323.28C174.33 322.927 174.967 322.75 175.774 322.75H178.004L176.964 328H176.314ZM172.474 328L174.324 325.98H175.074L173.284 328H172.474ZM176.734 325.91L177.284 323.13L177.384 323.36H175.724C175.144 323.36 174.694 323.48 174.374 323.72C174.054 323.96 173.894 324.3 173.894 324.74C173.894 325.387 174.314 325.71 175.154 325.71H176.894L176.734 325.91ZM180.645 327.99L180.815 327.38C180.862 327.387 180.905 327.397 180.945 327.41C180.985 327.417 181.022 327.42 181.055 327.42C181.295 327.42 181.505 327.313 181.685 327.1C181.872 326.88 182.039 326.56 182.185 326.14C182.339 325.72 182.492 325.207 182.645 324.6L183.105 322.75H186.955L185.895 328H185.185L186.155 323.14L186.305 323.37H183.445L183.655 323.14L183.275 324.67C183.129 325.243 182.982 325.743 182.835 326.17C182.695 326.59 182.542 326.94 182.375 327.22C182.215 327.5 182.035 327.71 181.835 327.85C181.642 327.99 181.419 328.06 181.165 328.06C181.079 328.06 180.995 328.053 180.915 328.04C180.835 328.027 180.745 328.01 180.645 327.99ZM187.914 328L188.974 322.75H189.684L188.834 326.99L193.154 322.75H193.834L192.784 328H192.054L192.924 323.75L188.604 328H187.914ZM194.798 328L195.848 322.75H196.558L196.098 325.07H199.398L199.868 322.75H200.578L199.528 328H198.818L199.278 325.68H195.978L195.508 328H194.798ZM201.537 328L202.597 322.75H203.307L202.457 326.99L206.777 322.75H207.457L206.407 328H205.677L206.547 323.75L202.227 328H201.537ZM211.831 328L212.211 326.09L212.321 326.28H210.561C209.948 326.28 209.481 326.147 209.161 325.88C208.841 325.607 208.681 325.23 208.681 324.75C208.681 324.123 208.915 323.633 209.381 323.28C209.848 322.927 210.485 322.75 211.291 322.75H213.521L212.481 328H211.831ZM207.991 328L209.841 325.98H210.591L208.801 328H207.991ZM212.251 325.91L212.801 323.13L212.901 323.36H211.241C210.661 323.36 210.211 323.48 209.891 323.72C209.571 323.96 209.411 324.3 209.411 324.74C209.411 325.387 209.831 325.71 210.671 325.71H212.411L212.251 325.91Z" fill="white"/>
<path d="M228.56 366L229.96 359H230.77L232.87 364.3L232.44 364.29L236.55 359H237.41L236.01 366H235.05L236.16 360.48L236.41 360.5L232.76 365.15H232.3L230.41 360.48L230.62 360.51L229.52 366H228.56ZM240.419 366.06C239.972 366.06 239.572 365.97 239.219 365.79C238.866 365.603 238.586 365.34 238.379 365C238.179 364.66 238.079 364.25 238.079 363.77C238.079 363.317 238.152 362.9 238.299 362.52C238.452 362.14 238.662 361.81 238.929 361.53C239.202 361.25 239.522 361.033 239.889 360.88C240.256 360.727 240.652 360.65 241.079 360.65C241.539 360.65 241.929 360.73 242.249 360.89C242.569 361.05 242.816 361.287 242.989 361.6C243.162 361.907 243.249 362.283 243.249 362.73C243.249 363.383 243.136 363.963 242.909 364.47C242.682 364.97 242.356 365.36 241.929 365.64C241.509 365.92 241.006 366.06 240.419 366.06ZM240.629 365.22C241.029 365.22 241.386 365.123 241.699 364.93C242.012 364.737 242.256 364.473 242.429 364.14C242.609 363.8 242.699 363.413 242.699 362.98C242.699 362.513 242.562 362.15 242.289 361.89C242.016 361.623 241.626 361.49 241.119 361.49C240.726 361.49 240.372 361.587 240.059 361.78C239.746 361.967 239.499 362.23 239.319 362.57C239.139 362.903 239.049 363.29 239.049 363.73C239.049 364.19 239.186 364.553 239.459 364.82C239.732 365.087 240.122 365.22 240.629 365.22ZM242.159 366L242.439 364.63L242.759 363.4L242.889 362.14L243.169 360.7H244.129L243.079 366H242.159ZM246.003 366L246.923 361.29L247.103 361.54H244.953L245.113 360.7H249.953L249.793 361.54H247.603L247.883 361.29L246.963 366H246.003ZM252.23 366.06C251.71 366.06 251.26 365.967 250.88 365.78C250.5 365.587 250.207 365.32 250 364.98C249.794 364.633 249.69 364.227 249.69 363.76C249.69 363.16 249.82 362.627 250.08 362.16C250.34 361.693 250.694 361.327 251.14 361.06C251.594 360.787 252.107 360.65 252.68 360.65C253.16 360.65 253.577 360.743 253.93 360.93C254.284 361.11 254.557 361.37 254.75 361.71C254.95 362.05 255.05 362.46 255.05 362.94C255.05 363.06 255.044 363.183 255.03 363.31C255.017 363.43 255 363.543 254.98 363.65H250.39L250.51 362.95H254.52L254.13 363.19C254.19 362.817 254.164 362.503 254.05 362.25C253.937 361.99 253.757 361.793 253.51 361.66C253.27 361.52 252.98 361.45 252.64 361.45C252.24 361.45 251.887 361.547 251.58 361.74C251.28 361.927 251.047 362.19 250.88 362.53C250.714 362.863 250.63 363.257 250.63 363.71C250.63 364.19 250.767 364.563 251.04 364.83C251.32 365.09 251.744 365.22 252.31 365.22C252.644 365.22 252.954 365.167 253.24 365.06C253.527 364.947 253.764 364.797 253.95 364.61L254.36 365.3C254.107 365.547 253.79 365.737 253.41 365.87C253.03 365.997 252.637 366.06 252.23 366.06ZM255.871 366L256.931 360.7H257.911L259.401 364.62H259.001L262.131 360.7H263.031L261.981 366H261.111L261.951 361.78L262.101 361.87L259.261 365.4H258.841L257.411 361.8L257.591 361.76L256.751 366H255.871ZM266.229 366.06C265.783 366.06 265.383 365.97 265.029 365.79C264.676 365.603 264.396 365.34 264.189 365C263.989 364.66 263.889 364.25 263.889 363.77C263.889 363.317 263.963 362.9 264.109 362.52C264.263 362.14 264.473 361.81 264.739 361.53C265.013 361.25 265.333 361.033 265.699 360.88C266.066 360.727 266.463 360.65 266.889 360.65C267.349 360.65 267.739 360.73 268.059 360.89C268.379 361.05 268.626 361.287 268.799 361.6C268.973 361.907 269.059 362.283 269.059 362.73C269.059 363.383 268.946 363.963 268.719 364.47C268.493 364.97 268.166 365.36 267.739 365.64C267.319 365.92 266.816 366.06 266.229 366.06ZM266.439 365.22C266.839 365.22 267.196 365.123 267.509 364.93C267.823 364.737 268.066 364.473 268.239 364.14C268.419 363.8 268.509 363.413 268.509 362.98C268.509 362.513 268.373 362.15 268.099 361.89C267.826 361.623 267.436 361.49 266.929 361.49C266.536 361.49 266.183 361.587 265.869 361.78C265.556 361.967 265.309 362.23 265.129 362.57C264.949 362.903 264.859 363.29 264.859 363.73C264.859 364.19 264.996 364.553 265.269 364.82C265.543 365.087 265.933 365.22 266.439 365.22ZM267.969 366L268.249 364.63L268.569 363.4L268.699 362.14L268.979 360.7H269.939L268.889 366H267.969ZM271.814 366L272.734 361.29L272.914 361.54H270.764L270.924 360.7H275.764L275.604 361.54H273.414L273.694 361.29L272.774 366H271.814ZM275.685 366L276.755 360.7H277.725L276.925 364.66L280.925 360.7H281.835L280.785 366H279.805L280.615 362.04L276.615 366H275.685ZM286.448 363.85C286.141 363.977 285.831 364.077 285.518 364.15C285.211 364.223 284.911 364.26 284.618 364.26C283.958 364.26 283.468 364.103 283.148 363.79C282.828 363.477 282.731 363.007 282.858 362.38L283.188 360.7H284.148L283.808 362.4C283.741 362.773 283.798 363.047 283.978 363.22C284.165 363.387 284.448 363.47 284.828 363.47C285.101 363.47 285.381 363.433 285.668 363.36C285.955 363.287 286.245 363.19 286.538 363.07L286.448 363.85ZM285.908 366L286.968 360.7H287.928L286.868 366H285.908ZM291.322 366.06C290.802 366.06 290.352 365.967 289.972 365.78C289.592 365.587 289.299 365.32 289.092 364.98C288.885 364.633 288.782 364.227 288.782 363.76C288.782 363.16 288.912 362.627 289.172 362.16C289.432 361.693 289.785 361.327 290.232 361.06C290.685 360.787 291.199 360.65 291.772 360.65C292.252 360.65 292.669 360.743 293.022 360.93C293.375 361.11 293.649 361.37 293.842 361.71C294.042 362.05 294.142 362.46 294.142 362.94C294.142 363.06 294.135 363.183 294.122 363.31C294.109 363.43 294.092 363.543 294.072 363.65H289.482L289.602 362.95H293.612L293.222 363.19C293.282 362.817 293.255 362.503 293.142 362.25C293.029 361.99 292.849 361.793 292.602 361.66C292.362 361.52 292.072 361.45 291.732 361.45C291.332 361.45 290.979 361.547 290.672 361.74C290.372 361.927 290.139 362.19 289.972 362.53C289.805 362.863 289.722 363.257 289.722 363.71C289.722 364.19 289.859 364.563 290.132 364.83C290.412 365.09 290.835 365.22 291.402 365.22C291.735 365.22 292.045 365.167 292.332 365.06C292.619 364.947 292.855 364.797 293.042 364.61L293.452 365.3C293.199 365.547 292.882 365.737 292.502 365.87C292.122 365.997 291.729 366.06 291.322 366.06ZM297.523 366.06C297.009 366.06 296.563 365.967 296.183 365.78C295.809 365.587 295.519 365.32 295.313 364.98C295.106 364.633 295.003 364.23 295.003 363.77C295.003 363.17 295.136 362.637 295.403 362.17C295.669 361.697 296.039 361.327 296.513 361.06C296.986 360.787 297.523 360.65 298.123 360.65C298.636 360.65 299.076 360.747 299.443 360.94C299.809 361.127 300.096 361.413 300.303 361.8L299.493 362.25C299.359 361.99 299.169 361.8 298.923 361.68C298.683 361.553 298.393 361.49 298.053 361.49C297.653 361.49 297.296 361.587 296.983 361.78C296.669 361.967 296.423 362.23 296.243 362.57C296.063 362.903 295.973 363.29 295.973 363.73C295.973 364.19 296.109 364.553 296.383 364.82C296.663 365.087 297.056 365.22 297.563 365.22C297.876 365.22 298.169 365.157 298.443 365.03C298.723 364.903 298.956 364.717 299.143 364.47L299.842 364.97C299.603 365.31 299.276 365.577 298.863 365.77C298.449 365.963 298.003 366.06 297.523 366.06ZM304.652 366L303.152 363.4L303.952 363.04L305.762 366H304.652ZM300.802 366L301.872 360.7H302.832L301.762 366H300.802ZM301.932 363.76L302.082 362.94H303.832L303.682 363.76H301.932ZM303.982 363.46L303.072 363.34L305.642 360.7H306.712L303.982 363.46ZM306.759 366L307.829 360.7H308.799L307.999 364.66L311.999 360.7H312.909L311.859 366H310.879L311.689 362.04L307.689 366H306.759ZM313.722 366L314.792 360.7H315.762L314.962 364.66L318.962 360.7H319.872L318.822 366H317.842L318.652 362.04L314.652 366H313.722ZM317.482 359.98C316.976 359.98 316.602 359.863 316.362 359.63C316.122 359.39 316.042 359.053 316.122 358.62H316.772C316.726 358.88 316.772 359.087 316.912 359.24C317.052 359.387 317.259 359.46 317.532 359.46C317.806 359.46 318.036 359.387 318.222 359.24C318.416 359.093 318.542 358.887 318.602 358.62H319.262C319.176 359.067 318.979 359.407 318.672 359.64C318.366 359.867 317.969 359.98 317.482 359.98ZM323.371 366L324.431 360.7H328.331L328.161 361.54H324.981L325.261 361.32L324.331 366H323.371ZM330.549 366.06C330.042 366.06 329.602 365.967 329.229 365.78C328.862 365.587 328.576 365.32 328.369 364.98C328.162 364.633 328.059 364.23 328.059 363.77C328.059 363.17 328.192 362.637 328.459 362.17C328.726 361.697 329.092 361.327 329.559 361.06C330.032 360.787 330.569 360.65 331.169 360.65C331.669 360.65 332.106 360.743 332.479 360.93C332.852 361.117 333.139 361.38 333.339 361.72C333.546 362.06 333.649 362.463 333.649 362.93C333.649 363.53 333.516 364.067 333.249 364.54C332.982 365.007 332.616 365.377 332.149 365.65C331.689 365.923 331.156 366.06 330.549 366.06ZM330.609 365.22C331.009 365.22 331.366 365.123 331.679 364.93C331.992 364.737 332.236 364.473 332.409 364.14C332.589 363.8 332.679 363.413 332.679 362.98C332.679 362.513 332.542 362.15 332.269 361.89C331.996 361.623 331.606 361.49 331.099 361.49C330.706 361.49 330.352 361.587 330.039 361.78C329.726 361.967 329.479 362.23 329.299 362.57C329.119 362.903 329.029 363.29 329.029 363.73C329.029 364.19 329.166 364.553 329.439 364.82C329.712 365.087 330.102 365.22 330.609 365.22ZM337.564 366.06C337.11 366.06 336.72 365.98 336.394 365.82C336.074 365.653 335.827 365.417 335.654 365.11C335.48 364.797 335.394 364.42 335.394 363.98C335.394 363.313 335.507 362.733 335.734 362.24C335.96 361.74 336.284 361.35 336.704 361.07C337.13 360.79 337.637 360.65 338.224 360.65C338.677 360.65 339.077 360.74 339.424 360.92C339.777 361.1 340.054 361.363 340.254 361.71C340.46 362.05 340.564 362.457 340.564 362.93C340.564 363.383 340.487 363.8 340.334 364.18C340.187 364.56 339.977 364.89 339.704 365.17C339.437 365.45 339.12 365.67 338.754 365.83C338.387 365.983 337.99 366.06 337.564 366.06ZM334.124 367.94L335.564 360.7H336.484L336.204 362.07L335.894 363.3L335.754 364.56L335.084 367.94H334.124ZM337.524 365.22C337.924 365.22 338.277 365.123 338.584 364.93C338.897 364.737 339.144 364.473 339.324 364.14C339.504 363.8 339.594 363.413 339.594 362.98C339.594 362.513 339.457 362.15 339.184 361.89C338.91 361.623 338.52 361.49 338.014 361.49C337.62 361.49 337.264 361.587 336.944 361.78C336.63 361.967 336.384 362.23 336.204 362.57C336.03 362.903 335.944 363.29 335.944 363.73C335.944 364.19 336.08 364.553 336.354 364.82C336.627 365.087 337.017 365.22 337.524 365.22ZM341.418 366L342.488 360.7H343.458L342.658 364.66L346.658 360.7H347.568L346.518 366H345.538L346.348 362.04L342.348 366H341.418ZM349.873 366.07C349.066 366.07 348.376 365.86 347.803 365.44L348.173 364.76C348.379 364.92 348.633 365.043 348.933 365.13C349.239 365.21 349.563 365.25 349.903 365.25C350.229 365.25 350.513 365.21 350.753 365.13C350.999 365.043 351.193 364.93 351.333 364.79C351.473 364.65 351.543 364.49 351.543 364.31C351.543 364.09 351.446 363.92 351.253 363.8C351.066 363.68 350.799 363.62 350.453 363.62H349.493L349.603 362.92H350.413C350.813 362.92 351.133 362.85 351.373 362.71C351.619 362.563 351.743 362.373 351.743 362.14C351.743 361.933 351.643 361.77 351.443 361.65C351.249 361.523 350.973 361.46 350.613 361.46C350.346 361.46 350.079 361.497 349.813 361.57C349.553 361.643 349.266 361.747 348.953 361.88L348.723 361.08C349.049 360.927 349.379 360.813 349.713 360.74C350.046 360.667 350.373 360.63 350.693 360.63C351.099 360.63 351.456 360.687 351.763 360.8C352.069 360.907 352.306 361.063 352.473 361.27C352.646 361.47 352.733 361.707 352.733 361.98C352.733 362.22 352.663 362.437 352.523 362.63C352.389 362.823 352.199 362.983 351.953 363.11C351.713 363.237 351.426 363.317 351.093 363.35L351.073 363.17C351.526 363.223 351.876 363.353 352.123 363.56C352.376 363.767 352.503 364.04 352.503 364.38C352.503 364.7 352.389 364.99 352.163 365.25C351.936 365.503 351.623 365.703 351.223 365.85C350.829 365.997 350.379 366.07 349.873 366.07ZM356.155 366.06C355.648 366.06 355.208 365.967 354.835 365.78C354.468 365.587 354.181 365.32 353.975 364.98C353.768 364.633 353.665 364.23 353.665 363.77C353.665 363.17 353.798 362.637 354.065 362.17C354.331 361.697 354.698 361.327 355.165 361.06C355.638 360.787 356.175 360.65 356.775 360.65C357.275 360.65 357.711 360.743 358.085 360.93C358.458 361.117 358.745 361.38 358.945 361.72C359.151 362.06 359.255 362.463 359.255 362.93C359.255 363.53 359.121 364.067 358.855 364.54C358.588 365.007 358.221 365.377 357.755 365.65C357.295 365.923 356.761 366.06 356.155 366.06ZM356.215 365.22C356.615 365.22 356.971 365.123 357.285 364.93C357.598 364.737 357.841 364.473 358.015 364.14C358.195 363.8 358.285 363.413 358.285 362.98C358.285 362.513 358.148 362.15 357.875 361.89C357.601 361.623 357.211 361.49 356.705 361.49C356.311 361.49 355.958 361.587 355.645 361.78C355.331 361.967 355.085 362.23 354.905 362.57C354.725 362.903 354.635 363.29 354.635 363.73C354.635 364.19 354.771 364.553 355.045 364.82C355.318 365.087 355.708 365.22 356.215 365.22ZM360.109 366L361.169 360.7H362.129L361.679 362.95H364.699L365.149 360.7H366.109L365.049 366H364.089L364.539 363.78H361.519L361.069 366H360.109ZM367.966 366L368.886 361.29L369.066 361.54H366.916L367.076 360.7H371.916L371.756 361.54H369.566L369.846 361.29L368.926 366H367.966Z" fill="white"/>
<path d="M313.06 536.02C313.06 536.707 312.94 537.293 312.7 537.78C312.453 538.267 312.113 538.637 311.68 538.89C311.24 539.137 310.73 539.26 310.15 539.26C309.577 539.26 309.037 539.163 308.53 538.97C308.023 538.777 307.577 538.497 307.19 538.13C306.797 537.757 306.49 537.31 306.27 536.79C306.05 536.27 305.94 535.687 305.94 535.04C305.94 534.347 306.063 533.76 306.31 533.28C306.55 532.793 306.89 532.427 307.33 532.18C307.763 531.927 308.27 531.8 308.85 531.8C309.423 531.8 309.963 531.897 310.47 532.09C310.977 532.283 311.427 532.567 311.82 532.94C312.207 533.307 312.51 533.75 312.73 534.27C312.95 534.79 313.06 535.373 313.06 536.02ZM312.4 535.95C312.4 535.43 312.31 534.96 312.13 534.54C311.943 534.12 311.687 533.76 311.36 533.46C311.033 533.16 310.66 532.93 310.24 532.77C309.813 532.61 309.36 532.53 308.88 532.53C308.427 532.53 308.03 532.63 307.69 532.83C307.35 533.023 307.083 533.31 306.89 533.69C306.697 534.07 306.6 534.543 306.6 535.11C306.6 535.63 306.693 536.1 306.88 536.52C307.06 536.94 307.313 537.3 307.64 537.6C307.967 537.893 308.343 538.123 308.77 538.29C309.19 538.45 309.64 538.53 310.12 538.53C310.567 538.53 310.963 538.433 311.31 538.24C311.65 538.04 311.917 537.75 312.11 537.37C312.303 536.99 312.4 536.517 312.4 535.95ZM313 530.063L308.18 529.103L308.37 528.963V531.123L307.75 531.003V526.303L308.37 526.433V528.613L308.18 528.393L313 529.353V530.063ZM313 526.336L307.75 525.276V522.986C307.75 522.433 307.85 522.013 308.05 521.726C308.243 521.44 308.53 521.296 308.91 521.296C309.357 521.296 309.72 521.483 310 521.856C310.273 522.23 310.41 522.72 310.41 523.326L310.22 523.196C310.22 522.643 310.313 522.24 310.5 521.986C310.68 521.726 310.967 521.596 311.36 521.596C311.873 521.596 312.277 521.803 312.57 522.216C312.857 522.623 313 523.186 313 523.906V526.336ZM312.44 525.526V523.866C312.44 523.373 312.343 522.99 312.15 522.716C311.957 522.436 311.687 522.296 311.34 522.296C311.08 522.296 310.893 522.383 310.78 522.556C310.667 522.73 310.61 523.01 310.61 523.396V525.156L312.44 525.526ZM310.08 525.056V523.486C310.08 523.046 309.987 522.693 309.8 522.426C309.607 522.153 309.35 522.016 309.03 522.016C308.783 522.016 308.6 522.11 308.48 522.296C308.36 522.476 308.3 522.75 308.3 523.116V524.696L310.08 525.056ZM313.05 517.772C313.05 518.272 312.96 518.709 312.78 519.082C312.593 519.449 312.333 519.732 312 519.932C311.667 520.126 311.27 520.222 310.81 520.222C310.21 520.222 309.677 520.096 309.21 519.842C308.743 519.589 308.377 519.242 308.11 518.802C307.837 518.362 307.7 517.866 307.7 517.312C307.7 516.846 307.79 516.442 307.97 516.102C308.143 515.762 308.397 515.499 308.73 515.312C309.063 515.119 309.463 515.022 309.93 515.022C310.037 515.022 310.147 515.029 310.26 515.042C310.367 515.056 310.47 515.072 310.57 515.092V519.702L310.04 519.612V515.422L310.24 515.712C309.82 515.646 309.467 515.676 309.18 515.802C308.893 515.929 308.677 516.126 308.53 516.392C308.377 516.652 308.3 516.966 308.3 517.332C308.3 517.759 308.407 518.139 308.62 518.472C308.827 518.806 309.117 519.066 309.49 519.252C309.857 519.439 310.287 519.532 310.78 519.532C311.307 519.532 311.713 519.382 312 519.082C312.28 518.776 312.42 518.319 312.42 517.712C312.42 517.359 312.363 517.032 312.25 516.732C312.13 516.432 311.967 516.186 311.76 515.992L312.27 515.672C312.517 515.919 312.71 516.229 312.85 516.602C312.983 516.969 313.05 517.359 313.05 517.772ZM313.05 511.572C313.05 512.072 312.96 512.505 312.78 512.872C312.593 513.232 312.333 513.512 312 513.712C311.667 513.905 311.273 514.002 310.82 514.002C310.22 514.002 309.687 513.872 309.22 513.612C308.747 513.352 308.377 512.992 308.11 512.532C307.837 512.065 307.7 511.535 307.7 510.942C307.7 510.455 307.79 510.039 307.97 509.692C308.143 509.339 308.403 509.065 308.75 508.872L309.1 509.472C308.833 509.619 308.637 509.822 308.51 510.082C308.383 510.335 308.32 510.642 308.32 511.002C308.32 511.442 308.427 511.835 308.64 512.182C308.853 512.529 309.147 512.802 309.52 513.002C309.887 513.195 310.31 513.292 310.79 513.292C311.303 513.292 311.703 513.142 311.99 512.842C312.277 512.535 312.42 512.102 312.42 511.542C312.42 511.202 312.357 510.889 312.23 510.602C312.097 510.309 311.907 510.069 311.66 509.882L312.05 509.372C312.363 509.599 312.61 509.909 312.79 510.302C312.963 510.695 313.05 511.119 313.05 511.572ZM313 508.26L307.75 507.21V506.5L310.07 506.96V503.66L307.75 503.19V502.48L313 503.53V504.24L310.68 503.78V507.08L313 507.55V508.26ZM313.05 499.202C313.05 499.649 312.96 500.045 312.78 500.392C312.6 500.739 312.343 501.009 312.01 501.202C311.677 501.395 311.28 501.492 310.82 501.492C310.373 501.492 309.96 501.419 309.58 501.272C309.2 501.125 308.87 500.919 308.59 500.652C308.303 500.385 308.083 500.072 307.93 499.712C307.777 499.345 307.7 498.949 307.7 498.522C307.7 498.062 307.783 497.672 307.95 497.352C308.11 497.032 308.347 496.785 308.66 496.612C308.967 496.439 309.34 496.352 309.78 496.352C310.413 496.352 310.977 496.469 311.47 496.702C311.963 496.935 312.35 497.265 312.63 497.692C312.91 498.119 313.05 498.622 313.05 499.202ZM312.42 499.052C312.42 498.612 312.317 498.222 312.11 497.882C311.897 497.535 311.603 497.265 311.23 497.072C310.857 496.872 310.433 496.772 309.96 496.772C309.44 496.772 309.037 496.925 308.75 497.232C308.463 497.532 308.32 497.955 308.32 498.502C308.32 498.935 308.427 499.325 308.64 499.672C308.853 500.019 309.147 500.292 309.52 500.492C309.887 500.685 310.31 500.782 310.79 500.782C311.303 500.782 311.703 500.632 311.99 500.332C312.277 500.025 312.42 499.599 312.42 499.052ZM313 497.322L311.49 497.022L310.43 496.722L309.33 496.622L307.75 496.302V495.592L313 496.642V497.322ZM313 491.217L311.09 490.837L311.28 490.727V492.487C311.28 493.101 311.147 493.567 310.88 493.887C310.607 494.207 310.23 494.367 309.75 494.367C309.123 494.367 308.633 494.134 308.28 493.667C307.927 493.201 307.75 492.564 307.75 491.757V489.527L313 490.567V491.217ZM313 495.057L310.98 493.207V492.457L313 494.247V495.057ZM310.91 490.797L308.13 490.247L308.36 490.147V491.807C308.36 492.387 308.48 492.837 308.72 493.157C308.96 493.477 309.3 493.637 309.74 493.637C310.387 493.637 310.71 493.217 310.71 492.377V490.637L310.91 490.797ZM312.99 486.886L312.38 486.716C312.387 486.669 312.397 486.626 312.41 486.586C312.417 486.546 312.42 486.509 312.42 486.476C312.42 486.236 312.313 486.026 312.1 485.846C311.88 485.659 311.56 485.493 311.14 485.346C310.72 485.193 310.207 485.039 309.6 484.886L307.75 484.426V480.576L313 481.636V482.346L308.14 481.376L308.37 481.226V484.086L308.14 483.876L309.67 484.256C310.243 484.403 310.743 484.549 311.17 484.696C311.59 484.836 311.94 484.989 312.22 485.156C312.5 485.316 312.71 485.496 312.85 485.696C312.99 485.889 313.06 486.113 313.06 486.366C313.06 486.453 313.053 486.536 313.04 486.616C313.027 486.696 313.01 486.786 312.99 486.886ZM313 479.618L307.75 478.558V477.848L311.99 478.698L307.75 474.378V473.698L313 474.748V475.478L308.75 474.608L313 478.928V479.618ZM313 472.733L307.75 471.683V470.973L310.07 471.433V468.133L307.75 467.663V466.953L313 468.003V468.713L310.68 468.253V471.553L313 472.023V472.733ZM313 465.995L307.75 464.935V464.225L311.99 465.075L307.75 460.755V460.075L313 461.125V461.855L308.75 460.985L313 465.305V465.995ZM313 455.7L311.09 455.32L311.28 455.21V456.97C311.28 457.583 311.147 458.05 310.88 458.37C310.607 458.69 310.23 458.85 309.75 458.85C309.123 458.85 308.633 458.617 308.28 458.15C307.927 457.683 307.75 457.047 307.75 456.24V454.01L313 455.05V455.7ZM313 459.54L310.98 457.69V456.94L313 458.73V459.54ZM310.91 455.28L308.13 454.73L308.36 454.63V456.29C308.36 456.87 308.48 457.32 308.72 457.64C308.96 457.96 309.3 458.12 309.74 458.12C310.387 458.12 310.71 457.7 310.71 456.86V455.12L310.91 455.28Z" fill="white"/>
</svg>
