<svg width="206" height="60" viewBox="0 0 206 60" fill="none" xmlns="http://www.w3.org/2000/svg">
<path d="M0.000195317 19.48L0.810195 17.89C1.7302 18.69 2.7602 19.29 3.9002 19.69C5.0602 20.07 6.2202 20.27 7.3802 20.29C8.5402 20.29 9.6002 20.12 10.5602 19.78C11.5402 19.44 12.3302 18.94 12.9302 18.28C13.5302 17.6 13.8302 16.78 13.8302 15.82C13.8302 14.6 13.3402 13.66 12.3602 13C11.4002 12.34 10.0602 12.01 8.3402 12.01H3.8402V10.21H8.2202C9.7002 10.21 10.8502 9.9 11.6702 9.28C12.5102 8.64 12.9302 7.76 12.9302 6.64C12.9302 5.84 12.6902 5.16 12.2102 4.6C11.7502 4.02 11.1102 3.58 10.2902 3.28C9.4902 2.96 8.5902 2.79 7.5902 2.77C6.5902 2.73 5.5502 2.86 4.4702 3.16C3.4102 3.44 2.3802 3.89 1.3802 4.51L0.660195 2.68C1.9002 1.94 3.1902 1.43 4.5302 1.15C5.8702 0.849999 7.1702 0.749999 8.4302 0.849999C9.6902 0.949999 10.8202 1.24 11.8202 1.72C12.8402 2.2 13.6502 2.83 14.2502 3.61C14.8502 4.39 15.1502 5.32 15.1502 6.4C15.1502 7.4 14.8902 8.28 14.3702 9.04C13.8702 9.8 13.1602 10.39 12.2402 10.81C11.3402 11.21 10.2702 11.41 9.0302 11.41L9.1502 10.75C10.5502 10.75 11.7602 10.97 12.7802 11.41C13.8202 11.85 14.6202 12.48 15.1802 13.3C15.7602 14.1 16.0502 15.04 16.0502 16.12C16.0502 17.14 15.7902 18.05 15.2702 18.85C14.7702 19.63 14.0702 20.29 13.1702 20.83C12.2902 21.35 11.3002 21.73 10.2002 21.97C9.1002 22.19 7.9502 22.25 6.7502 22.15C5.5502 22.05 4.3702 21.79 3.2102 21.37C2.0502 20.93 0.980195 20.3 0.000195317 19.48ZM30.8325 22V18.52L30.7425 17.95V12.13C30.7425 10.79 30.3625 9.76 29.6025 9.04C28.8625 8.32 27.7525 7.96 26.2725 7.96C25.2525 7.96 24.2825 8.13 23.3625 8.47C22.4425 8.81 21.6625 9.26 21.0225 9.82L20.0625 8.23C20.8625 7.55 21.8225 7.03 22.9425 6.67C24.0625 6.29 25.2425 6.1 26.4825 6.1C28.5225 6.1 30.0925 6.61 31.1925 7.63C32.3125 8.63 32.8725 10.16 32.8725 12.22V22H30.8325ZM25.4025 22.15C24.2225 22.15 23.1925 21.96 22.3125 21.58C21.4525 21.18 20.7925 20.64 20.3325 19.96C19.8725 19.26 19.6425 18.46 19.6425 17.56C19.6425 16.74 19.8325 16 20.2125 15.34C20.6125 14.66 21.2525 14.12 22.1325 13.72C23.0325 13.3 24.2325 13.09 25.7325 13.09H31.1625V14.68H25.7925C24.2725 14.68 23.2125 14.95 22.6125 15.49C22.0325 16.03 21.7425 16.7 21.7425 17.5C21.7425 18.4 22.0925 19.12 22.7925 19.66C23.4925 20.2 24.4725 20.47 25.7325 20.47C26.9325 20.47 27.9625 20.2 28.8225 19.66C29.7025 19.1 30.3425 18.3 30.7425 17.26L31.2225 18.73C30.8225 19.77 30.1225 20.6 29.1225 21.22C28.1425 21.84 26.9025 22.15 25.4025 22.15ZM46.3943 22V6.25H53.3543C55.1343 6.25 56.5343 6.59 57.5543 7.27C58.5943 7.95 59.1143 8.95 59.1143 10.27C59.1143 11.55 58.6243 12.54 57.6443 13.24C56.6643 13.92 55.3743 14.26 53.7743 14.26L54.1943 13.63C56.0743 13.63 57.4543 13.98 58.3343 14.68C59.2143 15.38 59.6543 16.39 59.6543 17.71C59.6543 19.07 59.1543 20.13 58.1543 20.89C57.1743 21.63 55.6443 22 53.5643 22H46.3943ZM48.4643 20.32H53.4743C54.8143 20.32 55.8243 20.11 56.5043 19.69C57.2043 19.25 57.5543 18.55 57.5543 17.59C57.5543 16.63 57.2443 15.93 56.6243 15.49C56.0043 15.05 55.0243 14.83 53.6843 14.83H48.4643V20.32ZM48.4643 13.24H53.2043C54.4243 13.24 55.3543 13.01 55.9943 12.55C56.6543 12.09 56.9843 11.42 56.9843 10.54C56.9843 9.66 56.6543 9 55.9943 8.56C55.3543 8.12 54.4243 7.9 53.2043 7.9H48.4643V13.24ZM72.7762 22.15C71.4162 22.15 70.1862 21.84 69.0862 21.22C67.9862 20.58 67.1062 19.67 66.4462 18.49C65.8062 17.29 65.4862 15.83 65.4862 14.11C65.4862 12.39 65.8062 10.94 66.4462 9.76C67.0862 8.56 67.9562 7.65 69.0562 7.03C70.1562 6.41 71.3962 6.1 72.7762 6.1C74.2762 6.1 75.6162 6.44 76.7962 7.12C77.9962 7.78 78.9362 8.72 79.6162 9.94C80.2962 11.14 80.6362 12.53 80.6362 14.11C80.6362 15.71 80.2962 17.11 79.6162 18.31C78.9362 19.51 77.9962 20.45 76.7962 21.13C75.6162 21.81 74.2762 22.15 72.7762 22.15ZM64.6462 27.82V6.25H66.6862V10.99L66.4762 14.14L66.7762 17.32V27.82H64.6462ZM72.6262 20.26C73.7462 20.26 74.7462 20.01 75.6262 19.51C76.5062 18.99 77.2062 18.27 77.7262 17.35C78.2462 16.41 78.5062 15.33 78.5062 14.11C78.5062 12.89 78.2462 11.82 77.7262 10.9C77.2062 9.98 76.5062 9.26 75.6262 8.74C74.7462 8.22 73.7462 7.96 72.6262 7.96C71.5062 7.96 70.4962 8.22 69.5962 8.74C68.7162 9.26 68.0162 9.98 67.4962 10.9C66.9962 11.82 66.7462 12.89 66.7462 14.11C66.7462 15.33 66.9962 16.41 67.4962 17.35C68.0162 18.27 68.7162 18.99 69.5962 19.51C70.4962 20.01 71.5062 20.26 72.6262 20.26ZM91.9626 22.15C90.3226 22.15 88.8826 21.81 87.6426 21.13C86.4026 20.43 85.4326 19.48 84.7326 18.28C84.0326 17.06 83.6826 15.67 83.6826 14.11C83.6826 12.55 84.0126 11.17 84.6726 9.97C85.3526 8.77 86.2726 7.83 87.4326 7.15C88.6126 6.45 89.9326 6.1 91.3926 6.1C92.8726 6.1 94.1826 6.44 95.3226 7.12C96.4826 7.78 97.3926 8.72 98.0526 9.94C98.7126 11.14 99.0426 12.53 99.0426 14.11C99.0426 14.21 99.0326 14.32 99.0126 14.44C99.0126 14.54 99.0126 14.65 99.0126 14.77H85.3026V13.18H97.8726L97.0326 13.81C97.0326 12.67 96.7826 11.66 96.2826 10.78C95.8026 9.88 95.1426 9.18 94.3026 8.68C93.4626 8.18 92.4926 7.93 91.3926 7.93C90.3126 7.93 89.3426 8.18 88.4826 8.68C87.6226 9.18 86.9526 9.88 86.4726 10.78C85.9926 11.68 85.7526 12.71 85.7526 13.87V14.2C85.7526 15.4 86.0126 16.46 86.5326 17.38C87.0726 18.28 87.8126 18.99 88.7526 19.51C89.7126 20.01 90.8026 20.26 92.0226 20.26C92.9826 20.26 93.8726 20.09 94.6926 19.75C95.5326 19.41 96.2526 18.89 96.8526 18.19L98.0526 19.57C97.3526 20.41 96.4726 21.05 95.4126 21.49C94.3726 21.93 93.2226 22.15 91.9626 22.15ZM103.758 22V6.25H105.918L113.058 18.34H112.158L119.418 6.25H121.398V22H119.448V8.68L119.838 8.86L113.058 20.08H112.098L105.258 8.74L105.708 8.65V22H103.758ZM137.629 22V16.33L138.019 16.78H132.679C130.659 16.78 129.079 16.34 127.939 15.46C126.799 14.58 126.229 13.3 126.229 11.62C126.229 9.82 126.839 8.48 128.059 7.6C129.279 6.7 130.909 6.25 132.949 6.25H139.579V22H137.629ZM126.109 22L130.429 15.94H132.649L128.419 22H126.109ZM137.629 15.7V7.48L138.019 8.11H133.009C131.549 8.11 130.409 8.39 129.589 8.95C128.789 9.51 128.389 10.42 128.389 11.68C128.389 14.02 129.879 15.19 132.859 15.19H138.019L137.629 15.7ZM158.424 22.15C156.944 22.15 155.804 21.75 155.004 20.95C154.204 20.15 153.804 19.02 153.804 17.56V2.77H155.934V17.44C155.934 18.36 156.164 19.07 156.624 19.57C157.104 20.07 157.784 20.32 158.664 20.32C159.604 20.32 160.384 20.05 161.004 19.51L161.754 21.04C161.334 21.42 160.824 21.7 160.224 21.88C159.644 22.06 159.044 22.15 158.424 22.15ZM150.984 8.02V6.25H160.734V8.02H150.984ZM165.271 22V11.95L165.751 12.46H162.796V11.5H166.351V22H165.271ZM170.181 8.92V7.15H183.231V8.92H170.181ZM170.181 15.85V14.08H183.231V15.85H170.181ZM193.287 22.15C191.807 22.15 190.667 21.75 189.867 20.95C189.067 20.15 188.667 19.02 188.667 17.56V2.77H190.797V17.44C190.797 18.36 191.027 19.07 191.487 19.57C191.967 20.07 192.647 20.32 193.527 20.32C194.467 20.32 195.247 20.05 195.867 19.51L196.617 21.04C196.197 21.42 195.687 21.7 195.087 21.88C194.507 22.06 193.907 22.15 193.287 22.15ZM185.847 8.02V6.25H195.597V8.02H185.847ZM198.109 22V21.235L202.474 16.96C202.874 16.57 203.174 16.23 203.374 15.94C203.574 15.64 203.709 15.36 203.779 15.1C203.849 14.84 203.884 14.595 203.884 14.365C203.884 13.755 203.674 13.275 203.254 12.925C202.844 12.575 202.234 12.4 201.424 12.4C200.804 12.4 200.254 12.495 199.774 12.685C199.304 12.875 198.899 13.17 198.559 13.57L197.794 12.91C198.204 12.43 198.729 12.06 199.369 11.8C200.009 11.54 200.724 11.41 201.514 11.41C202.224 11.41 202.839 11.525 203.359 11.755C203.879 11.975 204.279 12.3 204.559 12.73C204.849 13.16 204.994 13.665 204.994 14.245C204.994 14.585 204.944 14.92 204.844 15.25C204.754 15.58 204.584 15.93 204.334 16.3C204.094 16.66 203.739 17.07 203.269 17.53L199.264 21.46L198.964 21.04H205.474V22H198.109ZM77.6524 59.18C76.0924 59.18 74.5924 58.93 73.1524 58.43C71.7324 57.91 70.6324 57.25 69.8524 56.45L70.7224 54.74C71.4624 55.46 72.4524 56.07 73.6924 56.57C74.9524 57.05 76.2724 57.29 77.6524 57.29C78.9724 57.29 80.0424 57.13 80.8624 56.81C81.7024 56.47 82.3124 56.02 82.6924 55.46C83.0924 54.9 83.2924 54.28 83.2924 53.6C83.2924 52.78 83.0524 52.12 82.5724 51.62C82.1124 51.12 81.5024 50.73 80.7424 50.45C79.9824 50.15 79.1424 49.89 78.2224 49.67C77.3024 49.45 76.3824 49.22 75.4624 48.98C74.5424 48.72 73.6924 48.38 72.9124 47.96C72.1524 47.54 71.5324 46.99 71.0524 46.31C70.5924 45.61 70.3624 44.7 70.3624 43.58C70.3624 42.54 70.6324 41.59 71.1724 40.73C71.7324 39.85 72.5824 39.15 73.7224 38.63C74.8624 38.09 76.3224 37.82 78.1024 37.82C79.2824 37.82 80.4524 37.99 81.6124 38.33C82.7724 38.65 83.7724 39.1 84.6124 39.68L83.8624 41.45C82.9624 40.85 82.0024 40.41 80.9824 40.13C79.9824 39.85 79.0124 39.71 78.0724 39.71C76.8124 39.71 75.7724 39.88 74.9524 40.22C74.1324 40.56 73.5224 41.02 73.1224 41.6C72.7424 42.16 72.5524 42.8 72.5524 43.52C72.5524 44.34 72.7824 45 73.2424 45.5C73.7224 46 74.3424 46.39 75.1024 46.67C75.8824 46.95 76.7324 47.2 77.6524 47.42C78.5724 47.64 79.4824 47.88 80.3824 48.14C81.3024 48.4 82.1424 48.74 82.9024 49.16C83.6824 49.56 84.3024 50.1 84.7624 50.78C85.2424 51.46 85.4824 52.35 85.4824 53.45C85.4824 54.47 85.2024 55.42 84.6424 56.3C84.0824 57.16 83.2224 57.86 82.0624 58.4C80.9224 58.92 79.4524 59.18 77.6524 59.18ZM89.5094 59V48.95L89.9894 49.46H87.0344V48.5H90.5894V59H89.5094ZM94.4193 45.92V44.15H107.469V45.92H94.4193ZM94.4193 52.85V51.08H107.469V52.85H94.4193ZM118.785 59.18C117.225 59.18 115.725 58.93 114.285 58.43C112.865 57.91 111.765 57.25 110.985 56.45L111.855 54.74C112.595 55.46 113.585 56.07 114.825 56.57C116.085 57.05 117.405 57.29 118.785 57.29C120.105 57.29 121.175 57.13 121.995 56.81C122.835 56.47 123.445 56.02 123.825 55.46C124.225 54.9 124.425 54.28 124.425 53.6C124.425 52.78 124.185 52.12 123.705 51.62C123.245 51.12 122.635 50.73 121.875 50.45C121.115 50.15 120.275 49.89 119.355 49.67C118.435 49.45 117.515 49.22 116.595 48.98C115.675 48.72 114.825 48.38 114.045 47.96C113.285 47.54 112.665 46.99 112.185 46.31C111.725 45.61 111.495 44.7 111.495 43.58C111.495 42.54 111.765 41.59 112.305 40.73C112.865 39.85 113.715 39.15 114.855 38.63C115.995 38.09 117.455 37.82 119.235 37.82C120.415 37.82 121.585 37.99 122.745 38.33C123.905 38.65 124.905 39.1 125.745 39.68L124.995 41.45C124.095 40.85 123.135 40.41 122.115 40.13C121.115 39.85 120.145 39.71 119.205 39.71C117.945 39.71 116.905 39.88 116.085 40.22C115.265 40.56 114.655 41.02 114.255 41.6C113.875 42.16 113.685 42.8 113.685 43.52C113.685 44.34 113.915 45 114.375 45.5C114.855 46 115.475 46.39 116.235 46.67C117.015 46.95 117.865 47.2 118.785 47.42C119.705 47.64 120.615 47.88 121.515 48.14C122.435 48.4 123.275 48.74 124.035 49.16C124.815 49.56 125.435 50.1 125.895 50.78C126.375 51.46 126.615 52.35 126.615 53.45C126.615 54.47 126.335 55.42 125.775 56.3C125.215 57.16 124.355 57.86 123.195 58.4C122.055 58.92 120.585 59.18 118.785 59.18ZM128.617 59V58.235L132.982 53.96C133.382 53.57 133.682 53.23 133.882 52.94C134.082 52.64 134.217 52.36 134.287 52.1C134.357 51.84 134.392 51.595 134.392 51.365C134.392 50.755 134.182 50.275 133.762 49.925C133.352 49.575 132.742 49.4 131.932 49.4C131.312 49.4 130.762 49.495 130.282 49.685C129.812 49.875 129.407 50.17 129.067 50.57L128.302 49.91C128.712 49.43 129.237 49.06 129.877 48.8C130.517 48.54 131.232 48.41 132.022 48.41C132.732 48.41 133.347 48.525 133.867 48.755C134.387 48.975 134.787 49.3 135.067 49.73C135.357 50.16 135.502 50.665 135.502 51.245C135.502 51.585 135.452 51.92 135.352 52.25C135.262 52.58 135.092 52.93 134.842 53.3C134.602 53.66 134.247 54.07 133.777 54.53L129.772 58.46L129.472 58.04H135.982V59H128.617Z" fill="white"/>
</svg>
