<svg width="36" height="24" viewBox="0 0 36 24" fill="none" xmlns="http://www.w3.org/2000/svg">
<path d="M0.909091 13.6534V12.0909H9.77273V13.6534H6.19318V23H4.51705V13.6534H0.909091ZM11.6229 23.1136C11.2725 23.1136 10.9718 22.9882 10.7209 22.7372C10.4699 22.4863 10.3445 22.1856 10.3445 21.8352C10.3445 21.4848 10.4699 21.1842 10.7209 20.9332C10.9718 20.6823 11.2725 20.5568 11.6229 20.5568C11.9732 20.5568 12.2739 20.6823 12.5249 20.9332C12.7758 21.1842 12.9013 21.4848 12.9013 21.8352C12.9013 22.0672 12.8421 22.2803 12.7237 22.4744C12.6101 22.6686 12.4562 22.8248 12.2621 22.9432C12.0727 23.0568 11.8596 23.1136 11.6229 23.1136ZM35.4261 12.0909C35.4261 14.392 35.0107 16.3807 34.1797 18.0568C33.3487 19.733 32.2088 21.0256 30.7599 21.9347C29.3111 22.8438 27.6563 23.2983 25.7955 23.2983C23.9347 23.2983 22.2798 22.8438 20.831 21.9347C19.3821 21.0256 18.2422 19.733 17.4112 18.0568C16.5803 16.3807 16.1648 14.392 16.1648 12.0909C16.1648 9.78977 16.5803 7.80114 17.4112 6.125C18.2422 4.44886 19.3821 3.15625 20.831 2.24716C22.2798 1.33807 23.9347 0.883522 25.7955 0.883522C27.6563 0.883522 29.3111 1.33807 30.7599 2.24716C32.2088 3.15625 33.3487 4.44886 34.1797 6.125C35.0107 7.80114 35.4261 9.78977 35.4261 12.0909ZM32.8693 12.0909C32.8693 10.2017 32.5533 8.60724 31.9212 7.30753C31.2962 6.00781 30.4474 5.02415 29.375 4.35653C28.3097 3.68892 27.1165 3.35511 25.7955 3.35511C24.4744 3.35511 23.2777 3.68892 22.2053 4.35653C21.1399 5.02415 20.2912 6.00781 19.6591 7.30753C19.0341 8.60724 18.7216 10.2017 18.7216 12.0909C18.7216 13.9801 19.0341 15.5746 19.6591 16.8743C20.2912 18.174 21.1399 19.1577 22.2053 19.8253C23.2777 20.4929 24.4744 20.8267 25.7955 20.8267C27.1165 20.8267 28.3097 20.4929 29.375 19.8253C30.4474 19.1577 31.2962 18.174 31.9212 16.8743C32.5533 15.5746 32.8693 13.9801 32.8693 12.0909Z" fill="white"/>
</svg>
